<?xml version="1.0" encoding="utf-8"?>
<!-- Generator: Adobe Illustrator 22.0.0, SVG Export Plug-In . SVG Version: 6.00 Build 0)  -->
<svg version="1.1" id="Layer_1" xmlns="http://www.w3.org/2000/svg" xmlns:xlink="http://www.w3.org/1999/xlink" x="0px" y="0px"
	 viewBox="0 0 20 21" style="enable-background:new 0 0 20 21;" xml:space="preserve">
<style type="text/css">
	.st0{fill:#9BB600;}
	.st1{fill:#D04B78;}
	.st2{fill:#FFC262;}
	.st3{fill:#B26A3F;}
	.st4{fill:#C9A2D1;}
	.st5{fill:#0096BC;}
	.st6{opacity:0.39;fill:#FFFFFF;}
	.st7{opacity:0.15;fill:#FFFFFF;}
	.st8{fill:#8D5330;}
	.st9{fill:#B08EB7;}
	.st10{fill:#0088AA;}
	.st11{fill:#8BA400;}
	.st12{fill:#F6B25A;}
	.st13{fill:#232020;}
	.st14{opacity:0.14;}
</style>
<g>
	<path class="st0" d="M10.8,7c-0.1-0.2-0.4-0.3-0.6-0.4c0.3-0.3,0.5-0.7,0.6-1.2c0.1-1-0.8-1.6-1.6-1.9c-0.9-0.3-1.9-0.3-2.7,0
		c-0.5,0-1,0.2-1.4,0.5C4.6,4.6,4,5.6,4.2,6.3c0.1,0.6,0.5,1.1,1.1,1.4c0,0,0,0,0,0c0,0,0,0,0,0c0,0,0,0.1,0,0.1c0,0-0.1,0-0.1,0.1
		C5,7.9,5,7.9,4.9,8c0,0,0,0,0,0c0,0,0,0,0,0c0,0,0,0.1-0.1,0.1c-0.1,0.1,0,0.2,0.1,0.3C5,8.4,5.1,8.4,5.2,8.5C5,9.1,6,9.3,6.4,9.4
		c0.5,0,1-0.1,1.5-0.2c0.4,0,0.9-0.1,1.3-0.3c0.5-0.2,1-0.3,1.4-0.6C10.9,7.9,11.2,7.4,10.8,7z"/>
	<path class="st1" d="M19,7.8c-0.1,0-0.2-0.1-0.2-0.2c0-0.2,0-0.3,0.1-0.4c0,0-0.1,0-0.1-0.1c0,0,0.1-0.1,0.1-0.1
		c0-0.1,0.1-0.2,0.2-0.3c0,0,0,0,0,0c0-0.1,0.1-0.2,0.1-0.3c0-0.2,0-0.4,0-0.6c0-0.1,0-0.2,0-0.3c0,0.1,0,0.1,0-0.1
		c0-0.1,0-0.1-0.1-0.2c0,0,0-0.1,0-0.1C19.1,5,19,4.9,18.9,4.7c0-0.1-0.1-0.1-0.1-0.2c0,0,0-0.1,0-0.1c0-0.1-0.1-0.1-0.1-0.2
		c-0.2,0-0.5-0.1-0.7,0c-1.1-0.8-2.9-0.8-4,0c-0.5,0.8-0.8,1.6-0.7,2.5c0,0,0,0,0,0.1c0,0.1,0.1,0.2,0.1,0.3c0,0.1,0.1,0.2,0.1,0.2
		c0.1,0,0.1,0.1,0.2,0.1c0,0,0,0-0.1,0.1c-0.3,0.3-0.3,0.6-0.2,0.8c0.1,0.4,0.6,0.6,1,0.7c0.5,0.2,1.1,0.3,1.7,0.4
		c1,0.1,2.6,0.2,3.2-0.8C19.1,8.3,19.1,8,19,7.8z"/>
	<path class="st2" d="M13.9,7.1c-0.3-0.8-1.4-1.4-2.1-1.6c-1-0.3-2.4-0.4-3.3,0.5C8.4,6,8.3,6.1,8.2,6.2C7.8,6.4,7.4,6.9,7.3,7.4
		C7.3,7.8,7.4,8.3,7.8,8.5c0,0.1,0,0.2,0,0.2c0,0,0,0,0,0C7.7,8.8,7.7,8.9,7.7,9.1c0,0.1,0.1,0.2,0.2,0.3c0,0,0,0,0,0
		C7.5,9.5,7.4,9.7,7.5,10c0,0,0,0,0,0c0,0.1,0,0.1,0.1,0.2c0,0.1,0.1,0.1,0.1,0.2c0.4,0.4,1,0.5,1.5,0.6c0.7,0.1,1.3,0,2,0.1
		c0.7,0,1.4,0,2-0.4c0.4-0.3,0.4-0.7-0.1-1c-0.1,0-0.2-0.1-0.3-0.1C13,9.4,13.2,9.2,13.3,9c0.1-0.1,0.1-0.3,0-0.4
		C13.8,8.3,14.1,7.8,13.9,7.1z"/>
	<path class="st3" d="M11.2,11.7c-0.1,0-0.1,0.1,0,0.1C11.3,11.8,11.3,11.7,11.2,11.7z"/>
	<path class="st3" d="M17.7,10.9c0.3-0.3,0.5-0.7,0.5-1.2c0-0.2-0.1-0.4-0.3-0.5c-0.4-0.8-1.6-1.3-2.5-1.4c-0.8-0.1-1.9-0.2-2.6,0.3
		c-0.3,0.2-0.5,0.5-0.6,0.8c0,0.2-0.1,0.3,0,0.5c-0.3,0.6-0.4,1.3,0,1.9c-0.1,0.2,0,0.4,0.2,0.6c-0.2,0.1-0.3,0.3-0.3,0.6
		c0.1,0.6,0.7,0.9,1.4,1c0,0,0,0,0,0c0.1,0,0.1,0,0.2,0c0,0,0.1,0,0.1,0c0.2,0,0.3,0,0.4,0c0.5,0,1,0.1,1.5,0.1c0.5,0,1,0,1.5-0.1
		c0.9-0.3,1-1.3,0.7-2.1C17.8,11.1,17.7,11,17.7,10.9z"/>
	<path class="st4" d="M12.9,13.9C12.9,13.9,12.9,13.9,12.9,13.9c0.1,0,0.2-0.1,0.3-0.1c-0.1-0.1-0.1-0.2,0-0.3
		c0-0.1,0.1-0.1,0.2-0.1c0.1,0,0.1,0,0.2,0c0,0,0.1,0,0.1,0c0-0.2-0.1-0.4-0.3-0.6c0,0-0.1,0-0.1-0.1c0.2-0.2,0.4-0.6,0.4-0.9
		c0-0.5-0.3-0.9-0.7-1.1c-0.3-0.3-0.9-0.5-1.5-0.6c-0.3-0.1-0.7-0.2-1-0.3c-1-0.1-2.9,0.1-3,1.4c-0.2,0.2-0.3,0.4-0.3,0.7
		c0,0.4,0.3,0.8,0.7,1c0,0.1,0.1,0.1,0.1,0.2c-0.2,0-0.4,0.1-0.4,0.3c0,0.1,0.1,0.3,0.1,0.4c-0.1,0.3,0,0.7,0.3,0.9
		C8.2,14.9,8.4,15,8.6,15c0.3,0.1,0.7,0.2,1,0.2c0.5,0,1,0.1,1.4-0.2c0.2,0,0.3,0,0.5,0c0.1,0,0.3,0,0.4-0.1c0.1,0,0.1,0,0.2,0
		c0.4,0,1.2-0.2,1.2-0.7C13.4,14.1,13.2,14,12.9,13.9z"/>
	<path class="st3" d="M13.6,12.9c-0.1,0-0.2,0-0.3,0c-0.1,0-0.1,0.1-0.1,0.1c0,0.1,0.1,0.1,0.1,0.1c0.1,0,0.2,0,0.3,0
		c0.1,0,0.1,0,0.2,0c0,0,0.1-0.1,0.1-0.1C13.9,12.9,13.7,12.9,13.6,12.9z"/>
	<path class="st5" d="M8.2,8.2C8,7.9,7.6,7.6,7.3,7.4c-0.9-0.6-2-0.8-3-0.6C3.6,6.9,2.8,7.2,2.4,7.9C2.3,8.1,2.2,8.4,2.2,8.7
		c0,0,0,0.1,0,0.1c0,0,0,0,0,0c-0.1,0.3,0,0.6,0.2,0.9c0,0,0,0,0,0c0,0,0,0,0,0c0,0.1,0,0.1,0,0.2c0,0.1,0,0.3,0,0.4
		c0.1,0.1,0.1,0.2,0.1,0.4c0,0.1-0.1,0.1-0.2,0.1c-0.2,0.9,1.3,1.2,1.9,1.3c0.5,0.1,1,0.1,1.5,0.1c0.5,0,1,0,1.4-0.2
		c0.2,0,0.3-0.1,0.5-0.1c0.5-0.2,0.8-0.6,0.4-1.1c0,0,0,0,0,0c0.1-0.1,0.2-0.3,0.2-0.4c0-0.1,0-0.1-0.1-0.2c0.3-0.1,0.5-0.3,0.6-0.6
		C8.8,9,8.5,8.6,8.2,8.2z"/>
	<path class="st4" d="M8.4,10.7c-0.3,0.1-0.4,0.3-0.6,0.6c0,0.1-0.1,0.1-0.1,0.2c-0.1,0.2-0.2,0.4-0.2,0.6h0c0,0,0,0,0.1,0
		c0,0,0.2,0,0.2,0c0.1-0.3,0.3-0.5,0.5-0.7c0.1-0.2,0.4-0.3,0.4-0.5C8.7,10.7,8.4,10.7,8.4,10.7z"/>
	<path class="st6" d="M6.2,10.4c-1.3,0-2.6-0.1-3.9-0.4c-0.1,0-0.2,0-0.2,0.1c0,0,0,0,0.1,0.1c0,0,0.1,0.1,0.1,0.1
		c1.2,0.5,2.7,0.6,4,0.3C6.4,10.5,6.4,10.4,6.2,10.4z"/>
	<path class="st6" d="M11.6,13.2c-0.5-0.1-1.1,0-1.7,0c-0.3,0-0.6,0-0.9,0c-0.3,0-0.8,0.1-1.1-0.1c-0.1,0-0.4,0-0.2,0.1
		c0.6,0.4,1.1,0.4,1.8,0.4c0.6,0,1.6,0,2.1-0.4C11.8,13.3,11.7,13.2,11.6,13.2z"/>
	<path class="st6" d="M15.7,11.4c-0.5,0.1-1.1,0.2-1.6,0.1c-0.2,0-0.4,0.2-0.1,0.3c0.6,0.1,1.3,0.1,1.9-0.1
		C16.1,11.6,15.9,11.4,15.7,11.4z"/>
	<path class="st6" d="M18.1,7.2c-0.8,0-1.5,0.1-2.3,0.1c-0.8,0-1.5-0.2-2.3-0.2c-0.1,0-0.4,0.2-0.2,0.3c0.7,0.3,1.6,0.4,2.3,0.4
		c0.9,0.1,1.8,0,2.6-0.1C18.7,7.6,18.6,7.1,18.1,7.2z"/>
	<path class="st6" d="M11.8,9.3c-0.2,0.1-0.4,0.1-0.6,0.1c0.1,0,0.2-0.1,0.4-0.2c0.3-0.2-0.1-0.4-0.3-0.4c-0.5,0-1,0.1-1.5,0.1
		c-0.5,0-1-0.1-1.4,0c-0.1,0-0.2,0.1-0.1,0.2c0,0,0,0,0,0c0,0-0.1,0.1-0.1,0.1c0,0.2,0.3,0.3,0.5,0.3c0.1,0,0.2,0,0.3-0.1
		c0,0,0,0,0,0c0.3,0.1,0.5,0.1,0.8,0.1c0,0,0,0,0,0c0.8,0.2,1.5,0.3,2.3,0.1C12.4,9.5,12,9.3,11.8,9.3z"/>
	<path class="st7" d="M7.2,7.8C7.2,7.8,7.2,7.8,7.2,7.8c0-0.2-0.1-0.3-0.3-0.3c0,0,0,0,0,0c0,0-0.1,0-0.1,0c0,0-0.1,0-0.1,0
		c-0.2-0.1-0.3-0.1-0.5,0c-0.2,0-0.5,0.2-0.6,0.4c0,0.3,0.2,0.4,0.5,0.5c0.3,0,0.6,0,0.9,0c0.1,0,0.3-0.1,0.3-0.2
		C7.3,8,7.3,7.9,7.2,7.8z"/>
	<path class="st7" d="M12.9,11.4c0,0,0-0.1-0.1-0.1c-0.3-0.3-0.6-0.4-1-0.4c-0.3,0-0.9,0.1-0.9,0.5c0,0.4,0.6,0.5,0.9,0.5
		c0.4,0,0.9,0,1.2-0.3C13.1,11.6,13,11.4,12.9,11.4z"/>
	<path class="st7" d="M11.8,6.1c-0.4-0.1-1.2-0.1-1.3,0.4c0,0.1,0.1,0.2,0.2,0.2c0.4,0.2,0.8,0.2,1.2,0.2c0.1,0,0.1,0,0.2-0.1
		c0.1,0,0.2,0,0.4,0.1c0.1,0,0.3,0,0.4-0.1C12.9,6.3,12.1,6.2,11.8,6.1z"/>
	<path class="st7" d="M17.1,9.3c-0.3-0.2-0.8-0.3-1.1-0.4c-0.3-0.1-0.9-0.2-1,0.2c-0.2,0.4,0.5,0.6,0.7,0.6c0.4,0.1,0.8,0.1,1.1-0.1
		c0,0,0,0,0,0c0,0,0,0,0,0C17,9.6,17.3,9.5,17.1,9.3z"/>
	<path class="st7" d="M18,4.6C17.9,4.6,17.9,4.6,18,4.6c-0.1-0.1-0.3-0.1-0.4-0.2c-0.4-0.2-0.8-0.2-1.2-0.1c-0.2,0-0.5,0.3-0.2,0.5
		c0.5,0.3,1.2,0.4,1.8,0.3C18.4,5.1,18.4,4.7,18,4.6z"/>
	<path class="st7" d="M8.6,4.2C8.4,4.1,8.2,4,8,4C7.7,4,7.2,4.1,7.2,4.4c0,0.3,0.6,0.4,0.8,0.4c0.4,0,0.9-0.1,1.2-0.3
		c0,0,0.1-0.1,0.1-0.1C9.3,4.1,8.9,4.1,8.6,4.2z"/>
	<path class="st8" d="M18.1,9.7c0-0.1-0.3-0.1-0.3-0.1c-0.1,0.2-0.2,0.4-0.4,0.5c-0.3,0.1-0.5,0.2-0.7,0.3c-0.3,0-0.6,0.1-0.9,0.2
		c-0.2,0-0.3,0-0.5,0c-0.5,0-1.1,0-1.7-0.1c-0.4-0.3-0.9-0.7-1.4-0.7c0.1-0.3,0.2-0.6,0.4-0.8c0.2-0.3,0.5-0.6,0.8-0.8
		c0.3-0.2,0.7-0.4,1.1-0.4c0.3-0.1,0.7,0,1-0.1c0.1,0,0.3-0.2,0.1-0.2c-0.7-0.4-1.8,0.1-2.5,0.4c-0.5,0.3-1.8,1.5-1.1,2
		c0,0,0.1,0,0.1,0c0,0,0,0,0-0.1c0.3,0.2,0.5,0.3,0.8,0.5c0,0,0,0,0,0c-0.1,0-0.1,0.1,0,0.1c0.1,0,0.2,0,0.3,0.1
		c0.1,0,0.1,0.1,0.2,0.1c-0.1,0-0.1,0-0.2-0.1c0,0-0.1,0-0.1,0c0,0.1,0.1,0.1,0.2,0.2c0,0,0,0,0,0.1c0.2,0.1,0.5,0.2,0.7,0.3
		c0.1,0.1,0.2,0.1,0.4,0.2c0.4,0.1,0.9,0.1,1.4,0.1c0.5,0,1.1,0,1.7-0.1c0.1,0,0.2-0.1,0.1-0.2c0.2-0.1,0.4-0.1,0.5-0.3
		c0.1-0.1,0-0.1-0.1-0.2c0,0,0.1-0.1,0.1-0.1c0,0,0-0.1,0-0.1c0,0,0,0,0,0c0.1-0.1,0.1-0.2,0.1-0.2c0-0.1,0-0.1,0-0.2
		C18.1,10,18.1,9.9,18.1,9.7z"/>
	<path class="st9" d="M12.9,12.5c-0.4,0-0.8,0.1-1.2,0.2c-0.5,0.1-0.9,0.1-1.4,0.1c-0.5,0-0.9,0-1.4-0.1c-0.3,0-0.7-0.1-1.1-0.1
		c-0.1-0.6,0.3-1.2,0.7-1.7c0.5-0.5,1.3-0.6,2-0.6c0.2,0,0.4-0.2,0.1-0.3c-0.7-0.2-1.9,0-2.5,0.5c-0.6,0.5-1.2,1.4-0.7,2.2
		c0,0.1,0.2,0.1,0.2,0.1C8,13,8.4,13.1,8.7,13.1c0.5,0.1,1,0.2,1.5,0.2c0.5,0,1,0,1.5-0.1c0.5-0.1,1-0.1,1.4-0.4
		C13.4,12.7,13.1,12.5,12.9,12.5z"/>
	<path class="st10" d="M7,9.5c-0.4,0-0.9,0.1-1.3,0.1c-0.4,0-0.8,0-1.2,0C3.9,9.6,2.6,9.5,2.5,8.8c0,0,0,0,0-0.1
		C2.3,7.9,3.2,7.6,3.7,7.2C3.9,7.1,3.7,7,3.6,7C3.1,7.1,2.7,7.4,2.5,7.7C2.3,8,2.2,8.3,2.2,8.7c0,0.2-0.1,0.3-0.1,0.5
		C2.2,9.6,2.7,9.9,3.4,10c0,0,0,0,0,0c0,0.1,0,0.1,0.1,0.1c0.1,0,0.1,0,0.2,0c0,0,0.1,0,0.1,0c0,0,0,0,0,0c1.3,0.2,3.1,0.1,3.5-0.2
		C7.6,9.7,7.2,9.5,7,9.5z"/>
	<path class="st10" d="M7.3,10.5c-0.9,0-1.7,0.1-2.6,0.1c-0.8,0-1.5-0.1-2.3-0.3c0.1,0.1,0.1,0.2,0,0.3c0,0,0,0,0,0
		c0.5,0.4,1.3,0.4,1.9,0.5c1,0.1,2.2,0.1,3.2-0.1C7.9,10.9,7.5,10.5,7.3,10.5z"/>
	<path class="st2" d="M8.7,9.7c-0.1,0-0.2-0.1-0.3,0c0,0,0,0,0,0c-0.1,0-0.2,0.1-0.2,0.1C8.1,9.8,8,9.8,8,9.8c0,0,0,0,0,0.1
		c0,0,0,0,0,0.1c0,0.1,0.1,0.1,0.2,0.1c0,0,0,0,0.1,0c0,0,0,0,0,0c0.1,0,0.1,0,0.1,0c0,0,0.1-0.1,0.1-0.1c0,0,0,0,0,0
		c0.1,0,0.1,0,0.2,0c0,0,0.1-0.1,0.1-0.1C8.7,9.7,8.7,9.7,8.7,9.7z"/>
	<path class="st2" d="M9,9.2C9,9,8.8,9,8.7,9C8.6,9,8.5,9,8.4,9c0,0-0.1,0.1-0.1,0.1c0,0,0,0.1,0,0.1c0,0,0,0,0,0
		c0,0.1,0.2,0.2,0.3,0.2c0.1,0,0.2,0,0.2-0.1c0,0,0.1-0.1,0.1-0.1C9,9.3,9,9.2,9,9.2z"/>
	<path class="st6" d="M9.1,9.1C9.1,9.1,9.1,9.1,9.1,9.1C9,9.1,8.9,9,8.8,9c-0.4,0-0.4,0.4,0,0.4c0,0,0,0,0,0c0.1,0,0.2,0,0.3-0.1
		c0,0,0.1-0.1,0.1-0.1C9.2,9.2,9.1,9.2,9.1,9.1z"/>
	<path class="st11" d="M9.8,5.3C9.3,5,8.5,5.3,8.1,5.5c-0.3,0.2-1,0.6-1.1,1c-0.3-0.1-0.7-0.2-1-0.3c-0.3-0.1-0.7-0.2-1-0.1
		c0-1,0.9-1.9,1.7-2.3c0.2-0.1-0.1-0.2-0.2-0.2C5.9,3.7,5.3,4.1,5,4.6C4.6,5.1,4.4,5.7,4.6,6.4c0,0,0,0.1,0.1,0.1c0,0,0,0,0,0
		c0,0,0.1,0,0.1,0c0,0,0,0,0,0c0.1,0,0.3,0,0.4,0c0.3,0,0.6,0.1,0.9,0.2C6.5,6.9,7,7,7.4,7c0.1,0,0.2-0.1,0.1-0.2c0,0-0.1,0-0.1-0.1
		c0.4-0.2,0.6-0.6,1-0.8c0.2-0.1,0.5-0.2,0.7-0.3c0.2,0,0.5,0,0.7-0.2C9.9,5.5,10,5.3,9.8,5.3z"/>
	<path class="st12" d="M12.4,8.2c-0.1,0-0.2,0-0.3,0c-0.1,0-0.1,0-0.1,0c-0.5,0-1.1,0.2-1.6,0.2c-0.5,0-1,0-1.5,0
		c-0.3-0.6-1-1.1-0.5-1.7c0.4-0.6,1.4-0.6,2.1-0.7C11,6,10.8,5.6,10.4,5.6C9.6,5.5,8.3,5.8,7.8,6.5c-0.5,0.7,0,1.5,0.6,2
		c0,0,0,0.1,0,0.1c0.1,0,0.1,0.1,0.2,0.1c0,0,0.1,0,0.1,0.1c0,0,0.1,0,0.1,0c0.4,0.1,0.9,0.2,1.4,0.2c0.2,0,0.4,0,0.6,0
		c0.6,0,1.3,0,1.9-0.4C13,8.4,12.6,8.2,12.4,8.2z"/>
	<path class="st13" d="M8.4,8.3C8.3,8,8.1,7.7,7.9,7.5c-0.1,0-0.1-0.1-0.2-0.1c0,0,0,0,0-0.1C7.1,6.9,6.3,6.7,5.6,6.6
		C4.4,6.5,2.7,6.6,2.2,8c0,0.1,0.1,0.2,0.2,0.1C2,8.7,1.9,9.5,2.4,9.9c0,0-0.1,0-0.1,0c0,0,0,0,0,0c0.1,0,0.1,0.1,0.1,0.3
		c0,0.1,0.1,0.2,0.1,0.3c0,0,0,0,0.1,0.1c-0.4,0.3-0.2,1,0.2,1.3C3,12,3.5,12.1,3.9,12.1c0.5,0.1,1,0.1,1.5,0.1c0.5,0,0.9,0,1.4-0.1
		c0.3,0,0.6-0.1,0.8-0.2c0,0,0,0,0,0c0-0.1,0-0.2,0.1-0.2c-0.2,0.1-0.4,0.1-0.5,0.2c-0.6,0.2-1.3,0.2-1.9,0.2
		c-0.6,0-1.3-0.1-1.9-0.2c-0.3-0.1-0.7-0.2-0.9-0.5c-0.2-0.3-0.2-0.6,0-0.9c0.2,0.2,0.5,0.2,0.7,0.2c0.9,0.1,1.8,0.1,2.7,0.1
		c0.5,0,1.3,0.1,1.8-0.2c0,0,0,0.1,0,0.1c0.1,0,0.2,0.1,0.2,0.2c0-0.1,0.1-0.1,0.1-0.2c-0.1-0.1-0.2-0.2-0.3-0.1c0,0,0,0,0,0
		c0,0,0,0,0.1,0C8,10.4,8.1,10.1,8,9.9c0,0,0,0,0.1-0.1C8.5,9.4,8.6,8.8,8.4,8.3z M7.6,10.5c-0.2,0.1-0.4,0.2-0.6,0.2
		c-0.5,0-1,0-1.5,0c-0.5,0-1.1,0-1.6,0c-0.1,0-0.3,0-0.5,0c-0.1,0-0.1,0-0.2,0c0,0-0.1,0-0.1,0c0,0-0.1,0-0.1,0c0,0,0,0,0,0
		c0,0-0.1,0-0.1,0c-0.1,0-0.2-0.1-0.3-0.1c0,0,0,0,0,0c-0.2-0.1-0.3-0.3-0.2-0.5c0,0,0.1,0.1,0.1,0.1c0.5,0.3,1.3,0.3,1.8,0.3
		c0.7,0,1.5,0,2.2-0.1c0.4,0,0.9,0,1.2-0.2C7.9,10.2,7.7,10.4,7.6,10.5z M7.9,9.6C7.9,9.7,7.9,9.7,7.9,9.6C7.7,9.9,7.5,10,7.3,9.9
		C7.2,9.9,7,10,6.9,10c-1.1,0.1-2.3,0.2-3.4,0c-0.3,0-0.6-0.1-0.9-0.2C2.3,9.6,2.2,9.3,2.3,9C2.3,8.4,2.6,7.9,3,7.5c0,0,0-0.1,0,0
		C2.8,7.6,2.6,7.8,2.5,8c0.4-0.8,1.1-1.1,1.9-1.2c0.1,0,0.2,0,0.3-0.1c0.2,0,0.4,0,0.6,0C6,6.8,6.9,7,7.5,7.5C7.7,7.6,7.9,7.8,8,8
		c0,0,0,0,0,0.1c0.2,0.1,0.2,0.3,0.2,0.5c0,0.1,0,0.3-0.1,0.4c0,0.1,0,0.2-0.1,0.2C8.1,9.4,8,9.5,7.9,9.6z"/>
	<path class="st13" d="M6.8,3.7c1-0.2,2.2-0.3,3,0.3c0.4,0.3,0.7,0.8,0.7,1.3c0,0.1,0,0.2-0.1,0.3c0.1,0,0.2,0,0.2,0
		c0.1-0.4,0-0.9-0.2-1.3c-0.7-1-2-1.2-3.1-1c-1.2,0.2-2.8,0.7-3,2.2c0,0.1,0.1,0.1,0.2,0.1C4.4,6,4.4,6.5,4.5,6.8c0.1,0,0.1,0,0.2,0
		c0,0,0,0,0,0c0-0.1-0.1-0.2-0.1-0.3C4.5,5.9,4.7,5.3,5,4.8c0,0,0-0.1,0,0C4.8,5,4.7,5.2,4.6,5.5C4.8,4.5,5.8,3.9,6.8,3.7z"/>
	<path class="st13" d="M7.8,6.9C7.8,6.9,7.8,6.9,7.8,6.9C7.4,6.9,7.1,7,6.7,7.1c0.1,0,0.2,0.1,0.3,0.1c0.2,0,0.4-0.1,0.6-0.1
		c0,0,0,0,0,0C7.7,7,7.7,6.9,7.8,6.9z"/>
	<path class="st13" d="M8.7,8.8c-0.1,0-0.1-0.1-0.2-0.1c-0.1,0-0.2,0-0.3,0.1c0,0.1,0,0.1,0,0.2c0,0,0.1,0,0.1,0
		c0.1,0,0.3-0.1,0.4-0.1C8.8,8.8,8.7,8.8,8.7,8.8z"/>
	<path class="st13" d="M7.8,7.5c-0.1,0-0.2,0-0.3,0.1c0.1,0.1,0.1,0.1,0.2,0.2c0.1,0,0.2,0,0.3-0.1C7.9,7.6,7.9,7.5,7.8,7.5z"/>
	<path class="st13" d="M7.6,7.6c0-0.1,0-0.2,0.1-0.2c0-0.1,0-0.2,0-0.2c0-0.1,0-0.1,0.1-0.2c0,0,0,0,0,0c0,0,0,0,0,0c0,0,0,0,0,0
		c0-0.2,0.2-0.4,0.4-0.6c0.5-0.5,1.3-0.7,2.1-0.6c1,0,2.2,0.2,2.9,1c0.3,0.4,0.5,1,0.3,1.4c0,0,0,0,0,0c0.1,0,0.1,0,0.2-0.1
		c0,0,0.1,0,0.1,0c0.1-0.3,0-0.6-0.1-0.9C13.3,6,12,5.5,10.9,5.4C9.7,5.3,8,5.5,7.5,6.9C7.5,6.9,7.6,7,7.7,7
		C7.6,7.1,7.5,7.3,7.5,7.5C7.5,7.5,7.6,7.5,7.6,7.6z"/>
	<path class="st13" d="M8.8,8.8c-0.2,0-0.3,0-0.5-0.1c0,0.1,0,0.1,0,0.2c0.5,0.1,1,0.1,1.4,0.1c0.7,0,1.5,0,2.2-0.1
		c0.2,0,0.4,0,0.6,0c0-0.1,0.1-0.2,0.1-0.3c-0.1,0-0.3,0-0.4,0.1C11.1,8.9,9.9,9,8.8,8.8z"/>
	<path class="st13" d="M12.1,9.6c0,0,0-0.1,0-0.1c-0.4,0-0.9,0-1.3,0c-0.5,0-1.1,0-1.6,0c-0.3,0-0.7,0-1.1-0.1c0,0,0,0.1-0.1,0.1
		c0.2,0.1,0.3,0.1,0.5,0.1c0.9,0.1,1.8,0.1,2.7,0.1c0.3,0,0.6,0,0.9,0C12.1,9.7,12.1,9.6,12.1,9.6z"/>
	<path class="st13" d="M8,10.6c0.1,0,0.1,0.1,0.2,0.1c0,0,0.1-0.1,0.1-0.1c-0.2-0.1-0.4-0.2-0.5-0.4C7.7,10.1,7.7,10,7.7,9.9
		c0,0,0,0-0.1,0C7.6,10.2,7.8,10.4,8,10.6z"/>
	<path class="st13" d="M13,10.8c0.1,0,0.1-0.1,0.2-0.1c0,0-0.1-0.1-0.1-0.1c-0.1,0.1-0.2,0.1-0.3,0.1C12.9,10.7,12.9,10.7,13,10.8z"
		/>
	<path class="st13" d="M17.5,11.8C17.5,11.8,17.5,11.8,17.5,11.8C17.5,11.8,17.5,11.8,17.5,11.8c0.2-0.2,0.3-0.5,0.3-0.7
		c0,0,0,0,0.1-0.1c0.4-0.4,0.5-1,0.3-1.5c-0.4-1.1-1.6-1.6-2.8-1.7c-1.2-0.1-2.9,0-3.4,1.4c0,0.1,0.1,0.2,0.2,0.1
		c-0.1,0.2-0.3,0.5-0.3,0.8c0.1,0,0.1,0,0.2,0.1c0-0.2,0.1-0.4,0.1-0.5c0,0,0,0,0,0c0-0.1,0-0.2,0.1-0.3c0-0.1,0.1-0.2,0.2-0.2
		c0-0.1,0.1-0.1,0.2-0.2c0-0.1,0.1-0.2,0.2-0.3c-0.2,0.1-0.4,0.4-0.5,0.6c0.2-0.5,0.6-0.8,1-1c0.2-0.1,0.3-0.1,0.5-0.2
		c0.1,0,0.1,0,0.1,0C14.1,8,14.4,8,14.7,8c0.8,0,1.6,0.1,2.3,0.5c0.2,0.1,0.4,0.3,0.5,0.4c0,0,0,0,0,0c0.3,0.4,0.5,1,0.3,1.4
		c-0.1,0.2-0.2,0.3-0.3,0.4c0,0-0.1,0-0.1,0c0,0-0.1,0.1-0.2,0.1c0,0,0,0,0,0c0,0,0,0,0,0c-0.2,0.1-0.5,0.2-0.8,0.2
		c-1.1,0.1-2.1,0.2-3.2,0.1c0.1,0.1,0.1,0.1,0.1,0.2c0.2,0,0.4,0,0.5,0c0.7,0,1.5,0,2.2-0.1c0.4,0,0.9,0,1.2-0.2
		c0,0.2-0.1,0.4-0.2,0.5c-0.2,0.1-0.4,0.2-0.6,0.2c-0.5,0-1,0-1.5,0c-0.5,0-1,0-1.5,0c0,0.1,0,0.1,0,0.2c0.6,0,1.3,0,1.9,0
		C16.2,12.1,16.9,12.2,17.5,11.8c-0.1,0.1-0.1,0.1,0,0.2c0.3,0.1,0.4,0.4,0.2,0.7c-0.2,0.3-0.5,0.4-0.8,0.4
		c-0.6,0.2-1.3,0.2-1.9,0.2c-0.6,0-1.3-0.1-1.9-0.2c-0.1,0-0.2-0.1-0.3-0.1c-0.1,0-0.2,0-0.3,0c0,0,0,0,0,0c0,0,0,0,0,0
		c0.4,0.2,0.8,0.3,1.2,0.4c0.5,0.1,1,0.1,1.5,0.1c0.5,0,0.9,0,1.4-0.1c0.4-0.1,0.8-0.2,1.2-0.4c0.2-0.2,0.4-0.4,0.3-0.7
		C17.9,12,17.7,11.8,17.5,11.8z"/>
	<path class="st13" d="M13.1,13.7C13,13.7,13,13.7,13.1,13.7C13.1,13.7,13.1,13.7,13.1,13.7c0.2-0.2,0.3-0.5,0.3-0.7
		c0,0,0,0,0.1-0.1c0.4-0.4,0.5-1,0.3-1.5c-0.1-0.3-0.2-0.5-0.4-0.7c-0.1-0.1-0.1-0.1-0.1-0.2c-0.6-0.5-1.4-0.8-2.2-0.8
		c-1.2-0.1-2.9,0-3.4,1.4c0,0.1,0.1,0.2,0.2,0.1c-0.4,0.6-0.5,1.3,0,1.8c0,0-0.1,0-0.1,0c0,0,0,0,0,0c0.1,0,0.1,0.1,0.1,0.3
		c0,0.1,0.1,0.2,0.1,0.3c0,0,0,0,0.1,0.1c-0.4,0.3-0.2,1,0.2,1.3c0.4,0.2,0.8,0.3,1.2,0.4c0.5,0.1,1,0.1,1.5,0.1
		c0.5,0,0.9,0,1.4-0.1c0.4-0.1,0.8-0.2,1.2-0.4c0.2-0.2,0.4-0.4,0.3-0.7C13.5,14,13.3,13.7,13.1,13.7z M7.6,12.1
		c0-0.4,0.2-0.7,0.4-1c0.1-0.2,0.2-0.4,0.4-0.5c0,0,0,0,0,0c-0.2,0.1-0.4,0.4-0.5,0.6c0.5-1,1.5-1.3,2.5-1.2c0.4,0,0.9,0,1.3,0.1
		c0.2,0,0.5,0.1,0.7,0.2c0.3,0.1,0.5,0.3,0.8,0.5c0.6,0.6,1,1.3,0.3,1.9c0,0,0,0-0.1,0c0,0-0.1,0.1-0.1,0.1
		c-0.1,0.1-0.1,0.1-0.2,0.1c-0.2,0.1-0.5,0.1-0.8,0.2c-1.1,0.1-2.3,0.2-3.4,0c-0.3,0-0.6-0.1-0.9-0.2C7.6,12.7,7.5,12.4,7.6,12.1z
		 M7.7,13c0,0,0.1,0.1,0.1,0.1c0.5,0.3,1.3,0.3,1.8,0.3c0.7,0,1.5,0,2.2-0.1c0.4,0,0.9,0,1.2-0.2c0,0.2-0.1,0.4-0.2,0.5
		c-0.2,0.1-0.4,0.2-0.6,0.2c-0.5,0-1,0-1.5,0c-0.5,0-1.1,0-1.6,0c-0.3,0-0.9,0-1.3-0.2c0,0,0,0,0,0C7.7,13.4,7.7,13.3,7.7,13z
		 M13.3,14.6c-0.2,0.3-0.5,0.4-0.8,0.4c-0.6,0.2-1.3,0.2-1.9,0.2c-0.6,0-1.3-0.1-1.9-0.2c-0.3-0.1-0.7-0.2-0.9-0.5
		c-0.2-0.3-0.2-0.6,0-0.9c0.2,0.2,0.5,0.2,0.7,0.2C9.4,14,10.3,14,11.2,14c0.5,0,1.3,0.1,1.8-0.2c0,0,0,0.1,0,0.1
		C13.3,14,13.4,14.3,13.3,14.6z"/>
	<path class="st13" d="M18.8,8.9C18.9,8.9,18.9,8.8,18.8,8.9c0.3-0.2,0.4-0.5,0.4-0.7c0-0.2-0.2-0.5-0.5-0.5c0,0,0,0,0,0
		c0,0,0,0,0.1,0C19,7.5,19.1,7.2,19,6.9c0,0,0,0,0.1-0.1c0.4-0.4,0.5-1,0.3-1.5c-0.4-1.1-1.6-1.6-2.8-1.7c-1.2-0.1-2.9,0-3.4,1.4
		c0,0.1,0.1,0.2,0.2,0.1c-0.4,0.6-0.5,1.3,0,1.8c0,0-0.1,0-0.1,0c0,0,0,0,0,0c0.1,0,0.1,0.1,0.1,0.3c0,0.1,0.1,0.2,0.1,0.3
		c0,0,0,0,0.1,0.1c-0.2,0.2-0.3,0.4-0.2,0.7c0,0,0.1,0,0.1,0c-0.1-0.2,0-0.4,0.2-0.6c0.2,0.2,0.5,0.2,0.7,0.2
		c0.9,0.1,1.8,0.1,2.7,0.1c0.5,0,1.3,0.1,1.8-0.2c0,0,0,0.1,0,0.1C19,7.9,19.1,8.2,19,8.5c-0.2,0.3-0.5,0.4-0.8,0.4
		C17.9,9,17.8,9,17.6,9c0,0.1,0.1,0.1,0.1,0.2c0,0,0.1,0,0.1,0c0.3,0,0.6-0.1,0.8-0.2c0,0,0,0,0,0c1.3,1.6,1,3.9-0.2,5.4
		c-1.2,1.6-3.2,2.6-5.2,3.1C11.2,18.1,9,18,6.9,17.5c-1.9-0.5-4-1.6-5.2-3.2c-0.6-0.8-1-1.9-0.9-2.9c0.1-1,0.6-2,1.4-2.5
		c0,0,0-0.1,0-0.1C0.7,9.6,0.3,11.8,1,13.4c0.7,1.6,2.2,2.8,3.8,3.5c0.5,1.2,2.2,1.3,3.4,1.5c0.9,0.1,1.8,0.2,2.7,0.2
		c0.8,0,1.6,0,2.4-0.2c0.7-0.2,1.4-0.6,1.9-1.1c1.2-0.5,2.3-1.2,3.2-2.2C19.8,13.4,20.3,10.7,18.8,8.9z M13.2,6
		c0.1-0.6,0.4-1.1,0.8-1.5c0,0,0-0.1,0,0c-0.2,0.1-0.4,0.4-0.5,0.6c0.5-1,1.5-1.3,2.5-1.2c1,0,2.2,0.2,2.9,1c0.3,0.4,0.5,1,0.3,1.4
		c-0.1,0.2-0.2,0.3-0.3,0.4c-0.1,0-0.1-0.1-0.2-0.1c-0.1,0-0.1,0.1,0,0.2c0,0,0,0,0,0C18.4,7,18.2,7,17.9,7c-1.1,0.1-2.3,0.2-3.4,0
		c-0.3,0-0.6-0.1-0.9-0.2C13.3,6.7,13.2,6.3,13.2,6z M18.6,7.5c-0.2,0.1-0.4,0.2-0.6,0.2c-0.5,0-1,0-1.5,0c-0.5,0-1.1,0-1.6,0
		c-0.3,0-0.9,0-1.3-0.2c0,0,0,0,0,0c-0.2-0.1-0.3-0.3-0.2-0.5c0,0,0.1,0.1,0.1,0.1c0.5,0.3,1.3,0.3,1.8,0.3c0.7,0,1.5,0,2.2-0.1
		c0.4,0,0.9,0,1.2-0.2C18.9,7.2,18.7,7.4,18.6,7.5z M9.9,18.3c-1-0.1-1.9-0.1-2.9-0.2C6.2,18,5.4,17.7,4.9,17
		c0.3,0.1,0.6,0.3,0.9,0.4c2.1,0.8,4.5,1,6.8,0.6c0.7-0.1,1.3-0.3,2-0.5C13.3,18.5,11.5,18.4,9.9,18.3z"/>
	<path class="st13" d="M8.5,16.7c-1.6-0.5-3.3-1-4.5-2.2c-0.7-0.7-1.2-1.8-1.2-2.8c0,0,0,0,0,0c0,0,0,0-0.1,0c-0.1,1,0.4,2,1,2.7
		c1.2,1.4,3,2,4.7,2.5C8.6,16.9,8.6,16.8,8.5,16.7z"/>
	<path class="st14" d="M8.1,8c-0.7-0.9-2-1.3-3-1.5C5,6.5,4.9,6.6,5,6.6C5.6,7,6.3,7.4,6.9,7.9c0.4,0.4,1,1.6,0.1,1.8
		C6.7,9.8,6.5,10,6.7,10.2c0.1,0.1,0.2,0.1,0.3,0.2c0.1,0.1,0.1,0.3,0.1,0.4c0,0.1,0,0.6-0.1,0.6c-0.2,0.1-0.5,0.2-0.4,0.4
		c0.1,0.2,0.5,0.2,0.8,0.2c0.5-0.2,0.8-0.7,0.6-1.2c-0.1-0.2-0.2-0.4-0.3-0.5C8.6,9.9,8.7,8.8,8.1,8z"/>
	<path class="st14" d="M13.8,12.4c0.1-0.5-0.1-1.1-0.5-1.5c-0.4-0.4-0.9-0.7-1.5-0.9c0.2,0,0.4-0.1,0.5-0.4c0.1-0.3,0-0.7,0.2-1
		c0.2-0.5,1.2-0.4,1.2-1.1c0-0.6-0.5-1.2-1-1.5c-0.7-0.4-1.5-0.4-2.3-0.4c-0.2,0-0.3,0.2-0.1,0.3c0.6,0.1,1.3,0.2,1.7,0.6
		c0.2,0.2,0.4,0.4,0.5,0.6c0,0.1,0.1,0.3,0.1,0.4c0,0.1-0.3,0.1-0.3,0.1c-0.4,0.2-0.8,0.4-0.9,0.9c-0.1,0.2,0,0.5-0.1,0.7
		c-0.1,0.2-0.2,0.3-0.1,0.5c0,0,0,0,0,0c-0.3,0-0.7-0.1-1,0c0,0-0.1,0,0,0.1c0.5,0.4,1.2,0.5,1.7,0.8c0.3,0.2,0.6,0.5,0.7,0.8
		c0.1,0.2,0.1,0.4,0.1,0.6c0,0.1-0.1,0.4-0.3,0.4c-0.4,0-0.8,0.4-0.3,0.6c0.1,0,0.1,0.1,0,0.2c-0.2,0.1-0.2,0.3,0,0.5
		c0.2,0.1,0.4,0.4,0.3,0.5c-0.1,0-0.2,0.1-0.3,0.1c-0.2,0-0.3,0-0.4,0.2c0,0,0,0.1,0,0.1c-0.1,0-0.2,0.1-0.2,0.2
		c-0.2,0.1-0.4,0.2-0.5,0.3c0,0,0,0,0,0c0,0,0,0,0,0c0,0,0,0,0,0c0,0,0,0,0,0c0.1,0,0.1,0,0.2,0c0.1,0,0.1,0,0.2,0
		c0.3,0,0.5,0,0.8-0.1c0.5,0.1,1.1-0.1,1.4-0.4c0.4-0.4,0.1-0.8-0.2-1.2c0.1-0.2,0.1-0.4,0-0.6C13.5,12.9,13.7,12.7,13.8,12.4z"/>
	<path class="st14" d="M19.2,8.5c-0.1-0.2-0.1-0.4-0.2-0.7c-0.1-0.1-0.1-0.1-0.2-0.2c0-0.2,0-0.3-0.1-0.5c0.1,0,0.2-0.1,0.2-0.1
		C19,7,19,6.8,19.2,6.7c0,0,0,0,0,0c0-0.2,0.1-0.3,0.2-0.5c0,0,0-0.1,0.1-0.1c0-0.1,0-0.2,0-0.3c0-0.1-0.1-0.2-0.1-0.3
		c0,0,0.1-0.1,0.1-0.1c0,0,0-0.1,0-0.1c-0.2-0.3-0.6-0.6-0.8-1c-0.2-0.1-0.3-0.1-0.5-0.2c-0.5-0.2-1-0.3-1.4-0.3
		c-0.6-0.2-1.2-0.3-1.7-0.1C15,3.9,14.9,3.9,15,4c0.3,0.3,0.8,0.3,1.2,0.4c0.5,0.1,0.9,0.3,1.3,0.6c0.4,0.2,0.7,0.6,0.8,1
		c0.1,0.3,0,0.4-0.3,0.6c-0.2,0.1-0.5,0.2-0.7,0.3c-0.5,0.2-0.1,0.6,0.2,0.6c0.2,0,0.1,0.1,0,0.2c-0.2,0.2-0.2,0.4,0,0.5
		c0.1,0.1,0.3,0.1,0.4,0.1c0,0,0,0,0,0c-0.1,0-0.2,0-0.3,0c-0.2,0-0.4,0-0.6,0.2c-0.2-0.1-0.3-0.2-0.5-0.3c0,0,0-0.1,0-0.1
		c-0.4-0.3-1.2-0.4-1.7-0.1c0,0,0,0,0,0c0.1,0,0.1,0,0.2,0.1c0,0,0,0.1,0,0.1c0.8,0.1,1.5,0.5,2,1.2c0.3,0.5,0.3,1.2-0.2,1.5
		c-0.1,0-0.2,0.1-0.3,0.1c-0.1,0.1-0.1,0.2,0.1,0.3c0,0.1-0.2,0.2-0.2,0.2c-0.2,0.1-0.2,0.3,0,0.4c0.1,0.1,0.3,0.1,0.4,0.1
		c0,0,0,0.1,0.1,0.1c0,0.1,0,0.2,0,0.3c0,0.2,0,0.2-0.2,0.2c-0.3,0.1-0.7,0.1-0.9,0.3c-0.1,0.1-0.1,0.2,0.1,0.3
		c0.4,0.2,0.9,0.1,1.4,0c0.4-0.1,0.7-0.2,0.8-0.6c0.1-0.5-0.1-0.8-0.4-1c0.1-0.2,0.1-0.3-0.1-0.5c0,0,0,0,0,0c0.2,0,0.4-0.1,0.4-0.1
		c0.2-0.1,0.4-0.3,0.4-0.5c0.2-0.5-0.1-0.9-0.4-1.3C18.4,9.3,19.1,9.1,19.2,8.5z"/>
	<path class="st14" d="M9.3,3.7C8.8,3.5,8.3,3.4,7.9,3.3c-0.4-0.1-1-0.1-1.2,0.3c0,0.1,0,0.1,0,0.2C6.9,4,7.2,4,7.5,4
		c0.4,0.1,0.8,0.1,1.1,0.2c0.8,0.1,1,0.7,1.4,1.3c0.1,0.2,0.7,0.3,0.7-0.1C10.8,4.6,10,3.9,9.3,3.7z"/>
</g>
</svg>
