<?xml version="1.0" encoding="utf-8"?>
<!-- Generator: Adobe Illustrator 22.0.0, SVG Export Plug-In . SVG Version: 6.00 Build 0)  -->
<svg version="1.1" id="Layer_1" xmlns="http://www.w3.org/2000/svg" xmlns:xlink="http://www.w3.org/1999/xlink" x="0px" y="0px"
	 viewBox="0 0 25 13" style="enable-background:new 0 0 25 13;" xml:space="preserve">
<style type="text/css">
	.st0{fill:#E78700;}
	.st1{fill:#FFEDE7;}
	.st2{opacity:0.15;fill:#531C07;}
	.st3{opacity:5.000000e-02;fill:#FFFFFF;}
	.st4{fill:#BF7200;}
	.st5{fill:#FADABE;}
	.st6{fill:#232020;}
</style>
<g>
	<path class="st0" d="M21.7,5.3C21.8,5.3,21.8,5.3,21.7,5.3c0.2-0.1,0.4-0.2,0.6-0.2c0,0,0.1-0.1,0.1-0.1
		C22.2,5.1,21.9,5.2,21.7,5.3z"/>
	<path class="st0" d="M23.1,4c0-0.2,0-0.5,0-0.7c0,0,0,0,0-0.1c-0.2-0.2-0.3-0.5-0.4-0.8c-0.1-0.1-0.1-0.1-0.2-0.2
		c-0.3-0.2-0.7-0.4-1.1-0.6c-0.6-0.1-1.2-0.3-1.8-0.5c-0.4-0.1-0.9-0.1-1.3-0.2c-1.9-0.2-3.9-0.1-5.8,0.2c-1,0.2-2.3,0.4-3.1,0.9
		C9.2,2.2,9,2.3,8.8,2.3C8.6,2.4,8.5,2.5,8.3,2.6c0,0,0,0,0,0C8.1,2.7,7.9,2.8,7.7,2.9C6.1,3.8,5.8,5,6.2,6.2c0,0.1,0,0.3,0.1,0.4
		c0,0.1,0.1,0.1,0.1,0.2c0,0,0,0.1,0,0.1c0,0.1,0,0.1,0,0.2C5.6,7.4,4.8,7.7,3.9,7.9c-0.5,0.2-1,0.4-1.6,0.6C1.9,8.7,1.5,8.8,1.2,9
		C1,9.2,0.9,9.4,1.1,9.6C0.8,9.7,0.6,9.9,0.9,10c1,0.7,2.6,0.9,4.2,1c0.6,0.1,1.3,0.3,1.9,0.4c0.7,0.1,1.4,0.3,2.1,0.3
		c0.1,0,0.3,0,0.4,0c0,0,0,0,0,0c0.5,0,1.1,0,1.3-0.1c0.8-0.5,1.5-1,2.3-1.5c0.2-0.1,0.2-0.2,0.1-0.3c0.8-0.5,1.8-1,2.7-1.5
		c0.1-0.1,0.2-0.1,0.3-0.2c0,0,0.1,0,0.1,0c0,0,0,0,0,0c0.2-0.1,0.4-0.3,0.6-0.4c0.2,0,0.3-0.1,0.5-0.1c1.1-0.7,2.2-1.3,3.3-2
		c0.1,0,0.2-0.1,0.3-0.1c0.1-0.1,0.3-0.1,0.4-0.2c0.3,0,0.5-0.1,0.6-0.2c0.3-0.2,0.5-0.3,0.8-0.5c0.2-0.1,0.2-0.2,0.1-0.3
		c0,0,0,0,0,0c0,0,0-0.1,0-0.1C22.9,4.1,23,4.1,23.1,4z"/>
	<path class="st1" d="M16.4,5c-0.1-0.1-0.1-0.2-0.2-0.4c0-0.1,0-0.3-0.1-0.4c0-0.1-0.2-0.2-0.4-0.3c-0.6-0.7-1.5-1.2-2.9-1.5
		c-1-0.2-2.3-0.2-3.3,0c-0.1,0-0.2,0.1-0.3,0.1C8.7,2.7,8.2,2.8,7.7,3C7.2,3.2,6.9,3.5,6.6,3.8C6.5,3.9,6.4,3.9,6.4,4
		c0,0.2,0.3,0.3,0.6,0.3c0.4,0.1,0.9,0.1,1.2,0c0.2,0.1,0.5,0.1,0.7,0.1c1.5,0.1,2.9,0.2,4.3,0.5c0.2,0,0.5,0,0.8,0
		c0,0.2,0.1,0.5,0.1,0.7c0,0,0-0.1-0.1-0.1c-0.2-0.4-0.9-0.6-1.6-0.7c-0.6-0.1-1.3-0.1-1.9-0.1c-0.3-0.1-0.7-0.2-1-0.2
		c-0.5-0.1-1-0.1-1.5-0.1c-1,0-1.6,0.3-1.7,0.8c-0.1,0.5,0,1,0.1,1.5C6.6,7,6.6,7.3,6.9,7.6c-0.4,0-0.9,0-1.1,0.1
		C5.6,7.7,5.5,7.8,5.4,7.8c-0.4,0-0.9,0.1-1,0.3C4.3,8.2,4.2,8.4,4.1,8.5c-0.1,0-0.3,0-0.4,0.1C3.1,8.8,2.4,9,2,9.3
		C1.6,9.7,2.2,10,2.9,10c0.3,0,0.6,0.1,1,0.1c0.2,0.1,0.6,0.3,0.9,0.3c1,0.2,2.2,0.3,3.2,0.4c0.2,0,0.5,0.1,0.8,0.1
		c0.3,0,0.5,0,0.7,0c0.1,0,0.2,0,0.3,0c1.2-0.1,2-0.5,2.7-1c0.1,0,0.2,0,0.3-0.1c0.5-0.1,0.7-0.3,0.7-0.5c0.4-0.1,0.7-0.3,0.8-0.5
		c0.1-0.1,0-0.3-0.2-0.3c0,0,0.1-0.1,0.1-0.1c0,0,0,0,0,0c0.2-0.1,0.3-0.1,0.3-0.3c0,0,0-0.1,0-0.1c0.7,0.1,1.8,0,1.8-0.3
		c0-0.8,0-1.6-0.1-2.4C16.4,5.2,16.4,5.1,16.4,5z"/>
	<path class="st2" d="M23.1,4.2c0-0.3,0-0.6,0-0.9c0,0,0,0,0-0.1c-0.2-0.3-0.4-0.6-0.5-1c-0.3-0.2-0.6-0.3-0.8-0.5
		c-0.1,0-0.1,0-0.2,0c-1.1-0.2-2-0.6-3.1-0.7c-0.7-0.1-1.5-0.1-2.2-0.2c-1.4,0.1-2.7,0.2-4,0.5c-2.7,0.6-5.1,1.6-6,3.1
		C6.1,4.9,8.3,5,8.5,4.6C9.2,3.4,11,2.5,13.1,2c1.2-0.3,2.6-0.4,3.9-0.5c1.1-0.1,2.4-0.1,3.3,0.2c0.3,0.1,0.9,0.1,1.3,0.1
		C22.1,2.9,21.8,4,20.9,5c-0.6,0.6-1.5,1.1-2.6,1.5c-1.2,0.5-2.4,1-3.7,1.4c-0.4,0.1-0.4,0.4,0,0.5c0.2,0.1,0.6,0.1,0.9,0.1
		c0.2-0.2,0.4-0.3,0.6-0.5c0,0,0.1-0.1,0.2-0.1c0.1-0.1,0.3-0.1,0.4-0.2c0.1,0,0.2-0.1,0.3-0.1c0,0,0,0,0,0c0.2-0.1,0.5-0.2,0.7-0.3
		c0.6-0.5,1.3-0.8,2.1-1.2c0.1,0,0.2-0.1,0.3-0.1c0.7-0.4,1.4-0.7,2.1-1.1c0.2-0.2,0.4-0.3,0.5-0.5C22.9,4.5,23,4.4,23.1,4.2
		C23.1,4.2,23.1,4.2,23.1,4.2z"/>
	<path class="st3" d="M20,1.8c-0.2,1-0.4,2.1-1.4,3.1c-0.9,0.9-2.4,1.6-3.6,2.3c-0.7,0.5,1.4,0.7,1.9,0.4C18.3,6.7,19.8,6,20.8,5
		c1-1,1.3-2.1,1.5-3.2C22.4,1.3,20.1,1.3,20,1.8z"/>
	<path class="st4" d="M15.5,8.7c0.2-0.2,0.4-0.3,0.7-0.5c0,0,0.1-0.1,0.2-0.1C16.4,8,16.6,8,16.7,7.9c0.2-0.1,0.3-0.1,0.5-0.1
		c0.3-0.7,0.5-1.4,0.5-2.2c0-0.8-0.1-1.7-0.8-2.4c-0.7-0.8-2.1-1.1-3.6-1.4c-1-0.2-2.2-0.3-3.2-0.2c0,0,0,0-0.1,0
		c0,0.1,0,0.2-0.2,0.2C9.5,2.1,9.1,2.3,8.7,2.5c0.2,0.1,0.5,0.2,0.7,0.2c0.5,0,1.1,0,1.4-0.2c0.2-0.2,0.5-0.1,0.8-0.1
		c0.6,0.1,1.2,0.2,1.7,0.4c1.1,0.3,1.6,0.8,1.8,1.4c0.6,1.4,0.4,2.8-0.4,4.1C14.6,8.5,15,8.6,15.5,8.7C15.5,8.7,15.5,8.7,15.5,8.7z"
		/>
	<path class="st4" d="M15.5,8.4c0.2-0.2,0.4-0.3,0.7-0.5c0.1,0,0.2-0.1,0.3-0.1c0-0.5-0.1-0.9-0.3-1.4c-0.2-0.5-0.6-1.2-1.5-1.5
		c-0.9-0.3-2.2-0.4-3.3-0.6C10.1,4.2,8.9,4.1,7.6,4C7.2,4,6.4,4,6.2,4.3C6,4.5,6.6,4.7,7,4.7c1.1,0.1,2.1,0.1,3.1,0.2
		c0.5,0.1,1,0.1,1.5,0.2c0.4,0.1,0.9,0.1,1.3,0.2c0.3,0.1,0.5,0.4,0.6,0.6c0.2,0.2,0.3,0.5,0.4,0.8c0.2,0.5,0.3,1,0.2,1.6
		c0,0.3,0.6,0.4,1.2,0.4C15.4,8.5,15.4,8.5,15.5,8.4z"/>
	<path class="st5" d="M12.7,5.7c-0.5,0-0.5,0.3,0,0.3C13.2,6,13.2,5.7,12.7,5.7z"/>
	<path class="st5" d="M12.6,6.2h-0.1c-0.1,0-0.2,0-0.3,0c-0.1,0-0.1,0.1-0.1,0.1c0,0.1,0.3,0.1,0.4,0.1h0.1c0.1,0,0.2,0,0.3,0
		c0.1,0,0.1-0.1,0.1-0.1C13,6.3,12.7,6.2,12.6,6.2z"/>
	<path class="st5" d="M11.1,6.2c-0.5,0-0.5,0.3,0,0.3C11.7,6.4,11.7,6.2,11.1,6.2z"/>
	<path class="st5" d="M12.8,6.9c-0.5,0-0.5,0.3,0,0.3C13.3,7.1,13.3,6.9,12.8,6.9z"/>
	<path class="st5" d="M9.7,10.4c-0.5,0-0.5,0.3,0,0.3C10.2,10.7,10.3,10.4,9.7,10.4z"/>
	<path class="st5" d="M7.7,10.2c-0.5,0-0.5,0.3,0,0.3C8.2,10.5,8.2,10.2,7.7,10.2z"/>
	<path class="st5" d="M9.1,9.9H9c-0.1,0-0.2,0-0.3,0C8.6,9.9,8.5,10,8.5,10c0,0.1,0.3,0.1,0.4,0.1h0.1c0.1,0,0.2,0,0.3,0
		c0.1,0,0.1-0.1,0.1-0.1C9.5,9.9,9.2,9.9,9.1,9.9z"/>
	<path class="st5" d="M10.4,10c-0.5,0-0.5,0.3,0,0.3C10.9,10.3,10.9,10,10.4,10z"/>
	<path class="st5" d="M14.1,3.5H14c-0.1,0-0.2,0-0.3,0c-0.1,0-0.1,0.1-0.1,0.1c0,0.1,0.3,0.1,0.4,0.1h0.1c0.1,0,0.2,0,0.3,0
		c0.1,0,0.1-0.1,0.1-0.1C14.5,3.5,14.2,3.5,14.1,3.5z"/>
	<path class="st5" d="M12.5,4.1L12.5,4.1c0,0.2,0.9,0.2,0.9,0v0C13.3,3.9,12.5,3.9,12.5,4.1z"/>
	<path class="st5" d="M14.3,4.2c-0.5,0-0.5,0.3,0,0.3C14.8,4.5,14.8,4.2,14.3,4.2z"/>
	<path class="st5" d="M12.1,3.6L12.1,3.6c0,0.2,0.9,0.2,0.9,0v0C13,3.4,12.1,3.4,12.1,3.6z"/>
	<path class="st6" d="M23.1,4.7c0-0.1,0-0.1-0.1-0.2c0-0.1,0-0.1,0-0.2c0-0.6-0.1-1.2-0.2-1.8c0-0.1,0-0.1-0.1-0.2
		c0.1,0,0.2-0.1,0.1-0.1c-1.2-1-3.7-1.3-5.9-1.4c-2.4-0.1-5,0.2-7,0.9C9,2.1,8.1,2.5,7.5,3.1c0,0,0,0,0,0c1.1-0.9,3.1-1.5,5.1-1.8
		c2.3-0.3,4.9-0.4,7.2,0c0.6,0.1,1.3,0.3,1.8,0.5c0.1,0,0.2,0.1,0.3,0.1c0,0,0,0,0,0c0.1,0,0.2,0.1,0.2,0.1c0,0-0.1,0-0.1,0
		c0.1,0.1,0.1,0.1,0.2,0.2c0,0,0,0,0,0c0,0,0,0,0,0c0,0,0,0,0.1,0.1c0,0,0,0,0,0c0.2,0.1,0.2,0.4,0.2,0.6c0,0.4,0.1,0.8,0.1,1.2
		c0,0,0,0,0,0c0,0,0,0.1,0,0.1c0,0.1,0,0.1,0,0.2c0,0,0.1,0.1,0.1,0.1c0,0.3-0.4,0.4-0.8,0.6c-0.4,0.2-0.7,0.3-1.1,0.5
		c-0.7,0.3-1.4,0.7-2,1C18,7,17.3,7.4,16.5,7.8C16.3,8,16,8.1,15.7,8.3c0.1-0.1,0.1-0.3,0.2-0.5c0,0-0.1-0.1-0.2-0.1
		C15.8,7.5,15.9,7.2,16,7c0,0,0,0,0,0c0,0,0,0,0,0c0,0,0,0,0,0c0,0,0,0,0-0.1c0-0.1,0.1-0.3,0.1-0.4c0-0.1,0-0.2,0.1-0.3
		c0.1-0.7,0.1-1.4-0.2-2.1c0,0,0,0,0,0c-0.1-0.1-0.2-0.3-0.4-0.4c0,0,0,0,0,0c-0.3-0.3-0.6-0.5-1.2-0.7c-1.2-0.5-2.8-0.6-4.3-0.6
		c-0.8,0-1.5,0.2-2.1,0.5c-0.6,0.3-1,0.7-1.3,1.1C6.7,4.1,6.6,4.3,6.5,4.5c0,0-0.1,0-0.1,0C6,4.6,5.8,4.8,5.8,5
		c0,0.4,0.2,0.9,0.4,1.3c0.1,0.3,0.2,0.6,0.3,0.9c0,0,0,0,0,0c-0.1,0.1-0.1,0.1,0,0.2c-1.5,0.4-2.8,0.9-4,1.4C1.9,9,1.4,9.2,1.4,9.5
		c-0.4,0.2-0.3,0.6,0,0.8c0.5,0.4,1.4,0.6,2.2,0.7c2,0.4,4.1,0.7,6.3,0.7c0.1,0,0.2-0.1,0.2-0.1c0.5-0.1,0.9-0.3,1.2-0.4
		c0.7-0.3,1.4-0.7,2.1-1.1c0.7-0.4,1.5-0.9,2-1.4c0.5-0.3,1-0.6,1.5-0.9c0.7-0.4,1.5-0.8,2.2-1.2c0.8-0.4,1.6-0.8,2.5-1.2
		C22,5.3,22.4,5.1,22.8,5c0.1,0,0.1-0.1,0.2-0.1C23,4.8,23.1,4.8,23.1,4.7z M15.7,3.9c0,0,0.1,0.1,0.1,0.1c0,0,0,0,0,0.1
		C15.7,4.1,15.7,4,15.7,3.9z M6.2,5.3c0-0.2-0.2-0.5,0.2-0.6c0,0,0,0,0,0C6.3,5.1,6.3,5.5,6.3,5.9C6.3,5.7,6.2,5.5,6.2,5.3z
		 M6.6,4.7c0.4,0,0.8,0,1.1,0.1C8.5,4.8,9.2,4.9,9.9,5c0.7,0.1,1.5,0.2,2.2,0.2c0.7,0.1,1.2,0.2,1.5,0.5C14,6,14,6.3,14.1,6.6
		c0.1,0.4,0.1,0.8,0.2,1.2c0,0.2,0.1,0.4,0.1,0.6c-0.5,0-1.1,0-1.4-0.1c-0.8,0-1.6-0.1-2.3-0.2C9.9,8,9.2,7.9,8.4,7.8
		C8,7.8,6.9,7.7,6.6,7.4c0,0,0,0,0,0c0,0,0.1,0,0.1,0c0,0,0,0,0,0c0,0-0.1,0-0.1,0c0-0.3-0.1-0.5-0.2-0.8C6.4,5.9,6.4,5.3,6.6,4.7z
		 M2.4,9c1.2-0.6,2.6-1,3.9-1.5c0,0,0.1,0.1,0.2,0.1c0,0,0,0,0,0c0,0,0,0,0,0c0,0,0,0,0,0c0.3,0.1,0.8,0.2,1.1,0.3
		c1,0.2,2,0.3,3,0.4c1,0.1,1.9,0.2,2.9,0.2c0.3,0,0.6,0,0.8,0c0,0,0,0.1,0,0.1c-0.6,0.4-1.2,0.8-1.9,1.2c-0.5,0.3-1,0.5-1.6,0.8
		c-0.3,0.1-0.6,0.2-0.9,0.3c-0.4,0.1-0.8,0-1.2,0c-1.5-0.1-3-0.3-4.4-0.6c-0.7-0.1-1.5-0.3-2-0.5C2,9.8,1.7,9.7,1.7,9.5
		C1.7,9.3,2.2,9.1,2.4,9z M13.1,10c-0.6,0.3-1.1,0.6-1.7,0.9c-0.3,0.1-0.5,0.3-0.8,0.4c-0.2,0.1-0.4,0.1-0.6,0.2c0,0,0,0,0,0
		c-1.8,0-3.6-0.2-5.3-0.5c-0.8-0.1-1.7-0.3-2.4-0.5C1.6,10.3,1.2,10,1.5,9.6c0,0,0,0,0,0.1c0.2,0.3,0.8,0.5,1.4,0.6
		C4.4,10.7,6,11,7.7,11.1c0.8,0.1,1.6,0.2,2.4,0c0.7-0.1,1.3-0.4,1.8-0.7c1-0.5,1.8-1,2.6-1.5c0,0,0.1,0.1,0.1,0.1
		C14.2,9.3,13.7,9.7,13.1,10z M14.8,8.4c0,0,0-0.1,0-0.1c0-0.2-0.1-0.4-0.1-0.6c-0.1-0.4-0.1-0.8-0.2-1.2c-0.1-0.5-0.3-1-1.3-1.3
		C12.5,5,11.7,5,11,4.9L8.6,4.7C8.1,4.6,7.4,4.5,6.8,4.5c0.1,0,0.2,0,0.3-0.1c0.6,0,1.2,0,1.8,0.1c0.7,0.1,1.4,0.2,2.2,0.2
		c0.6,0.1,1.2,0.1,1.8,0.2c1.4,0.2,1.4,1.1,1.6,1.7c0.1,0.4,0.2,0.7,0.2,1.1C14.8,8,14.8,8.2,14.8,8.4L14.8,8.4z M15.2,8.5
		C15.2,8.5,15.2,8.5,15.2,8.5c0-0.1,0.1-0.1,0.1-0.1C15.2,8.4,15.2,8.5,15.2,8.5z M15.3,8.1c-0.1,0-0.1,0-0.1,0c0,0,0,0,0,0
		c0-0.2-0.1-0.3-0.1-0.5c-0.1-0.4-0.1-0.7-0.3-1.1c-0.2-0.6-0.3-1.3-1.4-1.6c-0.6-0.1-1.2-0.2-1.8-0.2c-0.8-0.1-1.6-0.2-2.3-0.2
		C8.6,4.3,8,4.3,7.3,4.3c-0.2,0-0.4,0-0.6,0.1c0.4-0.8,1.3-1.7,3-1.9c1.4-0.1,3,0,4.2,0.4c1.4,0.4,2,1.2,2,2C16,6,15.6,7,15.3,8.1
		C15.3,8,15.3,8.1,15.3,8.1z"/>
</g>
</svg>
