<?xml version="1.0" encoding="utf-8"?>
<!-- Generator: Adobe Illustrator 22.0.0, SVG Export Plug-In . SVG Version: 6.00 Build 0)  -->
<svg version="1.1" id="Layer_1" xmlns="http://www.w3.org/2000/svg" xmlns:xlink="http://www.w3.org/1999/xlink" x="0px" y="0px"
	 viewBox="0 0 85 101" style="enable-background:new 0 0 85 101;" xml:space="preserve">
<style type="text/css">
	.st0{fill:#D2D1D1;}
	.st1{fill:#F2EACD;}
	.st2{fill:#A19E8C;}
	.st3{fill:#675033;}
	.st4{fill:#936143;}
	.st5{fill:#4D2F1A;}
	.st6{fill:#552613;}
	.st7{fill:#30130D;}
	.st8{fill:#E7D7A5;}
	.st9{fill:#989272;}
	.st10{fill:#8D5A35;}
	.st11{fill:#614929;}
	.st12{fill:#FFFFFF;}
</style>
<g>
	<path class="st0" d="M78.9,91.2c0,4.2-17.4,7.6-39,7.6c-21.5,0-39-3.4-39-7.6c0-4.2,17.4-7.6,39-7.6C61.5,83.6,78.9,87,78.9,91.2z"
		/>
	<path class="st0" d="M75.8,88c0.2,0.2,0.3,0.4,0.3,0.7l0,0v0c0,0.3-0.2,0.6-0.4,0.9c0,0.1,0.1,0.2,0.1,0.3c0,3-16.3,5.4-36.4,5.4
		c-3.6,0-7.1-0.1-10.4-0.2c-11.2-0.5-20.1-1.7-24-3.3c2.2,2,12.3,3.7,25.5,4.3c3.3,0.1,6.8,0.2,10.4,0.2c20.1,0,36.4-2.5,36.4-5.4
		c0-0.2-0.1-0.4-0.2-0.6c0.2-0.2,0.3-0.4,0.3-0.7C77.4,89,76.9,88.5,75.8,88z M68.9,54.1c-2-0.1-3.9,0.7-5.6,2.1
		c-0.2,4-0.4,7.9-0.6,11.9c0.4,0.2,0.9,0.3,1.3,0.5c0.2-3.8,0.4-7.9,0.6-11.5c1.4-1.2,3.4-2.4,5.6-2.3c0.3,0,0.6,0.1,1,0.1
		c0.5,0.1,1,0.2,1.5,0.4c-0.2-0.1-0.3-0.2-0.5-0.3C71,54.4,69.9,54.1,68.9,54.1z M76,51c4.1,3.3,5.6,9.9,3.3,14.7
		c-1.3,2.8-3.5,5.3-6.3,6.7c-1.9,0.9-3.9,1.2-5.8,1.1c-1.6-0.1-3.2-0.4-4.7-0.9c-0.1,2.2-0.3,4.5-0.5,6.7c-0.1,1.6-0.1,3.4-0.7,4.9
		c0.5,0.1,1,0.1,1.5,0.2c0.1-0.5,0.2-1,0.3-1.5c0.1-1.3,0.4-4.9,0.7-9.5c1.8,0.7,3.4,1,4.9,1.1c8,0.3,12.4-6.7,13.1-11.2
		C82.3,58.7,80,53.3,76,51z M63.4,43.9c0.1,0.1,0.1,0.2,0.1,0.4c0.3,2.5,0,5.2-0.1,7.8c0.1-0.1,0.2-0.2,0.3-0.3
		c0.4-0.4,0.7-0.7,1.1-1.1c0-0.2,0-0.4,0-0.6l0-0.1c0-0.5,0-0.9,0-1.4l0-0.1c0-0.2,0-0.3,0-0.5l0-0.1c0-1.4,0-2.5,0-2.9
		C64.8,44.6,64.3,44.2,63.4,43.9z"/>
	<path class="st1" d="M71.5,49.1c-5.8-0.8-8.4,3.9-8.4,3.9l-0.2,3.1c1.6-1.4,4-2.8,6.7-2.2c3.1,0.6,5.6,2.6,6.2,5.7
		c1.2,5.8-4.9,10.6-10.4,9.4c-1-0.2-2.1-0.6-3.2-1.1L62,72.3c11.1,4.2,17.3-4.7,18.1-10.2C80.8,56.7,77.3,49.9,71.5,49.1z"/>
	<path class="st2" d="M71.4,49c-2.9-0.3-5.7,0.6-7.7,2.8c-0.2,0.2-0.9,0.8-0.9,1.2c-0.1,1-0.1,2.1-0.2,3.1c0,0.2,0.4,0.3,0.5,0.2
		c2.7-2.3,5.8-3,9-1.3c2.6,1.4,3.8,4.3,3.5,7.1c-0.3,2.4-2,4.4-4,5.7c-2.9,1.8-6.2,1.4-9.3,0.1c0,0-0.3-0.1-0.4,0
		c-0.1,1.4-0.2,2.9-0.2,4.3c0,0.1,0.1,0.2,0.2,0.2c3.6,1.3,7.4,1.6,11-0.1c2.8-1.3,5-3.9,6.3-6.7C82.3,59.4,78.9,50.1,71.4,49
		c-0.3,0-0.1,0.2,0.1,0.3c4.8,0.8,7.7,5.4,8.3,9.9c0.5,3.4-0.8,6.7-2.8,9.3c-2.3,3-5.8,4.8-9.6,4.9c-1.4,0-2.8-0.3-4.2-0.7
		c-1-0.3-1-0.1-0.9-1.1c0.1-1.2,0.1-2.3,0.2-3.5c-0.1,0-0.2,0-0.4,0c3,1.3,5.9,1.8,9,0.4c2.9-1.3,5-4.1,5.1-7.3
		c0.1-3.1-2-5.6-4.8-6.8c-3.2-1.4-6.2-0.5-8.8,1.7c0.2,0.1,0.3,0.1,0.5,0.2c0.1-1.4-0.2-2.8,0.7-3.9c1.9-2.4,4.8-3.5,7.7-3.2
		C71.9,49.3,71.5,49,71.4,49z"/>
	<path class="st3" d="M75.8,89.9c0,3-16.3,5.4-36.4,5.4C19.3,95.3,3,92.9,3,90c0-3,16.3-5.4,36.4-5.4C59.5,84.5,75.8,86.9,75.8,89.9
		z"/>
	<path class="st4" d="M75.9,88.6c0,3-16.3,5.4-36.4,5.4C19.3,94.1,3,91.7,3,88.7c0-3,16.3-5.4,36.4-5.4
		C59.5,83.3,75.9,85.6,75.9,88.6z"/>
	<path class="st5" d="M75.6,88.6c-0.1,1.1-1.7,1.6-2.5,1.9c-2.1,0.8-4.4,1.2-6.7,1.6c-7.2,1.2-14.6,1.6-21.8,1.8
		c-8.3,0.2-16.6,0-24.8-0.8c-3.1-0.3-6.2-0.7-9.3-1.2c-2-0.4-4.1-0.8-5.9-1.7c-3.6-1.8,1.5-3.5,3.1-3.9c6.1-1.7,12.6-2.1,18.8-2.4
		c8.4-0.5,16.7-0.5,25.1-0.1c6.4,0.3,13,0.8,19.2,2.3C72,86.3,75.5,86.9,75.6,88.6c0,0.2,0.5,0.2,0.5,0.1c0-0.9-1-1.4-1.7-1.7
		c-1.6-0.8-3.4-1.2-5.1-1.5c-6.2-1.3-12.6-1.7-18.9-2c-8.4-0.4-16.7-0.3-25.1,0.2c-5.9,0.4-11.9,0.9-17.6,2.3
		c-1,0.3-6.2,1.4-4.8,3.4c0.7,0.9,2.1,1.3,3.1,1.7c2,0.7,4.2,1.1,6.3,1.4c6.9,1.1,14,1.5,21,1.7c8.1,0.2,16.2,0,24.2-0.7
		c4.5-0.4,9.1-0.9,13.5-2c1.2-0.3,4.9-1,5-2.8C76.1,88.5,75.6,88.4,75.6,88.6z"/>
	<path class="st6" d="M60.6,85.4c0,0.1-0.1,0.1-0.1,0.2c-0.6,0.7-1.4,1.3-2.2,1.7c1.3,0.4,2,0.8,2,1.3c0,1.7-9.3,3.1-20.8,3.1
		c-2.1,0-4.1,0-5.9-0.1c-8.6-0.4-14.8-1.5-14.8-2.9c0-0.4,0.6-0.8,1.6-1.2c-0.6-0.5-1-1.2-1.1-2.2l0,0C13,86.2,9,87.4,9,88.7
		c0,2,9.2,3.7,21.7,4.3c2.8,0.1,5.7,0.2,8.7,0.2c16.8,0,30.4-2,30.4-4.5C69.8,87.4,66.3,86.2,60.6,85.4z"/>
	<path class="st7" d="M58.2,87.3c-2.5,1.3-5.8,1.5-8.3,1.7c-4,0.3-8,0.3-11.9,0.4c-2.9,0.1-5.8,0.1-8.7,0c-0.4,0-0.9,0-1.3-0.1
		c-1.9-0.1-5.8-0.2-7.7-1.8c-1,0.4-1.6,0.8-1.6,1.2c0,1.4,6.3,2.5,14.8,2.9c1.9,0.1,3.9,0.1,5.9,0.1c11.5,0,20.8-1.4,20.8-3.1
		C60.2,88.2,59.5,87.7,58.2,87.3z"/>
	<path class="st1" d="M19.5,85.4l-2.6-42.6c0,0,11.6-1.3,21.7-1.2c10.1,0,24.3-0.2,24.7,2.7c0.4,2.8-1.4,33.5-1.9,37.7
		c-0.4,4.1-1.9,6.9-16.2,7.2C31,89.5,19.5,90.2,19.5,85.4z"/>
	<path class="st2" d="M19.7,85.3c-0.8-13.2-1.6-26.4-2.4-39.5c-0.1-0.9-0.1-1.7-0.2-2.6c0-0.1,0-0.3,0-0.4c0,0.1-0.3,0.1,0,0.1
		c0.3,0,0.7-0.1,1-0.1c6.3-0.6,12.7-1,19.1-1.1c6.5-0.1,13.2-0.2,19.7,0.5c1.7,0.2,4.7,0.2,6,1.6c0.5,0.6,0.3,2,0.3,2.6
		c-0.1,8.7-0.7,17.5-1.3,26.2c-0.2,3.1-0.3,6.1-0.7,9.2c-0.3,3.2-1.9,5-5,6c-3.2,1-6.6,1.1-9.9,1.2c-4.3,0.2-8.5,0.3-12.8,0.3
		c-3.2,0-6.5,0-9.6-0.6C22.1,88.3,19.8,87.5,19.7,85.3c0-0.2-0.5-0.1-0.5,0c0.2,3.7,6.2,3.8,8.8,4c3.3,0.2,6.6,0.1,9.9,0.1
		c4-0.1,8-0.1,11.9-0.4c3.4-0.3,8.2-0.6,10.6-3.4c1.4-1.7,1.3-4.2,1.5-6.3c0.7-8.9,1.2-17.7,1.5-26.6c0.1-2.7,0.4-5.7,0.1-8.4
		c-0.1-1.1-1.8-1.5-2.7-1.7c-2.4-0.6-4.9-0.7-7.4-0.9c-12.2-0.6-24.6-0.3-36.7,1c0,0-0.2,0-0.2,0.1C17.4,56,18.2,69.2,19,82.3
		c0.1,1,0.1,2,0.2,3C19.2,85.5,19.7,85.5,19.7,85.3z"/>
	<path class="st4" d="M63.2,50c0-1.1,0.1-2,0.1-2.9c-20.6,3.3-41.7,0.7-46.2,0l0.2,3.3C22.3,51.4,42.5,54.9,63.2,50z"/>
	<path class="st3" d="M63.2,51.7c-15.6,4.9-38.5,2.8-45.7,2l0.1,2c6.5,0.6,28,2,45.4-1.3C63.1,53.5,63.1,52.6,63.2,51.7z"/>
	<path class="st2" d="M30.6,37c1.3-0.5,2.9-1.5,3.4-2.9c0.5-1.4-0.1-2.6-1-3.7c-1.4-1.7-3.5-3-5.1-4.6c-1.1-1.2-2.4-2.7-2.2-4.4
		c0.2-1.9,2.5-3,3.9-3.9c0.9-0.6,2.1-1.3,2.4-2.4c0.2-0.7-0.2-1.6-0.3-2.3c0-0.2-0.5-0.2-0.5,0c0,0.7,0.4,1.5,0.3,2.2
		c-0.1,1.3-2.1,2.3-3.1,2.9C26,19.3,24.3,21.1,26,24c0.9,1.5,2.4,2.8,3.7,4c1.5,1.3,3.7,2.6,4,4.8c0.3,1.9-1.8,3.4-3.4,4
		C30,36.9,30.5,37,30.6,37z"/>
	<path class="st2" d="M44,2.9c0.8,2.2-3,3.3-4.2,4.5c-2,2.2-1.3,4.6,0.5,6.7c1.3,1.5,2.8,2.7,4,4.2c1.2,1.5,2.1,3.2,2.8,5.1
		c1.4,4,0.2,7.9-2.7,10.8c-0.1,0.1,0.4,0.2,0.5,0.1c2.7-2.7,3.9-6,3.1-9.8c-0.8-3.6-3.2-6.7-5.7-9.1c-1.4-1.3-2.7-2.7-3-4.6
		c-0.2-1.4,0.6-2.7,1.6-3.6c1.2-1.1,4.6-2.1,3.9-4.3C44.5,2.7,43.9,2.8,44,2.9z"/>
	<path class="st2" d="M54.5,20.9c-0.6,0.1-1.3,0.4-1.2,1.1c0.1,1,1.2,1.8,1.8,2.4c0.9,1,1.3,2.4,1.2,3.7c-0.1,1.3-0.9,2.5-1.7,3.4
		c-1,1.1-2.3,1.7-3.2,2.8c-0.8,1.1,0.4,1.9,1.2,2.6c0.1,0.1,0.6,0,0.5-0.1c-1-0.9-1.9-1.6-0.8-2.9c0.7-0.8,1.8-1.4,2.5-2.1
		c0.8-0.8,1.4-1.7,1.8-2.8c0.6-1.7,0.1-3.4-1-4.8c-0.4-0.6-3.1-3-0.9-3.3C55,21.1,54.7,20.9,54.5,20.9z"/>
	<path class="st8" d="M23.6,42.3c-1.8,0.1-3.6,0.3-5.5,0.5c-0.3,0-0.7,0.1-1,0.1c0,0.1,0,0.2,0,0.3c0.1,0.9,0.1,1.7,0.2,2.6
		c0,0.5,0.1,0.9,0.1,1.4c1.2,0.2,3.3,0.4,6.1,0.7C23.4,45.6,23.5,43.7,23.6,42.3z"/>
	<path class="st9" d="M23.6,42.2c-4,0.3-6.7,0.6-6.7,0.6l0.3,4.4c0.1,0,0.2,0,0.3,0c0-0.5-0.1-0.9-0.1-1.4c-0.1-0.9-0.1-1.7-0.2-2.6
		c0-0.1,0-0.2,0-0.3c0.3,0,0.7-0.1,1-0.1C19.9,42.6,21.7,42.4,23.6,42.2C23.6,42.2,23.6,42.2,23.6,42.2z"/>
	<path class="st8" d="M17.6,50.5c0.1,1.1,0.1,2.2,0.2,3.3c1.4,0.2,3.4,0.4,5.8,0.5c0-1-0.1-1.9-0.1-2.9
		C20.9,51.1,18.8,50.8,17.6,50.5z"/>
	<path class="st9" d="M17.3,50.5l0.2,3.3c0.1,0,0.2,0,0.3,0c-0.1-1.1-0.1-2.2-0.2-3.3C17.5,50.5,17.4,50.5,17.3,50.5z"/>
	<path class="st8" d="M17.9,55.8c0.6,9.8,1.2,19.7,1.8,29.5v0v0c0.1,2.1,2.4,2.9,4.2,3.3c1.7,0.3,3.4,0.5,5.2,0.6
		c1.5,0.1,3,0.1,4.4,0.1c4.3,0,8.5-0.1,12.8-0.3c3.3-0.1,6.7-0.2,9.9-1.2c3.1-1,4.7-2.7,5-6c0-0.4,0.1-0.8,0.1-1.1
		c-2.1,4.2-6.5,6.4-15.4,6.1c-2.3-0.1-5-0.4-8-0.8c-10.2-1.6-13.3-17.1-14.1-29.7C21.3,56.1,19.3,55.9,17.9,55.8z"/>
	<path class="st9" d="M17.6,55.8l1.8,29.6c0,2.8,3.8,3.7,9.6,4c4.4,0.2,10,0,16.2-0.2C59.5,88.8,61,86,61.4,81.9
		c0-0.4,0.1-1.1,0.2-1.9c-0.1,0.2-0.2,0.5-0.3,0.7c0,0.4-0.1,0.8-0.1,1.1c-0.3,3.2-1.9,5-5,6c-3.2,1-6.6,1.1-9.9,1.2
		c-4.3,0.2-8.5,0.3-12.8,0.3c-1.5,0-3,0-4.4-0.1c-1.7-0.1-3.5-0.2-5.2-0.6c-1.8-0.4-4.1-1.2-4.2-3.3v0v0c-0.6-9.8-1.2-19.7-1.8-29.5
		C17.8,55.8,17.7,55.8,17.6,55.8z"/>
	<path class="st10" d="M17.1,47.1l0.2,3.3c0.1,0,0.2,0,0.3,0.1c1.2,0.2,3.3,0.6,5.9,0.9c0-1.3-0.1-2.5-0.1-3.6
		c-2.8-0.3-4.9-0.5-6.1-0.7C17.3,47.2,17.2,47.2,17.1,47.1z"/>
	<path class="st11" d="M17.5,53.8l0.1,2c0.1,0,0.2,0,0.3,0c1.4,0.1,3.4,0.3,5.8,0.4c0-0.6-0.1-1.2-0.1-1.9c-2.4-0.2-4.4-0.4-5.8-0.5
		C17.7,53.8,17.6,53.8,17.5,53.8z"/>
	<path class="st8" d="M68.9,51.9c-2.3-0.1-4.2,0.7-5.5,1.6c0,0.7-0.1,1.4-0.1,2.1c1.6-1.2,3.5-1.9,5.4-1.8c0.9,0,1.8,0.2,2.8,0.7
		c2.7,1.2,4.8,3.7,4.8,6.8c-0.1,3.2-2.2,6-5.1,7.3c-1.4,0.6-2.8,0.8-4.2,0.8c-1.4-0.1-2.9-0.4-4.3-1c0,0.7-0.1,1.4-0.1,2.1
		c1.4,0.4,2.8,0.7,4.1,0.7c5.9,0.3,10.2-3.2,10.9-7.6c0.9-5.9-1.5-10.2-7-11.4C69.9,52,69.4,51.9,68.9,51.9z"/>
	<path class="st9" d="M68.7,53.7c-1.9-0.1-3.7,0.6-5.4,1.8c0,0.1,0,0.2,0,0.3C64.6,54.8,66.5,53.7,68.7,53.7
		c0.2,0.1,0.6,0.1,0.9,0.2c3.1,0.6,5.6,2.6,6.2,5.7c1.1,5.4-4,9.8-9,9.6c-0.5,0-0.9-0.1-1.4-0.2c-0.9-0.2-1.8-0.5-2.8-0.9
		c0,0,0,0.1,0,0.1c1.4,0.6,2.9,1,4.3,1c1.4,0.1,2.8-0.2,4.2-0.8c2.9-1.3,5-4.1,5.1-7.3c0.1-3.1-2-5.6-4.8-6.8
		C70.5,54,69.6,53.8,68.7,53.7z"/>
	<path class="st9" d="M62.2,68l-0.1,2.2c0.1,0,0.3,0.1,0.4,0.1c0-0.7,0.1-1.4,0.1-2.1c0,0,0-0.1,0-0.1C62.5,68.1,62.4,68.1,62.2,68z
		 M63.4,53.5c-0.1,0.1-0.2,0.1-0.3,0.2c0,0.3,0,0.5,0,0.8c0,0,0,0-0.1,0l-0.1,1.7c0.1-0.1,0.2-0.2,0.4-0.3c0-0.1,0-0.2,0-0.3
		C63.3,54.9,63.3,54.2,63.4,53.5z"/>
	<path class="st11" d="M63.1,53.7C63.1,53.7,63.1,53.7,63.1,53.7L63,54.5c0,0,0,0,0.1,0C63.1,54.2,63.1,53.9,63.1,53.7z"/>
	<path class="st12" d="M60.6,44.1c0,0.4-1.6,0.7-3.5,0.7c-1.9-0.1-3.5-0.5-3.5-1c0-0.4,1.6-0.7,3.5-0.7
		C59.1,43.2,60.6,43.7,60.6,44.1z"/>
	<path class="st12" d="M73.8,50.9c-0.1,0.3-0.8,0.3-1.6,0.1c-0.8-0.2-1.4-0.6-1.4-0.9c0.1-0.3,0.8-0.3,1.6-0.1
		C73.2,50.2,73.8,50.6,73.8,50.9z"/>
</g>
</svg>
