<?xml version="1.0" encoding="utf-8"?>
<!-- Generator: Adobe Illustrator 22.0.0, SVG Export Plug-In . SVG Version: 6.00 Build 0)  -->
<svg version="1.1" id="Layer_1" xmlns="http://www.w3.org/2000/svg" xmlns:xlink="http://www.w3.org/1999/xlink" x="0px" y="0px"
	 viewBox="0 0 17 31" style="enable-background:new 0 0 17 31;" xml:space="preserve">
<style type="text/css">
	.st0{fill:#D99F47;}
</style>
<path class="st0" d="M8.4,29.5c0,0.3-0.2,0.5-0.5,0.5H1.8c-0.9,0-1.6-0.7-1.6-1.6V13.2c0-2.4,1.4-4.5,3.6-5.5v-5
	C3.7,2.6,3.6,2.3,3.6,2.1V0.9c0-0.4,0.3-0.8,0.6-0.9C4.3,0,4.4,0,4.5,0h3.3C8,0,8.1,0,8.2,0.1c0.4,0.1,0.6,0.5,0.6,0.9v1.1
	c0,0.3-0.1,0.5-0.3,0.7v5c1.2,0.5,2.2,1.4,2.9,2.6c0.1,0.2,0,0.5-0.2,0.7c-0.2,0.1-0.5,0-0.7-0.2c-0.6-1-1.5-1.8-2.7-2.2
	C7.6,8.5,7.5,8.3,7.5,8.1V3H7.4C7.1,3,6.9,2.8,6.9,2.5C6.9,2.2,7.1,2,7.4,2h0.4V1H4.6v1H5c0.3,0,0.5,0.2,0.5,0.5C5.5,2.8,5.3,3,5,3
	H4.9v5c0,0.2-0.1,0.4-0.3,0.5c-2,0.7-3.3,2.6-3.3,4.6v15.2c0,0.3,0.3,0.6,0.6,0.6h6.1C8.2,29,8.4,29.2,8.4,29.5z M4.1,10.1
	c-1.1,0.6-1.7,1.8-1.7,3v13.6c0,0.3,0.2,0.5,0.5,0.5s0.5-0.2,0.5-0.5V13.1c0-0.9,0.5-1.7,1.2-2.1c0.2-0.1,0.3-0.4,0.2-0.7
	C4.7,10.1,4.4,10,4.1,10.1z M14.4,19.1c-0.3,0-0.5,0.3-0.4,0.6c0.1,0.5-0.1,0.9-0.4,1.3c-0.4,0.5-1,0.7-1.7,0.7
	c-0.3,0-0.5,0.2-0.5,0.5c0,0.3,0.2,0.5,0.5,0.5c0.9,0,1.8-0.4,2.4-1.1c0.5-0.6,0.8-1.3,0.7-2.1C14.9,19.2,14.7,19,14.4,19.1z
	 M15.7,22.9c-0.8,0.9-2,1.6-3.3,1.7V30H14c0.3,0,0.5,0.2,0.5,0.5S14.2,31,14,31h-2.1c0,0,0,0,0,0c0,0,0,0,0,0H9.8
	c-0.3,0-0.5-0.2-0.5-0.5S9.5,30,9.8,30h1.6v-5.4c-1.3-0.1-2.5-0.7-3.3-1.7C7.2,22,6.9,20.9,7,19.7l0.4-3.1c0,0,0,0,0,0l0.4-3.5
	c0-0.3,0.2-0.4,0.5-0.4h7.2c0.3,0,0.5,0.2,0.5,0.4l0.8,6.5C16.9,20.9,16.5,22,15.7,22.9z M15.7,19.8L15,13.7H8.7l-0.3,2.7
	c1.3,0.8,3.6,0.8,5.5-0.1c0.2-0.1,0.5,0,0.7,0.2c0.1,0.2,0,0.5-0.2,0.7c-2,1-4.4,1.1-6.1,0.3L8,19.8c-0.1,0.9,0.2,1.7,0.8,2.4
	c0.8,0.9,1.9,1.4,3.1,1.4s2.3-0.5,3.1-1.4C15.5,21.5,15.8,20.7,15.7,19.8z"/>
</svg>
