<?xml version="1.0" encoding="utf-8"?>
<!-- Generator: Adobe Illustrator 22.0.0, SVG Export Plug-In . SVG Version: 6.00 Build 0)  -->
<svg version="1.1" id="Layer_1" xmlns="http://www.w3.org/2000/svg" xmlns:xlink="http://www.w3.org/1999/xlink" x="0px" y="0px"
	 viewBox="0 0 23 21" style="enable-background:new 0 0 23 21;" xml:space="preserve">
<style type="text/css">
	.st0{fill:#6D282A;}
	.st1{fill:#D24540;}
	.st2{opacity:0.61;fill:#AC3D3B;}
	.st3{fill:#F9A987;}
	.st4{fill:#B52025;}
	.st5{fill:#AC3D3B;}
	.st6{fill:#DF897D;}
	.st7{opacity:0.47;fill:#D24540;}
</style>
<g>
	<path class="st0" d="M22.9,8.8c0-0.1,0-0.2,0-0.2c0-0.2,0-0.4-0.1-0.6c-0.2-0.5-0.6-1-1.1-1.3c-0.5-0.4-1-0.8-1.5-1.1
		c-0.2-0.1-0.4-0.2-0.7-0.4C19.4,5.1,19.2,5,19,4.9c-0.2-0.1-0.3-0.1-0.5-0.2c-0.2-0.1-0.5-0.2-0.7-0.3c-0.2-0.1-0.4-0.2-0.6-0.3
		c-0.1,0-0.1,0-0.2-0.1c0,0,0,0,0,0C16.8,4,16.6,4,16.5,4c-0.8-0.2-1.7-0.4-2.6-0.4c-1,0-2,0.4-2.9,0.7C10,4.7,9,5,8.1,5.3
		C6.2,5.9,4.3,6.5,2.7,7.5C2.1,7.9,1.5,8.3,1,8.8C0.7,9.1,0.5,9.4,0.4,9.7c0,0.1-0.1,0.2-0.1,0.3c0,0.1,0,0.3,0,0.4
		c0,0.4,0.1,0.8,0.1,1.2c0,0.4,0,0.9,0,1.3c0,0.4,0,0.9,0,1.3c0,0.3,0.2,0.6,0.4,0.9c0.2,0.3,0.5,0.7,0.8,1c0.5,0.6,1.2,1.1,1.9,1.4
		c0.9,0.3,1.8,0.3,2.7,0.1c0.5-0.1,1-0.2,1.5-0.3c0.5-0.1,1-0.1,1.5-0.2c1-0.1,2-0.2,3.1-0.2c1,0,2.1-0.1,3.1-0.2c1-0.1,2-0.1,3-0.3
		c0.9-0.1,1.8-0.4,2.7-0.7c0.1,0,0.1,0,0.2-0.1c0.3-0.2,0.6-0.3,0.8-0.5c0,0,0,0,0,0c0.1-0.1,0.2-0.2,0.3-0.3
		c0.1-0.2,0.2-0.4,0.2-0.7c0-0.3,0.1-0.6,0.1-0.9c0-0.6,0-1.3,0.1-1.9c0.1-0.6,0.2-1.2,0.2-1.8C23,9.4,23,9.1,22.9,8.8z"/>
	<path class="st1" d="M0.5,9.6C0.7,9.3,0.9,9,1.2,8.8c0.3-0.3,0.6-0.5,0.9-0.7c0.7-0.5,1.4-0.9,2.2-1.3c0.9-0.4,1.8-0.7,2.7-1
		c0.9-0.3,1.8-0.6,2.7-0.9c0.9-0.3,1.9-0.7,2.9-1c0.5-0.1,1-0.2,1.5-0.2c0.4,0,0.9,0,1.3,0.1c0.5,0.1,1.1,0.2,1.6,0.4
		c0.5,0,0.9,0.3,1.3,0.5c0,0,0,0,0,0c0.6,0.2,1.1,0.4,1.6,0.7c0,0,0,0,0,0c0.3,0.2,0.7,0.4,1,0.6c0.5,0.4,1,0.7,1.4,1.2
		c0.3,0.4,0.6,0.8,0.5,1.3c0,0.2-0.2,0.5-0.4,0.6c-0.3,0.3-0.6,0.5-1,0.7c-0.8,0.4-1.6,0.7-2.5,0.9c-2,0.5-4,0.9-6,1.2
		c-2.2,0.3-4.3,0.4-6.5,0.8C6,13,5.5,13.1,4.9,13.2c-0.4,0.1-0.9,0.1-1.3,0c-0.4-0.1-0.8-0.3-1.1-0.5c-0.4-0.3-0.6-0.7-1-1
		C1,11.1,0.1,10.5,0.5,9.6z"/>
	<path class="st2" d="M1.5,8.8C1.3,8.9,1.2,9.1,1.2,9.4c0,0.3,0.2,0.5,0.3,0.8c0.3,0.5,0.6,1,1,1.5c0.3,0.5,0.9,0.5,1.4,0.6
		c0.3,0,0.8,0.2,1.1,0c0.2-0.2,0.2-0.4,0.3-0.6c0.1-0.3,0.1-0.6,0.1-1c0-0.3,0-0.6,0-1c0-0.3,0.1-0.6,0.1-0.9
		c0.1-0.6,0.3-1.3,0.5-1.8C6.2,6.6,6.3,6.3,6.4,6C5.7,6.2,4.9,6.5,4.2,6.8C4,6.9,3.9,7,3.7,7.1C3.4,7.2,3.2,7.4,2.9,7.6
		C2.7,7.8,2.4,8,2.1,8.2C1.9,8.4,1.7,8.6,1.5,8.8z"/>
	<path class="st2" d="M6.9,8C6.9,8,7,7.9,7,7.9c0.1-0.1,0.1-0.2,0.2-0.3c0.1-0.2,0.2-0.4,0.3-0.7c0.1-0.2,0.1-0.4,0.2-0.5
		c0.1-0.1,0.2-0.3,0.2-0.4C8,5.8,8,5.6,8.1,5.4c0,0,0,0,0,0C7.8,5.5,7.5,5.6,7.2,5.7c0,0,0,0.1,0,0.1C7,6.2,6.9,6.6,6.8,7
		C6.8,7.3,6.8,7.7,6.9,8z"/>
	<path class="st2" d="M9.2,5.1C9,5.8,8.7,6.6,8.4,7.3C8.2,7.9,7.8,8.5,7.5,9.1c-0.1,0.3-0.2,0.6-0.2,1c0,0.3,0,0.7,0.1,1
		c0,0.2,0.1,0.4,0.3,0.5c0.2,0.1,0.4,0.1,0.6,0.1c0.3,0,0.6,0,0.9,0c0.3,0,0.6-0.1,0.9-0.2c0.3-0.1,0.5-0.3,0.7-0.6
		c0.2-0.2,0.3-0.5,0.4-0.8c0.2-0.6,0.4-1.1,0.6-1.7c0.3-0.6,0.6-1.3,0.9-1.9c0.1-0.3,0.3-0.6,0.3-1c0.1-0.3,0.1-0.6,0.1-1
		c0-0.2,0.1-0.5,0.1-0.7c-0.3,0-0.6,0.1-0.8,0.2c-1,0.2-1.9,0.6-2.9,1C9.5,5,9.3,5,9.2,5.1C9.2,5.1,9.2,5.1,9.2,5.1z"/>
	<path class="st2" d="M13.8,4.4c-0.1,0.2-0.1,0.4-0.1,0.6c0.1,0.2,0.2,0.3,0.4,0.3c0.4,0.1,0.8-0.1,1-0.3c0.4-0.3,0.7-0.6,1-0.9
		c0,0,0.1-0.1,0.1-0.1C16,4,15.6,3.9,15.2,3.8c-0.4-0.1-0.8-0.1-1.2-0.1C14,4,13.9,4.2,13.8,4.4z"/>
	<path class="st2" d="M18.2,4.7c-0.1,0-0.2-0.1-0.2-0.1c-0.3,0.7-0.5,1.5-0.4,2.3c0,0.5,0.2,0.9,0.3,1.4c0,0.2,0.1,0.3,0.1,0.5
		c0,0.2,0.1,0.3,0.2,0.5c0.2,0.2,0.5,0.2,0.7,0.2c0.3,0,0.6-0.1,0.9-0.2c0.3-0.1,0.5-0.2,0.8-0.4c0.3-0.2,0.6-0.3,0.8-0.5
		C21.8,8,22,7.7,22.3,7.4c0,0,0,0,0,0c0,0,0,0,0,0c-0.4-0.5-0.9-0.9-1.4-1.2c-0.3-0.2-0.7-0.4-1-0.6c0,0,0,0,0,0
		C19.3,5.2,18.8,5,18.2,4.7C18.2,4.7,18.2,4.7,18.2,4.7z"/>
	<path class="st2" d="M15.3,6.2c-0.3-0.2-0.7-0.1-1.1,0.1c-0.2,0.1-0.4,0.3-0.6,0.4c0,0,0,0,0,0c-0.1,0.1-0.2,0.2-0.3,0.4
		c-0.4,0.5-0.5,1.1-0.8,1.6c-0.1,0.2-0.2,0.5-0.3,0.8c-0.1,0.2-0.1,0.5,0,0.7c0.2,0.4,0.8,0.5,1.2,0.4c0.5,0,0.9-0.2,1.4-0.3
		c0.2-0.1,0.5-0.2,0.7-0.4c0.2-0.2,0.4-0.4,0.5-0.7c0.1-0.3,0.1-0.7,0.1-1c0-0.4,0-0.8-0.1-1.2C15.7,6.7,15.6,6.4,15.3,6.2z"/>
	<path class="st3" d="M21.6,9.4c-0.4,0.3-0.8,0.4-1.2,0.6c-0.5,0.2-1,0.3-1.5,0.4c-0.4,0.1-0.9,0.1-1.3-0.2
		c-0.3-0.2-0.4-0.5-0.5-0.8C17.1,9,17.1,8.6,17,8.3c0-0.3-0.1-0.5-0.1-0.8c0-0.3-0.1-0.5-0.1-0.8c-0.1-0.8,0-1.7,0.4-2.5
		c0,0-0.1,0-0.1,0c-0.3,0.7-0.7,1.4-0.7,2.2c0,0.9,0.4,1.9,0.2,2.8c-0.1,0.4-0.3,0.8-0.6,1.2c-0.2,0.2-0.4,0.5-0.7,0.6
		c-0.6,0.3-1.2,0.3-1.8,0.4c-0.9,0.1-1.8,0.4-2.7,0.6C9.9,12.2,9,12.4,8,12.4c-0.3,0-0.6-0.1-0.8-0.3C7,11.9,7,11.6,7,11.3
		c0-0.3,0-0.6,0-0.9C7,10,7,9.6,7.1,9.3c0.1-0.4,0.3-0.8,0.5-1.1C7.8,7.7,8,7.3,8.2,6.9c0.2-0.5,0.3-1.1,0.5-1.6
		c-0.1,0-0.2,0.1-0.3,0.1c0,0.1,0,0.1-0.1,0.2C7.9,6.7,7.8,8.1,6.8,9c0,0-0.1,0-0.1,0C6.6,8.7,6.6,8.4,6.6,8.1
		c0-0.6,0.1-1.2,0.3-1.8C6.9,6.1,7,5.9,7,5.8c0,0,0,0-0.1,0C6.9,6.2,6.8,6.6,6.7,7C6.6,7.4,6.5,7.7,6.5,8.1c-0.1,0.3-0.1,0.7-0.1,1
		c0,0.6,0.1,1.3,0,1.9c-0.1,0.4-0.1,0.8-0.2,1.3c0,0.2-0.1,0.3-0.2,0.5c-0.1,0.2-0.4,0.2-0.6,0.2C5.2,13,5,13,4.8,13
		C4.5,13,4.3,13,4,13c-0.5,0-0.9-0.2-1.2-0.5c-0.2-0.2-0.5-0.4-0.7-0.6c-0.2-0.2-0.4-0.4-0.6-0.6c-0.3-0.4-0.6-0.8-0.8-1.3
		C0.7,9.9,0.6,9.6,0.6,9.4c0,0.1-0.1,0.1-0.1,0.2c-0.4,0.9,0.5,1.5,1,2.1c0.3,0.4,0.6,0.7,1,1c0.3,0.3,0.7,0.4,1.1,0.5
		c0.5,0.1,0.9,0,1.3,0C5.5,13.1,6,13,6.5,12.9c2.1-0.4,4.3-0.5,6.5-0.8c2-0.3,4-0.7,6-1.2c0.8-0.2,1.7-0.5,2.5-0.9
		c0.3-0.2,0.7-0.4,1-0.7c0.2-0.2,0.3-0.4,0.4-0.6c0-0.2,0-0.3,0-0.4C22.4,8.7,22.1,9.1,21.6,9.4z"/>
	<path class="st4" d="M22.8,9.6c0,0.6-0.1,1.1-0.2,1.7c-0.1,0.6-0.1,1.2-0.1,1.8c0,0.3,0,0.6,0,0.9c0,0.3,0,0.5-0.1,0.8
		c-0.1,0.2-0.2,0.4-0.3,0.5c-0.1,0.1-0.3,0.2-0.5,0.3c-0.1,0-0.1,0.1-0.2,0.1c0,0,0,0,0,0c-0.7,0.3-1.5,0.5-2.2,0.7
		c-1,0.2-2,0.3-3,0.3c-1,0.1-2,0.1-3,0.2c-1,0-2,0.1-3,0.2c-1,0.1-1.9,0.2-2.9,0.3c-0.5,0.1-0.9,0.2-1.4,0.3c-0.5,0.1-1,0.1-1.4,0
		c-0.8-0.1-1.6-0.6-2.2-1.1c-0.3-0.3-0.6-0.6-0.9-0.9c-0.2-0.3-0.5-0.6-0.7-0.9c-0.2-0.3-0.2-0.7-0.2-1c0-0.5,0-1,0-1.5
		c0-0.4,0-0.7-0.1-1.1c0-0.2,0-0.4-0.1-0.6c0,0.1,0.1,0.1,0.1,0.2c0.2,0.4,0.6,0.7,0.9,1.1c0.3,0.4,0.6,0.8,1,1.1
		c0.3,0.2,0.7,0.4,1.1,0.5c0.4,0.1,0.9,0.1,1.3,0c0.6-0.1,1.1-0.2,1.6-0.3c0.6-0.1,1.1-0.2,1.7-0.3c1.1-0.1,2.2-0.2,3.4-0.3
		c2.2-0.2,4.4-0.6,6.5-1.1c0.8-0.2,1.7-0.4,2.5-0.7c0.4-0.2,0.8-0.3,1.2-0.6c0.3-0.2,0.7-0.4,0.9-0.7c0.1-0.1,0.2-0.2,0.2-0.4
		C22.8,9.1,22.8,9.3,22.8,9.6z"/>
	<path class="st5" d="M2.1,15.1c0.2-0.6,0.6-1.3,0.5-2c0-0.1,0-0.1,0-0.2c0,0-0.1-0.1-0.1-0.1c-0.4-0.3-0.7-0.7-1-1.1
		c-0.3-0.4-0.7-0.7-0.9-1.1c0-0.1-0.1-0.1-0.1-0.2c0,0.2,0,0.4,0.1,0.6c0,0.4,0.1,0.7,0.1,1.1c0,0.5,0,1,0,1.5c0,0.4,0,0.7,0.2,1
		c0.2,0.3,0.4,0.6,0.7,0.9c0.1,0.1,0.2,0.3,0.4,0.4C1.8,15.7,1.9,15.4,2.1,15.1z"/>
	<path class="st6" d="M6.4,13c-0.2,0-0.4,0.1-0.6,0.1c0.3,0.4,0,0.8-0.3,1.2c-0.2,0.2-0.3,0.4-0.5,0.5c-0.2,0.2-0.3,0.5-0.5,0.7
		c-0.3,0.6-0.6,1.3-0.9,1.9c0.2,0.1,0.5,0.1,0.7,0.2c0.1,0,0.2,0,0.2,0c0.3-0.4,0.7-0.9,0.9-1.4c0.7-1.1,1.2-2.2,1.9-3.3
		c0-0.1,0.1-0.1,0.1-0.2C7.2,12.9,6.8,13,6.4,13z"/>
	<path class="st6" d="M15.1,16.8c0.2,0,0.3,0,0.5,0c0.2-1,0.4-1.9,0.6-2.9c0.1-0.4,0.2-0.7,0.4-1c0.2-0.3,0.4-0.5,0.7-0.7
		c0.3-0.2,0.6-0.4,0.9-0.6c0.2-0.1,0.5-0.3,0.7-0.4c-0.3,0.1-0.7,0.2-1,0.3c-0.7,0.2-1.5,0.4-2.2,0.5c-0.1,0.2-0.2,0.4-0.3,0.5
		c-0.4,0.5-0.8,1-1.3,1.4c-0.5,0.4-0.9,0.8-1.4,1.3c-0.2,0.1-0.3,0.3-0.5,0.4c-0.2,0.3-0.5,0.5-0.7,0.8c-0.2,0.2-0.4,0.5-0.6,0.7
		c0.2,0,0.4,0,0.7,0c0.1-0.1,0.2-0.3,0.3-0.4c0.5-0.6,1-1.2,1.6-1.7c0.2-0.2,0.5-0.4,0.8-0.6c0.2-0.1,0.5-0.2,0.7-0.2
		c0.2,0,0.4,0.2,0.4,0.4c0.1,0.3,0,0.7-0.1,1C15.3,16,15.2,16.4,15.1,16.8z"/>
	<path class="st5" d="M5.1,17.7c0.2-0.4,0.4-0.8,0.6-1.2c0.6-0.9,1.2-1.7,1.8-2.6c0.3-0.4,0.6-0.8,0.9-1.2c-0.1,0-0.2,0-0.3,0
		c-0.1,0-0.2,0-0.4,0c-0.4,0.7-0.8,1.4-1.2,2.1c-0.5,0.9-1,1.9-1.7,2.7C4.9,17.7,5,17.7,5.1,17.7z"/>
	<path class="st5" d="M2.9,13.5c0.3,0.1,0.5,0.2,0.8,0.4C3.8,14,4,14.2,3.9,14.4c0,0.3-0.2,0.5-0.3,0.7c-0.1,0.2-0.3,0.4-0.4,0.7
		c-0.2,0.3-0.4,0.5-0.7,0.8c-0.1,0.1-0.1,0.1-0.2,0.2c0.1,0,0.1,0.1,0.2,0.1c0.7-0.5,1.2-1.4,1.7-2c0.2-0.2,0.3-0.4,0.5-0.5
		c0.2-0.2,0.4-0.3,0.7-0.4c0.5-0.2,1-0.3,1.6-0.4c0.6-0.1,1.2-0.3,1.8-0.4c0.6-0.1,1.3-0.3,1.9-0.4c0.6-0.1,1.3-0.3,1.9-0.5
		c-0.4,0.1-0.9,0.1-1.3,0.2c-1.1,0.1-2.2,0.2-3.4,0.3C7.5,12.8,7,12.9,6.4,13c-0.5,0.1-1.1,0.2-1.6,0.3c-0.4,0.1-0.9,0.1-1.3,0
		c-0.4-0.1-0.8-0.3-1.1-0.5c-0.4-0.3-0.7-0.7-1-1.1c-0.3-0.4-0.7-0.7-0.9-1.1c0-0.1-0.1-0.1-0.1-0.2c0,0,0,0.1,0,0.1
		c0.2,0.7,0.6,1.3,1,1.8c0.1,0.2,0.3,0.3,0.4,0.4C2,13,2.1,13.1,2.2,13.2C2.4,13.3,2.7,13.4,2.9,13.5z"/>
	<path class="st5" d="M8.4,16.5c0.2-0.2,0.4-0.4,0.6-0.6c0.4-0.4,0.8-0.8,1.2-1.2c0.4-0.4,0.9-0.7,1.3-1c0.2-0.2,0.4-0.3,0.6-0.4
		c0.1-0.1,0.2-0.2,0.3-0.3c-0.5,0.3-1.1,0.5-1.6,0.8c-0.5,0.3-1.1,0.6-1.6,1c-0.3,0.2-0.5,0.3-0.7,0.5c-0.2,0.2-0.4,0.4-0.6,0.6
		c-0.2,0.2-0.4,0.4-0.6,0.6C7.2,16.7,7,16.8,6.8,17c-0.2,0.2-0.5,0.4-0.7,0.6c0.3,0,0.5-0.1,0.7-0.1c0.3-0.2,0.6-0.4,0.9-0.5
		C8,16.8,8.2,16.7,8.4,16.5z"/>
	<path class="st5" d="M10.7,16.7c0.2-0.1,0.4-0.3,0.6-0.4c0.3-0.2,0.5-0.4,0.7-0.6c0.2-0.3,0.4-0.5,0.7-0.8c0.3-0.3,0.5-0.5,0.8-0.8
		c0.3-0.2,0.6-0.5,0.9-0.7c0.3-0.3,0.5-0.5,0.8-0.8c0.2-0.2,0.5-0.5,0.7-0.7c-0.1,0-0.2,0-0.3,0.1c-0.1,0.1-0.1,0.1-0.2,0.2
		c-0.6,0.5-1.1,1-1.6,1.5c-0.5,0.5-1.1,0.9-1.7,1.4c-0.9,0.7-1.9,1.5-2.8,2.3c0.3,0,0.6-0.1,0.8-0.1C10.3,16.9,10.5,16.8,10.7,16.7z
		"/>
	<path class="st5" d="M16.4,15c0.3-0.3,0.6-0.6,0.9-0.9c0.2-0.3,0.4-0.5,0.6-0.9c-0.3,0.2-0.6,0.4-0.8,0.6c-1,0.8-1.9,1.8-2.4,3
		c0,0,0,0,0.1,0c0.3-0.3,0.6-0.6,0.8-0.9C15.8,15.6,16.1,15.3,16.4,15z"/>
	<path class="st5" d="M17.7,15.5c0.2-0.2,0.4-0.3,0.6-0.5c0.3-0.2,0.5-0.4,0.7-0.7c0.2-0.2,0.4-0.5,0.6-0.8c0.2-0.2,0.4-0.5,0.7-0.7
		c0.2-0.2,0.5-0.4,0.8-0.6c0.3-0.2,0.5-0.4,0.7-0.7c0.3-0.3,0.6-0.6,0.9-0.9c0.1-0.4,0.1-0.9,0.1-1.3c0-0.1,0-0.2,0-0.3
		c-0.2,0.5-0.4,1-0.7,1.4c-0.4,0.7-1,1.1-1.6,1.6c-0.3,0.2-0.6,0.5-0.8,0.8c-0.2,0.3-0.4,0.6-0.7,1c-0.2,0.3-0.5,0.6-0.8,0.9
		c-0.3,0.2-0.6,0.5-0.9,0.7c-0.4,0.4-0.9,0.7-1.2,1.1c0.1,0,0.3,0,0.4,0C16.8,16.2,17.3,15.8,17.7,15.5z"/>
	<path class="st5" d="M22.3,13.1c-0.2,0.4-0.5,0.7-0.7,1c-0.3,0.3-0.5,0.5-0.8,0.8c-0.2,0.2-0.3,0.3-0.5,0.6
		c-0.2,0.3-0.3,0.5-0.5,0.8c0.5-0.1,1-0.3,1.5-0.5c0,0,0,0,0,0c0.1,0,0.1-0.1,0.2-0.1c0.2-0.1,0.3-0.1,0.5-0.3
		c0.2-0.1,0.3-0.3,0.3-0.5c0.1-0.3,0.1-0.5,0.1-0.8c0-0.3,0-0.6,0-0.9c0-0.2,0-0.3,0-0.5C22.5,12.7,22.4,12.9,22.3,13.1z"/>
	<path class="st5" d="M21.3,15.5c-0.4,0.2-0.9,0.4-1.4,0.5c-0.9,0.2-1.9,0.2-2.9,0.3c-0.5,0-1.1,0.1-1.6,0.2
		c-0.5,0.1-1.1,0.1-1.7,0.2c-0.5,0-1.1,0.1-1.6,0.1c-0.5,0-1.1,0-1.6,0c-0.5,0-1.1,0-1.6,0.1c-0.5,0.1-1,0.2-1.5,0.2
		c-1,0.2-2,0.3-3.1,0.2c-0.4,0-0.8-0.1-1.2-0.3c-0.4-0.2-0.7-0.4-1-0.7c-0.3-0.3-0.6-0.5-0.9-0.9c-0.2-0.3-0.4-0.6-0.5-1
		c-0.1-0.4,0-0.9,0-1.3c0-0.3,0-0.7,0-1c0-0.4,0-0.8-0.1-1.1c0-0.1,0-0.1,0-0.2c0,0,0-0.1-0.1-0.1c0-0.1-0.1-0.1-0.1-0.2
		c0,0.2,0,0.4,0.1,0.6c0,0.4,0.1,0.7,0.1,1.1c0,0.5,0,1,0,1.5c0,0.4,0,0.7,0.2,1c0.2,0.3,0.4,0.6,0.7,0.9c0.3,0.3,0.5,0.6,0.9,0.9
		c0.6,0.6,1.4,1,2.2,1.1c0.5,0.1,1,0.1,1.4,0c0.5-0.1,0.9-0.2,1.4-0.3c1-0.2,1.9-0.2,2.9-0.3c1-0.1,2-0.1,3-0.2c1,0,2-0.1,3-0.2
		c1-0.1,2-0.1,3-0.3c0.8-0.2,1.5-0.4,2.2-0.7c0,0,0,0,0,0c0.1,0,0.1-0.1,0.2-0.1c0.2-0.1,0.3-0.1,0.5-0.3c0.1-0.1,0.2-0.2,0.2-0.3
		C21.9,15.1,21.6,15.3,21.3,15.5z"/>
	<path class="st7" d="M22.3,7.3c-0.4-0.5-0.9-0.9-1.4-1.2c-0.3-0.2-0.7-0.4-1-0.6c0,0,0,0,0,0c-0.5-0.3-1.1-0.5-1.6-0.7c0,0,0,0,0,0
		c-0.4-0.2-0.8-0.5-1.3-0.5c-0.5-0.2-1-0.3-1.6-0.4c-0.4-0.1-0.9-0.1-1.3-0.1c-0.5,0-1,0.1-1.5,0.2c-1,0.2-1.9,0.6-2.9,1
		C8.7,5.3,7.8,5.5,6.9,5.8C6,6.1,5.1,6.4,4.2,6.8C3.5,7.2,2.7,7.6,2.1,8.1C1.8,8.3,1.5,8.5,1.2,8.8C0.9,9,0.7,9.3,0.5,9.6
		c-0.4,0.9,0.5,1.5,1,2.1c0.3,0.4,0.6,0.7,1,1c0.3,0.3,0.7,0.4,1.1,0.5c0.5,0.1,0.9,0,1.3,0C5.5,13.1,6,13,6.5,12.9
		c2.1-0.4,4.3-0.5,6.5-0.8c2-0.3,4-0.7,6-1.2c0.8-0.2,1.7-0.5,2.5-0.9c0.3-0.2,0.7-0.4,1-0.7c0.2-0.2,0.3-0.4,0.4-0.6
		C22.8,8.2,22.6,7.7,22.3,7.3z M20.9,8.2c-0.1,0.3-0.2,0.5-0.4,0.7c-0.5,0.4-1.1,0.7-1.7,0.9c-1.5,0.6-3.1,0.9-4.8,1
		c-0.8,0.1-1.6,0.2-2.5,0.3c-0.9,0.1-1.8,0.3-2.6,0.4c-0.9,0.1-1.7,0.3-2.6,0.5c-0.4,0.1-0.8,0.3-1.2,0.4c-0.4,0.1-0.8,0.2-1.1,0.2
		c-0.7-0.1-1.2-0.5-1.7-1c-0.2-0.2-0.4-0.5-0.6-0.7c-0.2-0.2-0.5-0.5-0.6-0.9C1,10,1,9.8,1.1,9.7c0-0.2,0.1-0.3,0.3-0.4
		C1.4,9.1,1.6,9,1.7,8.9C1.8,8.8,2,8.7,2.1,8.5C2.7,8.1,3.4,7.6,4,7.3c1.5-0.8,3.1-1.2,4.7-1.7c0.8-0.3,1.6-0.5,2.4-0.9
		c0.8-0.3,1.5-0.6,2.3-0.8c0,0,0,0,0.1,0c0.4-0.1,0.8-0.1,1.3,0c0.4,0.1,0.8,0.3,1.2,0.5c0.4,0.2,0.8,0.4,1.2,0.5
		c0.7,0.3,1.5,0.6,2.2,1c0.3,0.2,0.6,0.4,0.8,0.6c0.3,0.2,0.5,0.5,0.6,0.8C20.9,7.6,21,8,20.9,8.2z"/>
	<path class="st5" d="M2.9,14.8c-0.3,0.3-0.5,0.6-0.7,0.9C2.5,15.5,2.7,15.2,2.9,14.8z"/>
	<path class="st5" d="M5.4,16.7c0.2-0.1,0.4-0.2,0.5-0.4c0.3-0.3,0.5-0.6,0.7-0.9c-0.1,0.1-0.2,0.2-0.2,0.3C6,16,5.7,16.3,5.4,16.7z
		"/>
	<path class="st5" d="M10.4,15.6c0.3-0.2,0.5-0.4,0.8-0.6c0.2-0.2,0.4-0.5,0.7-0.8c0.1-0.1,0.1-0.1,0.2-0.2c-0.7,0.6-1.5,1.3-2.2,2
		C10,15.8,10.2,15.7,10.4,15.6z"/>
	<path class="st5" d="M18.1,13.7c-0.2,0.2-0.5,0.3-0.7,0.5c-0.2,0.1-0.3,0.3-0.4,0.5c0.3-0.2,0.5-0.3,0.8-0.5
		c0.3-0.2,0.5-0.3,0.7-0.6c0.2-0.2,0.4-0.4,0.5-0.7c0.1-0.1,0.2-0.3,0.2-0.4c-0.1,0.2-0.3,0.3-0.4,0.5
		C18.6,13.3,18.4,13.5,18.1,13.7z"/>
	<path class="st5" d="M12.6,16.1c0.2-0.2,0.3-0.3,0.5-0.5c0.1-0.1,0.1-0.2,0.2-0.3c-0.1,0.1-0.1,0.1-0.2,0.2
		C13,15.7,12.8,15.9,12.6,16.1z"/>
	<path class="st5" d="M8.3,15c0.2-0.1,0.4-0.3,0.6-0.5c0.1-0.1,0.3-0.3,0.4-0.4c-0.5,0.4-0.9,0.7-1.4,1.1C8,15.2,8.2,15.1,8.3,15z"
		/>
	<path class="st4" d="M5.7,6.8c0,0.2-0.1,0.3-0.2,0.4C5.4,7.4,5.3,7.5,5.3,7.7C5.2,8,5.1,8.3,5.1,8.6c0,0.3,0,0.6,0,1
		c0,0.3-0.1,0.6-0.1,1c-0.1,0.4-0.1,0.7-0.2,1.1c0,0,0,0,0,0c0.1-0.3,0.1-0.7,0.2-1c0-0.2,0.1-0.3,0.2-0.5c0-0.2,0.1-0.3,0.1-0.5
		c0-0.3,0.1-0.7,0.1-1c0-0.2,0-0.3,0-0.5c0-0.2,0-0.3,0.1-0.5c0-0.2,0.1-0.3,0.2-0.5C5.6,7.1,5.7,7,5.7,6.8C5.7,6.8,5.7,6.8,5.7,6.8
		z"/>
	<path class="st4" d="M2.8,8.3C2.8,8.3,2.8,8.3,2.8,8.3c0,0.2-0.1,0.3-0.2,0.5c0,0.2,0,0.4,0,0.6c0,0.2,0,0.4,0,0.5
		c0,0.2,0,0.4,0,0.5c0,0,0,0,0.1,0c0-0.1,0-0.2,0-0.2c0-0.1,0-0.2,0-0.3c0-0.2,0.1-0.4,0.1-0.6c0-0.2,0-0.4,0-0.5
		C2.8,8.6,2.9,8.5,2.8,8.3z"/>
	<path class="st4" d="M2.9,10.6c0,0,0,0.1,0,0.1c0,0,0,0,0,0.1c0,0,0,0,0,0c0,0,0,0,0,0c0,0,0,0,0,0c0,0,0,0,0,0c0,0,0-0.1,0-0.1
		C2.9,10.7,2.9,10.6,2.9,10.6C2.9,10.6,2.9,10.6,2.9,10.6z"/>
	<path class="st4" d="M4.6,7C4.4,7.2,4.4,7.4,4.4,7.6c0,0.2,0,0.5,0,0.7c0,0.1,0,0.2,0,0.4c0,0.1,0,0.3,0,0.4c0,0.1,0,0.3,0,0.4
		c0,0.1-0.1,0.3-0.1,0.4c0,0,0,0,0,0c0-0.1,0.1-0.3,0.1-0.4c0-0.1,0.1-0.2,0.1-0.4c0-0.3,0.1-0.5,0.1-0.8c0-0.2,0-0.5,0-0.7
		C4.5,7.4,4.5,7.2,4.6,7C4.6,6.9,4.6,6.9,4.6,7z"/>
	<path class="st4" d="M4.3,10.4c0,0.1,0,0.2-0.1,0.3c0,0,0,0,0,0C4.3,10.6,4.3,10.5,4.3,10.4C4.3,10.3,4.3,10.3,4.3,10.4z"/>
	<path class="st4" d="M9.6,5.3C9.5,5.6,9.4,5.8,9.3,6.1C9.2,6.4,9.1,6.7,9.1,6.9c0,0.1-0.1,0.3-0.2,0.4C8.8,7.5,8.7,7.6,8.6,7.7
		C8.5,7.8,8.5,7.9,8.4,8.1C8.3,8.2,8.3,8.4,8.2,8.5C8.1,8.8,8,9.2,8,9.5c0,0,0,0,0.1,0c0.1-0.3,0.2-0.6,0.3-0.9
		c0.1-0.3,0.3-0.6,0.4-0.8c0.2-0.2,0.3-0.5,0.4-0.7c0.1-0.3,0.2-0.5,0.2-0.8C9.4,5.9,9.5,5.6,9.6,5.3C9.7,5.3,9.6,5.3,9.6,5.3z"/>
	<path class="st4" d="M8.2,9.7C8.2,9.7,8.2,9.7,8.2,9.7C8.1,9.8,8.1,9.9,8.1,10c0,0,0,0,0,0c0,0,0,0,0,0C8.1,9.9,8.2,9.8,8.2,9.7
		C8.2,9.7,8.2,9.7,8.2,9.7z"/>
	<path class="st4" d="M12.7,4.2c-0.2,0.4-0.4,0.9-0.6,1.3c-0.2,0.4-0.4,0.8-0.5,1.3c-0.1,0.2-0.1,0.4-0.2,0.6
		C11.3,7.7,11.2,7.8,11,8c-0.2,0.4-0.5,0.8-0.7,1.2c-0.1,0.2-0.2,0.5-0.3,0.7c-0.1,0.2-0.2,0.5-0.3,0.7c0,0,0.1,0,0.1,0
		c0.1-0.2,0.2-0.4,0.3-0.6c0.1-0.2,0.2-0.4,0.3-0.7c0.2-0.4,0.4-0.8,0.7-1.2c0.1-0.2,0.3-0.4,0.4-0.6c0.1-0.2,0.2-0.4,0.2-0.6
		c0.1-0.2,0.1-0.4,0.2-0.6C12,6.2,12.1,6,12.1,5.8C12.3,5.3,12.5,4.7,12.7,4.2C12.8,4.2,12.7,4.2,12.7,4.2z"/>
	<path class="st4" d="M9.7,10.1C9.7,10.1,9.6,10.2,9.7,10.1c-0.1,0.1-0.1,0.1-0.1,0.2c0,0,0,0.1,0,0.1c0,0,0,0.1,0,0.1c0,0,0,0,0,0
		c0,0,0,0,0,0c0,0,0-0.1,0-0.1c0,0,0-0.1,0-0.1C9.6,10.3,9.6,10.2,9.7,10.1C9.7,10.2,9.7,10.2,9.7,10.1z"/>
	<path class="st4" d="M13.7,7.2c-0.1,0.2-0.1,0.3-0.2,0.4c-0.1,0.1-0.1,0.3-0.2,0.4c-0.1,0.3-0.3,0.6-0.4,0.9c0,0,0,0,0.1,0
		c0.2-0.3,0.3-0.6,0.4-0.9C13.6,7.8,13.7,7.5,13.7,7.2C13.7,7.2,13.7,7.2,13.7,7.2z"/>
	<path class="st4" d="M13.2,9.2C13.2,9.2,13.2,9.2,13.2,9.2c0,0.1-0.1,0.1-0.1,0.1c0,0,0,0,0,0c0,0,0,0,0,0c0,0,0,0,0,0c0,0,0,0,0,0
		c0,0,0,0,0,0c0,0,0-0.1,0-0.1C13.2,9.3,13.2,9.2,13.2,9.2C13.3,9.2,13.3,9.2,13.2,9.2z"/>
	<path class="st4" d="M13.3,5.3c-0.1,0.4-0.2,0.7-0.3,1c-0.1,0.3-0.3,0.7-0.4,1c-0.2,0.3-0.3,0.6-0.5,1c-0.1,0.3-0.2,0.7-0.3,1
		c0,0.2-0.1,0.4-0.2,0.6c-0.1,0.2-0.2,0.3-0.2,0.5c0,0,0,0,0,0c0.1-0.3,0.3-0.6,0.4-1c0.1-0.4,0.2-0.7,0.4-1.1
		c0.3-0.7,0.6-1.3,0.9-1.9C13.2,6,13.3,5.6,13.3,5.3C13.4,5.2,13.3,5.2,13.3,5.3z"/>
	<path class="st4" d="M11.6,10.6C11.6,10.6,11.6,10.6,11.6,10.6c0,0-0.1,0.1-0.1,0.1c0,0,0,0,0,0c0,0,0,0,0,0c0,0,0,0,0,0
		C11.6,10.7,11.6,10.7,11.6,10.6C11.6,10.7,11.6,10.7,11.6,10.6C11.6,10.7,11.6,10.7,11.6,10.6C11.6,10.7,11.6,10.7,11.6,10.6
		C11.6,10.7,11.6,10.7,11.6,10.6C11.6,10.7,11.6,10.7,11.6,10.6C11.6,10.6,11.6,10.6,11.6,10.6C11.6,10.6,11.6,10.6,11.6,10.6
		C11.6,10.6,11.6,10.6,11.6,10.6C11.6,10.6,11.6,10.6,11.6,10.6C11.6,10.6,11.6,10.6,11.6,10.6C11.6,10.6,11.6,10.6,11.6,10.6z"/>
	<path class="st4" d="M17.3,7.4c0-0.3-0.1-0.5,0-0.8c0-0.3,0-0.5,0.1-0.7c0-0.3,0.1-0.6,0.2-0.9c0,0,0,0,0,0c-0.1,0.5-0.3,1-0.3,1.5
		c0,0.3,0,0.5,0,0.8c0,0.3,0,0.5,0.1,0.8c0,0.3,0,0.6,0.1,0.9c0,0,0.1,0,0.1,0c0-0.3,0-0.5-0.1-0.8C17.4,7.9,17.3,7.7,17.3,7.4z"/>
	<path class="st4" d="M15.5,7.1c0,0.2-0.1,0.4-0.2,0.6c-0.1,0.2-0.1,0.4-0.1,0.6c0,0,0,0,0,0c0-0.2,0.1-0.4,0.1-0.6
		C15.4,7.5,15.5,7.3,15.5,7.1C15.5,7.1,15.5,7.1,15.5,7.1z"/>
	<path class="st4" d="M18.5,5.1C18.5,5.1,18.5,5.1,18.5,5.1c-0.1,0.5-0.4,1-0.4,1.5c0,0.3,0.1,0.5,0.1,0.8c0,0.2-0.1,0.5-0.1,0.7
		c0,0,0,0,0.1,0c0-0.3,0.1-0.5,0.1-0.8c0-0.3,0-0.5,0-0.8C18.3,6.1,18.4,5.6,18.5,5.1z"/>
	<path class="st4" d="M18.5,7.8C18.4,7.8,18.4,7.8,18.5,7.8c-0.1,0.2-0.1,0.4-0.1,0.5c0,0,0,0,0.1,0C18.4,8.2,18.4,8,18.5,7.8
		C18.5,7.8,18.5,7.8,18.5,7.8z"/>
	<path class="st4" d="M21.4,6.4c-0.2,0.3-0.3,0.7-0.4,1.1c-0.1,0.2-0.2,0.3-0.3,0.5c-0.1,0.2-0.2,0.3-0.2,0.5c0,0.1,0.1,0,0.1,0
		c0.1-0.2,0.1-0.4,0.2-0.5c0.1-0.2,0.2-0.3,0.2-0.5C21.2,7.1,21.2,6.7,21.4,6.4C21.4,6.4,21.4,6.4,21.4,6.4z"/>
	<path class="st4" d="M20.7,6.9C20.7,6.9,20.7,7,20.7,6.9c-0.1,0.1-0.1,0.2-0.2,0.3c0,0.1-0.1,0.2-0.1,0.3c0,0,0,0,0.1,0
		C20.6,7.4,20.6,7.2,20.7,6.9C20.7,7,20.7,6.9,20.7,6.9z"/>
</g>
</svg>
