<?xml version="1.0" encoding="utf-8"?>
<!-- Generator: Adobe Illustrator 22.0.0, SVG Export Plug-In . SVG Version: 6.00 Build 0)  -->
<svg version="1.1" id="Layer_1" xmlns="http://www.w3.org/2000/svg" xmlns:xlink="http://www.w3.org/1999/xlink" x="0px" y="0px"
	 viewBox="0 0 19 29" style="enable-background:new 0 0 19 29;" xml:space="preserve">
<style type="text/css">
	.st0{fill:#FEFEFE;}
	.st1{fill:#F7F3E7;}
	.st2{fill:#0D59A4;}
	.st3{fill:#0E59A4;}
	.st4{fill:#074690;}
	.st5{fill:#094690;}
	.st6{fill:#D7E3E6;}
	.st7{fill:#FDFDF7;}
	.st8{fill:#F6F9F6;}
	.st9{fill:#F6FEFE;}
	.st10{fill:#F1F8F4;}
	.st11{fill:#E1E9EC;}
	.st12{fill:#FCFEFA;}
	.st13{fill:#FDFCFE;}
	.st14{fill:#FCFEEF;}
	.st15{fill:#FAFEFD;}
	.st16{fill:#04478C;}
	.st17{fill:#3161A6;}
	.st18{fill:#3D75A5;}
	.st19{fill:#F4F2E6;}
	.st20{fill:#F6F7F8;}
	.st21{fill:#FEFEF4;}
	.st22{fill:#F4F9F5;}
	.st23{fill:#D0DAE5;}
	.st24{fill:#F5F3E7;}
	.st25{fill:#F7FEFE;}
	.st26{fill:#FDFDF9;}
	.st27{fill:#154D95;}
	.st28{fill:#08509B;}
	.st29{fill:#F9FEF4;}
	.st30{fill:#134797;}
	.st31{fill:#0D4583;}
	.st32{fill:#0A488F;}
	.st33{fill:#226599;}
	.st34{fill:#024B8D;}
	.st35{fill:#FEFBFE;}
	.st36{fill:#457CB2;}
	.st37{fill:#F9FEFD;}
	.st38{fill:#2C598F;}
	.st39{fill:#E2E9EA;}
	.st40{fill:#F7FEF4;}
	.st41{fill:#E2EBED;}
	.st42{fill:#FCFEF6;}
	.st43{fill:#FCFEF2;}
	.st44{fill:#F3FEF5;}
	.st45{fill:#FEFEF5;}
	.st46{fill:#EFE8D3;}
	.st47{fill:#0F5AA4;}
	.st48{fill:#1359A0;}
	.st49{fill:#EAE6D4;}
	.st50{fill:#175DA0;}
	.st51{fill:#DDE4AE;}
	.st52{fill:#ECE8CF;}
	.st53{fill:#F6EEE0;}
	.st54{fill:#135CA4;}
	.st55{fill:#0A5D96;}
	.st56{fill:#0F599D;}
	.st57{fill:#F9F3E0;}
	.st58{fill:#EEEFE2;}
	.st59{fill:#F2F7E3;}
	.st60{fill:#E0E5DE;}
	.st61{fill:#EFF5F0;}
	.st62{fill:#FCF2DF;}
	.st63{fill:#FDEFED;}
	.st64{fill:#F2F4ED;}
	.st65{fill:#F8F1EE;}
	.st66{fill:#F7F7D5;}
	.st67{fill:#F0F9DE;}
	.st68{fill:#F2F5EF;}
	.st69{fill:#F8F2E8;}
	.st70{fill:#F6F5E0;}
	.st71{fill:#E4F4FA;}
	.st72{fill:#DFF1FB;}
	.st73{fill:#B0DBF4;}
	.st74{fill:#084A94;}
	.st75{fill:#155698;}
	.st76{fill:#085BA9;}
	.st77{fill:#14579C;}
	.st78{fill:#CAE9FB;}
	.st79{fill:#094590;}
	.st80{fill:#084793;}
	.st81{fill:#A9D7FD;}
	.st82{fill:#1471BB;}
	.st83{fill:#1671BC;}
	.st84{fill:#1570B8;}
	.st85{fill:#115D9D;}
	.st86{fill:#0E4292;}
	.st87{fill:#0C468A;}
	.st88{fill:#054594;}
	.st89{fill:#0A448B;}
	.st90{fill:#034791;}
	.st91{fill:#064789;}
	.st92{fill:#0B4196;}
	.st93{fill:#034594;}
	.st94{fill:#145CA8;}
	.st95{fill:#1266AF;}
	.st96{fill:#9CCFF4;}
	.st97{fill:#0A4690;}
	.st98{fill:#09458E;}
	.st99{fill:#3C6B9D;}
	.st100{fill:#104787;}
	.st101{fill:#0D4988;}
	.st102{fill:#0B4786;}
	.st103{fill:#154F94;}
	.st104{fill:#104587;}
	.st105{fill:#FEFEF3;}
	.st106{fill:#FEF8FE;}
	.st107{fill:#0F558D;}
	.st108{fill:#055DA1;}
	.st109{fill:#1B6098;}
	.st110{fill:#326D9F;}
	.st111{fill:#3A76B2;}
	.st112{fill:#1259A0;}
	.st113{fill:#12599B;}
	.st114{fill:#0659AA;}
	.st115{fill:#EFE8CD;}
	.st116{fill:#EAE4D2;}
	.st117{fill:#D5D4CF;}
	.st118{fill:#F5F2E6;}
	.st119{fill:#084691;}
	.st120{fill:#064793;}
	.st121{fill:#D5E1E3;}
	.st122{fill:#DEDFDC;}
	.st123{fill:#0F599B;}
	.st124{fill:#1157A0;}
	.st125{fill:#0B57AE;}
	.st126{fill:#0D5CA6;}
	.st127{fill:#055BA7;}
	.st128{fill:#115997;}
	.st129{fill:#145CA2;}
	.st130{fill:#055BA8;}
	.st131{fill:#0C4791;}
	.st132{fill:#095B9E;}
	.st133{fill:#1355A7;}
	.st134{fill:#ECE9DD;}
	.st135{fill:#E9EEC6;}
	.st136{fill:#EEF3F9;}
	.st137{fill:#0958AB;}
	.st138{fill:#6B99B7;}
	.st139{fill:#045CAB;}
	.st140{fill:#1960A3;}
	.st141{fill:#DFF0F8;}
	.st142{fill:#CEE9F8;}
	.st143{fill:#C8EBFE;}
	.st144{fill:#063672;}
	.st145{fill:#05346A;}
	.st146{fill:#033871;}
	.st147{fill:#031B3E;}
	.st148{fill:#105497;}
	.st149{fill:#165A9F;}
	.st150{fill:#E1DED2;}
	.st151{fill:#0A58AD;}
	.st152{fill:#84A3C0;}
	.st153{fill:#0A4496;}
	.st154{fill:#054486;}
	.st155{fill:#05427B;}
	.st156{fill:#0759AC;}
	.st157{fill:#F0F0E2;}
	.st158{fill:#F7F0F0;}
	.st159{fill:#ECECCE;}
	.st160{fill:#084987;}
	.st161{fill:#0858AA;}
	.st162{fill:#0D579E;}
	.st163{fill:#023E77;}
	.st164{fill:#0959A9;}
</style>
<g>
	<g>
		<path class="st0" d="M0.1,0.1c6.2,0,12.4,0,18.6,0c0.4,0,0.5,0.1,0.5,0.4c0,9.4,0,18.8,0,28.3c0,0.3-0.1,0.4-0.5,0.4
			c-6,0-12,0-18,0c-0.4,0-0.5-0.1-0.5-0.4C0.1,19.2,0.1,9.6,0.1,0.1z"/>
		<path class="st1" d="M15.8,22.2c0.1,0.1-0.1,0.3,0,0.4c-0.1,0.8-0.1,1.7,0,2.5c0,0.7,0,1.4,0,2.1c-0.1,0.1,0,0.4-0.3,0.4
			c-0.2-0.2-0.5-0.2-0.8,0c0,0-0.1,0.1-0.1,0.1c-0.1,0-0.1,0.1-0.2,0.1c-0.4,0.1-0.8,0.1-1.2,0c-0.6-0.1-1.3,0-1.9-0.1
			c-0.3,0-0.6,0-0.9-0.1c-0.6-0.4-1.1-1-1.5-1.5c-0.1-0.1-0.3-0.3-0.1-0.5c0,0,0.1-0.1,0.2-0.1c0.4-0.1,0.8-0.1,1.3,0
			C9.8,25.1,9.4,25,9,24.9c-0.2-0.1-0.5-0.1-0.7-0.2c-0.1-0.1-0.2-0.3-0.2-0.5c0-0.2,0-0.3,0.2-0.4c0.1,0,0.1,0,0.2,0
			c0.1,0,0.1,0,0.2,0.1c0.1,0.1,0.2,0.1,0.4,0c0,0,0.1-0.1,0.1-0.1c0-0.1,0-0.1,0-0.2c0,0,0.1-0.1,0.1-0.1c0.5,0,0.9,0.1,1.2,0.4
			c-0.1,0.1-0.1,0.2-0.1,0.3c0-0.1,0-0.2,0-0.2c0.3-0.2,0.5,0.1,0.7,0.2c0.2,0.1,0.5,0.3,0.8,0.3c0.2-0.2,0-0.3-0.1-0.4
			c-0.4-0.4-0.8-0.8-1.3-1.1c-0.1,0-0.1,0-0.1-0.1c-0.3-0.2-0.7-0.1-0.9-0.3c-0.2-0.1-0.4-0.2-0.6-0.3c-0.2-0.2-0.4-0.3-0.6-0.5
			c0,0,0-0.1-0.1-0.1c0-0.2,0-0.4,0-0.6c0.1-0.2,0.3-0.4,0.6-0.4c0.3,0,0.6,0,0.9,0c0.9,0.1,1.6,0.3,2.3,0.8
			c0.2,0.3,0.4,0.5,0.7,0.7c0.3,0.3,0.7,0.7,1,1c0.1,0.1,0.2,0.2,0.3,0.3c0.1,0.2,0.3,0.3,0.5,0.5c0.1,0.1,0.2,0.2,0.3,0.4
			c0,0.1-0.1,0.3,0.2,0.2c0.2,0,0.3-0.1,0.3-0.3c0-0.1-0.1-0.2-0.2-0.3c-0.1-0.1-0.2-0.2-0.2-0.3c0-0.1,0-0.2,0.1-0.4c0.1,0,0,0,0,0
			c0,0,0.1,0,0.2-0.1c-0.1,0-0.1,0-0.2,0.1c-0.2,0-0.3,0-0.4-0.1c-0.1-0.1-0.2-0.2-0.2-0.3c0-0.1,0-0.3,0-0.4c0-0.2,0.1-0.3,0.3-0.4
			C14.8,22,15,22,15.2,22C15.4,22.1,15.7,22.1,15.8,22.2z"/>
		<path class="st2" d="M13,2.4c0.8,0.3,1,0.5,0.9,1.3c0,0.2,0,0.4,0,0.7c-0.2,0.1-0.3,0.1-0.5,0c0-0.2-0.2-0.2-0.4-0.2
			c-0.3,0-0.5,0-0.8,0c-0.1,0-0.1,0-0.2,0c-0.2-0.1-0.3-0.2-0.4-0.4c-0.3-0.2-0.6-0.3-1-0.2c-0.3,0.1-0.7,0-1,0.1
			c-0.1,0-0.3,0.1-0.4,0.1C9,3.9,8.8,4,8.6,4c-1.2,0-1.9-0.4-2.5-1.6c0.1,0,0.1-0.1,0.2-0.1c0.5-0.1,1.1-0.3,1.7-0.2
			c1.3,0,2.5,0,3.8,0C12.1,2.1,12.6,2.2,13,2.4z"/>
		<path class="st3" d="M15.3,6.1c0,0.1,0.2,0.3,0,0.4c-0.1,0.1-0.1,0.1-0.2,0.1c-0.2,0-0.5,0-0.7,0c-0.9-0.2-1.7-0.1-2.6-0.1
			c-1.4,0-2.7,0-4.1,0c-0.1,0-0.3,0-0.4,0C7.1,6.4,7.1,6.3,7,6.1C6.8,5.9,6.7,5.6,6.5,5.4C6.4,5.1,6.5,4.9,6.8,4.8
			c0.5-0.2,1-0.3,1.6-0.1c0,0,0.1,0.1,0.1,0.1c0.1,0.2,0.1,0.5,0.3,0.7C9.6,6.1,11.4,6,12,5.4c0.2-0.3,0-0.6,0.2-0.9
			c0.6-0.3,1.2-0.1,1.8-0.1C14.6,4.9,15.1,5.4,15.3,6.1z"/>
		<path class="st4" d="M15.1,6.5c0.1,0,0.2,0,0.3,0c0,0,0.1,0,0.1,0l0,0c0.2,0.7,0.1,1.3,0.1,2c-0.1,0.6,0,1.2-0.1,1.8
			c-0.2,0.4,0,0.8-0.1,1.2c0.1-0.3,0-0.7,0.1-1.1c0.1,0,0.1,0,0.2,0c0,0.8,0,1.6,0,2.4c-0.1,0.4,0,0.8-0.1,1.3
			c-0.1,0.2,0,0.4-0.1,0.7c-0.1,0.1,0,0.3,0,0.4c0,0.1,0.1,0,0.1,0.1c0,0-0.1,0-0.1,0c0-0.1-0.1-0.3,0.1-0.4c0.1,0,0.1,0,0.1,0.1
			c0,0.7,0,1.4,0,2c0,0.5,0,1,0,1.5c0,0.1,0,0.1-0.1,0.2c-0.1,0-0.1-0.1-0.1-0.1c0-0.7,0-1.4,0-2.1c0,0.7,0,1.5,0,2.2
			c0.2,0.6,0,1.2,0.1,1.8c0,0.1,0,0.1,0,0.2c0,0.3,0.1,0.5,0,0.8c0,0.2-0.1,0.4-0.3,0.5c-0.2,0-0.3,0-0.4-0.1
			c-0.1-0.1-0.1-0.2-0.1-0.3c0-1.4-0.1-2.9,0.1-4.3c0-0.3,0-0.6,0-0.9c0-2.9,0-5.9,0-8.8C14.9,7.1,14.8,6.8,15.1,6.5z"/>
		<path class="st5" d="M6.1,2.5c0.2,0,0.3,0.1,0.3,0.3c0.4,0.8,1.2,1.2,2.3,1.2c0,0.1,0,0.1,0,0.2C8.5,4.2,8.5,4.2,8.4,4.2
			c-0.5,0.1-0.9,0-1.4,0c-0.3,0-0.5,0-0.8,0c-0.4,0-0.8,0-1-0.4c0-0.4-0.3-0.9,0.3-1.2C5.7,2.6,5.8,2.5,6.1,2.5z"/>
		<path class="st6" d="M3.7,25.9c0-0.2,0-0.3,0-0.5c-0.1-1.1-0.1-2.1,0-3.2c0-2,0-4.1,0-6.1c-0.2-0.2-0.2-0.4-0.2-0.6
			c0-1.7-0.1-3.3,0-5c0.1-1,0-2.1,0.1-3.1c0-0.1,0-0.2,0-0.3c0-0.2,0.1-0.1,0.2,0c0.2,0.7,0,1.4,0.1,2.1c0,0.3,0,0.5,0,0.8
			c0,0.8,0,1.6,0,2.5c0,0.8,0,1.7,0,2.5c0,1,0,2,0,3c0,0.9,0,1.7,0,2.6c0,1.3,0,2.7,0,4c-0.1,0.5,0.1,1-0.1,1.4
			C3.8,25.9,3.8,25.9,3.7,25.9z"/>
		<path class="st7" d="M14.6,28.2c0,0,0,0.1,0,0.1c-0.5,0.1-1,0.1-1.5,0.1c-1,0-2,0-3,0c-0.3,0-0.5,0.1-0.8,0h0
			c-0.3-0.1-0.5-0.1-0.8,0c-0.2,0-0.5,0.1-0.7-0.1c0-0.1,0-0.1,0-0.2c0.4-0.3,0.9,0.1,1.3,0c-0.1-0.1-0.5,0.2-0.5-0.2
			c0.4-0.1,0.9-0.1,1.3-0.1c1.3,0,2.6-0.1,3.8,0.1c0.1,0.1,0.1,0.1,0,0.2c-0.2,0.1-0.4,0-0.5,0C13.7,28.2,14.1,27.9,14.6,28.2z"/>
		<path class="st8" d="M3.7,7.4c0,2.9,0,5.8,0,8.7c0,0-0.1,0-0.1,0c-0.1-0.1-0.1-0.3-0.1-0.5c0-1.7,0-3.5,0-5.2c0-0.2,0-0.3,0.1-0.5
			c0-0.7,0-1.3,0-2C3.6,7.7,3.5,7.5,3.7,7.4z"/>
		<path class="st9" d="M7,2.2c0,0,0-0.1,0-0.1c0.2-0.1,0.5,0,0.8-0.1l0,0c1.3-0.1,2.5-0.1,3.8,0c0.3,0,0.5-0.1,0.8,0.1
			c0,0.1,0,0.1-0.1,0.1C10.4,2.2,8.7,2.3,7,2.2z"/>
		<path class="st10" d="M7,2.2c1.6,0,3.1,0,4.7,0c0.2,0,0.5,0.1,0.7-0.1C12.6,2.1,13,2,13,2.4c-2.3-0.2-4.6-0.2-6.8,0
			C6.4,2.1,6.7,2.1,7,2.2z"/>
		<path class="st11" d="M13.8,28c-1.8,0-3.5,0-5.3,0c-0.4,0.1-0.9,0.3-1.3-0.1c0.2-0.2,0.4-0.2,0.6-0.2c0.2,0,0.5,0,0.7,0
			c0.4,0,0.8,0,1.2,0c1.1,0,2.2,0,3.3,0c0.3,0,0.6,0,0.9,0c0.2,0,0.5,0,0.7,0c0.3,0,0.5,0,0.8,0.2c-0.2,0.2-0.5,0.1-0.8,0.1
			C14.3,28.1,14.1,28.1,13.8,28z"/>
		<path class="st8" d="M3.8,6.9C3.8,7,3.7,7,3.7,7c-0.3-0.2-0.1-0.4,0-0.6c0.3-0.6,1-1.1,1-1.9c0-0.2,0.2-0.1,0.3-0.1
			c0,0,0,0,0.1,0.1c0.1,0.2,0,0.3-0.1,0.5C4.9,5.4,4.6,5.7,4.5,6C4.4,6.2,4.3,6.3,4.3,6.4C4.2,6.5,4.1,6.7,4.1,6.8
			C4,6.8,4,6.9,4,6.9C3.9,6.9,3.9,6.9,3.8,6.9z"/>
		<path class="st12" d="M15.3,6.1C14.9,5.6,14.5,5,14,4.5c0,0,0,0,0-0.1c0,0,0,0,0,0c0.1,0,0.2,0,0.3-0.1c0.1-0.1,0-0.2,0.1-0.2
			c0.2,0.1,0.1,0.3,0.1,0.5c0,0.2,0.1,0.4,0.4,0.4c0.3,0,0.4,0.1,0.3,0.3C15.2,5.5,15.3,5.8,15.3,6.1z"/>
		<path class="st13" d="M3.5,9.8c0,2.1,0,4.1,0,6.2c0,0-0.1,0-0.1,0c-0.1-0.2-0.1-0.3-0.1-0.5c0-1.7,0-3.5,0-5.2
			c0-0.2-0.1-0.3,0.1-0.5C3.5,9.8,3.5,9.8,3.5,9.8z"/>
		<path class="st14" d="M3.4,9.8c0,2.1,0,4.1,0,6.2c-0.2-0.1-0.1-0.3-0.1-0.4c0-1.8,0-3.6,0-5.4C3.3,10.1,3.2,10,3.4,9.8z"/>
		<path class="st15" d="M13,28.3c0.5,0,1,0,1.5,0c-0.4,0.2-0.8,0.2-1.1,0.2c-1.3,0-2.6,0-3.8,0c-0.1,0-0.3,0-0.3-0.1
			c0.3,0,0.5,0,0.8,0c0.8-0.1,1.5,0,2.3-0.1C12.6,28.3,12.8,28.4,13,28.3z"/>
		<path class="st16" d="M15.3,21.8c0.3-0.4,0.1-0.9,0.1-1.4c0,0,0.1-0.1,0.1-0.1c0.1,0,0.1,0,0.1,0.1c0,0.5,0.1,1.1,0.1,1.6
			C15.5,22.1,15.4,22,15.3,21.8z"/>
		<path class="st17" d="M15.6,12.9c0-0.8,0-1.7,0-2.5c0,0,0-0.1,0-0.1c0.1,0,0.1,0,0.1,0c0,1.4,0,2.7,0,4.1c-0.1,0-0.1,0-0.2-0.1
			C15.5,13.9,15.5,13.4,15.6,12.9z"/>
		<path class="st18" d="M7,27.8c-0.1,0-0.2-0.1-0.2-0.1c0-0.1,0.1-0.2,0.2-0.2c0.5-0.1,1,0,1.5-0.1c1,0,2,0,3,0.1
			c0.1,0,0.1,0,0.2,0.1c0,0.1,0,0.1-0.1,0.2c-0.3,0.1-0.5,0-0.8,0c-1.2,0-2.4,0-3.6,0C7,27.8,7,27.8,7,27.8z"/>
		<path class="st8" d="M5.5,2.7C5.2,3.1,5.2,3.5,5.3,3.9c0.1,0.1,0.1,0.2,0.1,0.4C5.4,4.4,5.3,4.6,5.1,4.6c0,0,0,0,0,0
			c0-0.5,0-1.1,0-1.6C5.1,2.6,5.2,2.6,5.5,2.7z"/>
		<path class="st19" d="M15.3,21.8c0.2,0.1,0.3,0.2,0.5,0.2c0,0,0,0.1,0,0.1c-0.2,0-0.3,0.1-0.5,0c-0.2-0.1-0.5,0-0.7,0
			c-0.1,0-0.3,0.2-0.4,0c0.1-0.4,0.3-0.5,0.8-0.4C15.1,21.8,15.2,21.8,15.3,21.8z"/>
		<path class="st20" d="M3.7,22.2c0,1.1,0,2.1,0,3.2c-0.2-0.2-0.1-0.4-0.1-0.6C3.6,23.9,3.4,23,3.7,22.2z"/>
		<path class="st20" d="M3.7,25.9c0,0,0.1,0,0.1,0C4,26.1,3.9,26.3,4,26.5c0.1,0.1,0.2,0.2,0.3,0.3c0.1,0.1,0.1,0.2,0.1,0.3
			c-0.5,0.1-0.6-0.3-0.9-0.5c-0.1-0.2-0.1-0.5,0-0.7C3.6,25.9,3.6,25.9,3.7,25.9z"/>
		<path class="st21" d="M11.5,2C10.3,2,9,2,7.7,2c0.7-0.2,1.4-0.1,2.1-0.1C10.4,1.9,11,1.7,11.5,2z"/>
		<path class="st22" d="M7.2,27.9c0.4,0.2,0.9,0.1,1.3,0.1c0.2,0.2,0.4,0,0.8,0.2c-0.6,0-1.1,0-1.6,0c-0.3,0.2-0.5,0-0.8,0
			c0-0.1,0.1-0.2,0.1-0.3C7.1,27.8,7.2,27.8,7.2,27.9z"/>
		<path class="st23" d="M15.7,10.4C15.7,10.4,15.6,10.3,15.7,10.4c-0.4-0.4-0.2-0.8-0.2-1.2c0-0.1,0-0.2,0-0.3
			c0.1-0.4,0-0.8,0.1-1.3c0-0.1,0.1-0.1,0.2,0C15.7,8.5,15.7,9.4,15.7,10.4z"/>
		<path class="st24" d="M15.8,25.1c-0.2-0.8-0.2-1.7,0-2.5C15.8,23.4,15.8,24.2,15.8,25.1z"/>
		<path class="st25" d="M15.8,10.5c0-0.8,0-1.6,0-2.4c0,0,0.1,0,0.1,0c0,0.4,0,0.7,0,1.1c0.1,0.4,0,0.8,0.1,1.2
			C16,10.5,15.9,10.5,15.8,10.5z"/>
		<path class="st26" d="M16,10.5c0-0.4,0-0.8,0-1.2c0.2,0.8,0.2,1.7,0,2.5C15.9,11.3,15.9,10.9,16,10.5z"/>
		<path class="st27" d="M15.6,14.5c0,0,0.1,0,0.1,0c0,0.8,0,1.7,0,2.5c0,0-0.1,0-0.1,0c0-0.7,0-1.4,0-2.2
			C15.5,14.7,15.5,14.6,15.6,14.5z"/>
		<path class="st27" d="M15.6,7.6c0,0.4,0,0.9,0,1.3c-0.3,0-0.2-0.2-0.1-0.3c0-0.7,0-1.4,0-2.1c0,0.1,0.1,0.1,0.1,0.2
			C15.7,7,15.7,7.3,15.6,7.6z"/>
		<path class="st28" d="M14.1,4.4c0,0,0,0.1,0,0.1c-0.6,0-1.2,0.1-1.8,0.1c-0.1-0.5,0.4-0.3,0.6-0.3c0.2,0,0.3,0,0.5,0
			C13.6,4.4,13.8,4.3,14.1,4.4C14,4.3,14,4.3,14.1,4.4z"/>
		<path class="st29" d="M3.5,25.9c0,0.2,0,0.5,0,0.7c-0.2-0.6-0.3-1.2-0.4-1.8C3.4,25.1,3.3,25.5,3.5,25.9z"/>
		<path class="st22" d="M13.8,28c0.3,0,0.5,0,0.8,0c-0.1,0.1,0.4,0.1,0,0.2c-0.5,0-0.9,0-1.4,0C13.4,28,13.7,28.2,13.8,28z"/>
		<path class="st30" d="M4.3,26.8c-0.1-0.1-0.3-0.1-0.4-0.2c0,0,0,0,0-0.1c0,0,0,0,0,0c0,0,0.1,0,0.1-0.1c0.1,0,0.1,0,0.2,0
			c0.1,0,0.2,0.1,0.3,0.1c0.1,0,0.3,0.1,0.4,0.2c0.1,0,0.2,0.1,0.2,0.2c0,0.1-0.1,0.2-0.2,0.2c-0.1,0-0.2,0-0.3-0.1
			C4.5,27,4.4,27,4.3,26.8z"/>
		<path class="st31" d="M15.7,20.4c0,0-0.1,0-0.1,0c-0.2-0.6-0.2-1.2,0-1.9l0,0c0,0,0.1,0,0.1,0C15.8,19.2,15.8,19.8,15.7,20.4z"/>
		<path class="st32" d="M15.7,18.5c0,0-0.1,0-0.1,0c0-0.5,0-1,0-1.6c0,0,0.1,0,0.1,0C15.7,17.5,15.7,18,15.7,18.5z"/>
		<path class="st24" d="M15.5,27.4c0.3,0,0.2-0.2,0.4-0.3c-0.1,0.2,0.2,0.5-0.1,0.6c-0.1,0-0.2,0.1-0.4,0c0,0-0.1-0.1-0.1-0.1
			c0,0,0-0.1,0-0.1c0,0,0,0,0-0.1c0,0,0,0,0.1-0.1C15.4,27.4,15.4,27.4,15.5,27.4z"/>
		<path class="st33" d="M6.8,27.6c0,0-0.1,0.1-0.1,0.1c-0.3-0.1-0.6,0.1-0.7-0.2c0.1-0.1,0.2-0.1,0.3-0.2c0.2,0,0.3,0,0.5,0.1
			C6.8,27.4,6.8,27.5,6.8,27.6z"/>
		<path class="st34" d="M4.9,27.1C5,27,5,26.9,5.1,26.9c0.3-0.1,0.5,0,0.6,0.2c0,0.1-0.1,0.1-0.2,0.2c-0.1,0-0.3,0-0.4-0.1
			C5.1,27.2,5,27.1,4.9,27.1z"/>
		<path class="st35" d="M16,10.5c0,0.4,0,0.8,0,1.2c-0.3-0.4-0.1-0.8-0.1-1.2C15.9,10.5,15.9,10.5,16,10.5z"/>
		<path class="st36" d="M15.4,27.8c0.1,0,0.2-0.1,0.3,0c-0.1,0.1-0.2,0.1-0.4,0.1c-0.3,0-0.5,0-0.8,0c0-0.1,0-0.1,0.1-0.2
			C14.9,27.6,15.1,27.6,15.4,27.8z"/>
		<path class="st37" d="M7,28.2c0.3-0.2,0.5,0,0.8,0c0,0,0,0.1,0,0.1c0,0,0,0,0,0.1c0,0,0,0,0,0.1C7.5,28.3,7.2,28.3,7,28.2z"/>
		<path class="st38" d="M5.5,27.3c0.1,0,0.1-0.1,0.2-0.1c0.2-0.1,0.4,0,0.5,0.1c0,0.1,0,0.1,0,0.1c-0.1,0.1-0.1,0.1-0.2,0.1
			c0,0-0.1,0-0.1,0C5.8,27.4,5.5,27.4,5.5,27.3z"/>
		<path class="st39" d="M15.6,7.6c0-0.3,0-0.6,0-0.8c0.3,0.3,0.1,0.6,0.1,0.8C15.7,7.6,15.6,7.6,15.6,7.6z"/>
		<path class="st18" d="M7.2,27.9c0,0-0.1,0-0.1,0c0,0-0.1-0.1-0.1-0.1c0,0,0,0,0.1,0c0.3,0,0.5,0,0.8,0c0.1,0,0.1,0.1,0,0.1
			C7.6,27.9,7.4,27.9,7.2,27.9z"/>
		<path class="st40" d="M14.4,4c0,0.1,0,0.2-0.1,0.2c0-0.2,0-0.3,0-0.5C14.5,3.8,14.4,3.9,14.4,4z"/>
		<path class="st41" d="M5.5,27.3c0.1,0.1,0.2,0.1,0.3,0.2c-0.3,0-0.5,0-0.6-0.2C5.3,27.2,5.4,27.2,5.5,27.3z"/>
		<path class="st42" d="M16,6.7c0,0.2,0,0.3,0,0.5C15.8,7.1,15.8,6.9,16,6.7L16,6.7z"/>
		<path class="st43" d="M3.3,6.8c0.1,0.2,0.1,0.3,0,0.5C3.3,7.1,3.3,7,3.3,6.8z"/>
		<path class="st44" d="M7.7,2C7.5,2.2,7.2,2,7,2.1C7.2,1.9,7.5,2,7.7,2z"/>
		<path class="st45" d="M16,6.7c0-0.2,0-0.3,0-0.5C16.1,6.4,16.1,6.6,16,6.7C16,6.7,16,6.7,16,6.7z"/>
		<path class="st15" d="M8.5,28.3c0.3,0,0.5-0.1,0.8,0.1c-0.3,0-0.5,0-0.8,0C8.5,28.4,8.5,28.3,8.5,28.3C8.5,28.3,8.5,28.3,8.5,28.3
			z"/>
		<path class="st15" d="M8.5,28.4c-0.3,0.2-0.5,0.2-0.8,0h0C8,28.3,8.2,28.3,8.5,28.4L8.5,28.4z"/>
		<path class="st41" d="M4.3,26.8c0.1,0,0.3,0,0.4,0.2c-0.1,0-0.2,0.1-0.3,0.1C4.4,27,4.3,26.9,4.3,26.8z"/>
		<path class="st2" d="M14.9,21.7c-0.3,0.1-0.6,0.1-0.8,0.4c0.1,0.2,0.1,0.3,0,0.5c0,0.1-0.2,0-0.1,0.1c0,0,0.1,0,0.1,0
			c0.1,0,0.1,0.1,0.1,0.1c0.1,0.1,0.1,0.3,0.3,0.4c0.1,0.1,0.1,0.1,0.2,0.2c0,0,0,0.1,0,0.1c-0.1,0.1-0.1,0.2-0.2,0.4
			c-0.1,0.1-0.2,0.1-0.3,0.1c-0.2-0.1-0.4-0.3-0.5-0.5c-0.1-0.1-0.1-0.3-0.3-0.3c-0.3-0.3-0.7-0.7-1-1c-0.1-0.1-0.1-0.1-0.1-0.2
			c0,0,0.1-0.1,0.1-0.1c0-0.1-0.1,0-0.2,0c-0.2,0-0.3-0.2-0.5-0.4c-0.6-0.4-1.3-0.7-2.1-0.8c-0.4,0-0.7-0.1-1.1,0
			c-0.3,0-0.3,0.2-0.5,0.3c0,0-0.1,0-0.1,0C8,21,8,21,8,20.9c0,0,0,0,0,0.1c0,0.1,0,0.2,0,0.3c-0.1,0.1-0.1,0.3-0.3,0.3
			c-0.1,0-0.1-0.1-0.1-0.1c-0.2-1.1-0.3-2.1-0.3-3.2c0-0.8-0.2-1.5-0.1-2.3c0-2.5,0-4.9,0-7.4c0-0.5,0-0.9,0-1.4
			c0-0.3,0-0.5,0.3-0.7c0.1-0.1,0.1-0.1,0.3-0.1c0.3,0.1,0.6,0,0.9,0.1c0.7,0.1,1.5,0,2.2,0c0.2,0,0.3,0,0.5,0
			c1.1,0,2.2-0.1,3.4,0.1c0.2,0,0.3-0.2,0.5,0C15.1,11.6,15.1,16.7,14.9,21.7z"/>
		<path class="st46" d="M6.8,27.6c0,0-0.1-0.1-0.1-0.1c0.1-0.7-0.1-1.4,0-2.1c0.1-0.1,0.4-0.1,0.6-0.2c0.3-0.1,0.7-0.1,1,0.1
			c0.1,0-0.1,0.4,0.3,0.2c0.1-0.1,0.3-0.1,0.4,0c0.3,0.5,0.7,1,1.1,1.4c0.2,0.1,0.4,0.2,0.4,0.5c0,0.2-0.2,0.2-0.3,0.2
			c-0.5,0-1,0-1.5,0c-0.1,0-0.1,0-0.2-0.1c0-0.2,0.3-0.1,0.4-0.1c-0.2,0-0.4,0-0.6,0c0,0.1,0.1,0.1,0.1,0.1c0,0,0,0.1,0,0.1
			C7.9,27.5,7.3,27.6,6.8,27.6z"/>
		<path class="st47" d="M12,24.6c-0.4,0.1-0.6-0.1-0.9-0.3c-0.2-0.1-0.4-0.2-0.7-0.4l0,0c-0.4-0.2-0.8-0.4-1.3-0.4
			c-0.4,0.1-0.7,0-1.1,0.1c-0.1,0-0.1,0-0.2-0.1c-0.2-0.5-0.2-1-0.3-1.5c0-0.1,0-0.2,0-0.2c0-0.1,0.1-0.2,0.2-0.4
			c0.1-0.1,0-0.4,0.3-0.4c0.1,0.2-0.1,0.4,0.1,0.6l0,0c0,0,0,0.1,0,0.1c0,0.2,0,0.3,0,0.5c0,0,0,0.1,0,0.1c0,0.2,0.1,0.3,0.3,0.4
			c0,0,0.1,0.1,0.1,0.1c0.2,0.2,0.3,0.1,0.5,0c0-0.1,0.1-0.1,0.1-0.2c0.1-0.1,0.1-0.2,0.2-0.2c0.3,0.1,0.7,0.1,1,0.3
			c0.1,0.1-0.1,0.3,0.2,0.5c-0.1-0.1-0.2-0.3-0.1-0.4c0.5,0.3,1,0.7,1.3,1.1C12,24.2,12.2,24.4,12,24.6z"/>
		<path class="st48" d="M8.3,24.6c0.7,0.2,1.5,0.3,2.2,0.8c-0.5,0.2-1,0-1.5,0.1c-0.1-0.1-0.2,0-0.3-0.1c-0.1-0.1-0.2-0.3-0.3-0.4
			C8.4,24.9,8.3,24.8,8.3,24.6C8.3,24.7,8.3,24.6,8.3,24.6z"/>
		<path class="st49" d="M8.5,27.4c0.6-0.1,1.3,0.1,1.9-0.1c0.7,0.2,1.4,0.1,2.1,0.1c0.3,0,0.5-0.1,0.8,0.1c0,0-0.1,0-0.1,0.1
			c-0.6,0.1-1.1,0.2-1.7,0c-1.1,0-2.1,0-3.2,0c0,0,0-0.1,0-0.1C8.4,27.4,8.4,27.4,8.5,27.4z"/>
		<path class="st50" d="M14.3,24c0.1,0,0.2-0.1,0.3-0.1c0.1-0.1,0-0.2,0.1-0.3c0,0,0-0.1,0-0.1c0.3-0.1,0.2,0.2,0.2,0.2
			c0,0.1,0,0.2,0.1,0.3c0.2,0.1,0.1,0.3,0,0.4c-0.2,0.1-0.3,0-0.5-0.1C14.5,24.2,14.4,24.1,14.3,24z"/>
		<path class="st24" d="M14.6,24.3c0.4,0.1,0.6,0.1,0.5-0.3c0.5-0.2,0.2,0.2,0.3,0.3c-0.1,0.1-0.2,0.3-0.4,0.3
			c-0.2,0.1-0.4,0.2-0.5,0.1C14.3,24.6,14.6,24.5,14.6,24.3z"/>
		<path class="st51" d="M8,23.7c0,0,0.1,0,0.1,0c0.2,0.1,0,0.3,0.1,0.4c0,0.2,0.1,0.3,0.1,0.5c0,0,0,0,0,0c-0.3,0.1-0.4,0-0.5-0.2
			c-0.1-0.2-0.2-0.4-0.1-0.6C7.8,23.8,7.8,23.7,8,23.7z"/>
		<path class="st24" d="M14,22.7c0.1-0.2-0.1-0.4,0.1-0.5c0.1,0,0.3-0.1,0.4-0.1c0,0,0.1,0,0,0.1c0,0,0,0,0,0
			c-0.1,0.1-0.1,0.3-0.1,0.4C14.3,22.6,14.4,22.9,14,22.7l0,0.1C14,22.8,14,22.7,14,22.7C14,22.7,14,22.7,14,22.7z"/>
		<path class="st52" d="M8.7,25.4c0.1,0,0.2,0.1,0.3,0.1c0,0-0.1,0-0.1,0c-0.4-0.1-0.7,0.4-1.1,0.1c0.1-0.2,0.4-0.1,0.4-0.2
			C8.4,25.2,8.6,25.3,8.7,25.4z"/>
		<path class="st53" d="M8.2,24.1c-0.2-0.1-0.1-0.3-0.1-0.4c0.3-0.2,0.7-0.2,1-0.1c0,0,0,0.1,0,0.1c-0.2,0.2-0.4,0.1-0.6,0.1
			C8.2,23.8,8.2,24,8.2,24.1z"/>
		<path class="st54" d="M8.1,22.5c0,0,0-0.1,0-0.1c0.2-0.1,0.1-0.3,0.1-0.5c0,0,0-0.1,0-0.1c0.2,0.2,0.4,0.3,0.5,0.5
			c-0.1,0-0.2,0.1-0.1,0.2c0,0.1-0.1,0.1-0.2,0.1C8.3,22.6,8.2,22.6,8.1,22.5z"/>
		<path class="st55" d="M8.6,22.5c-0.1-0.1-0.1-0.2,0.1-0.2c0.2,0,0.5,0.1,0.6,0.3c0,0.1,0.1,0.2-0.1,0.2c0,0-0.1,0-0.1,0
			C9,22.7,8.7,22.6,8.6,22.5z"/>
		<path class="st36" d="M15.3,27.6C15.3,27.6,15.3,27.6,15.3,27.6c-0.6,0.2-1.3,0.2-1.9,0.2c-0.1,0-0.1-0.1-0.1-0.2c0,0,0,0,0,0
			c0.4,0,0.8,0,1.3,0C14.8,27.4,15.1,27.4,15.3,27.6z"/>
		<path class="st56" d="M10.5,22.9c-0.1,0.3,0.2,0.4,0.4,0.5c-0.7,0.1-0.7,0-0.6-0.6C10.4,22.9,10.5,22.9,10.5,22.9z"/>
		<path class="st57" d="M10.4,24c-0.1,0.2,0.2,0.3,0.3,0.5C10.2,24.5,10.2,24.5,10.4,24C10.4,24,10.4,24,10.4,24z"/>
		<path class="st58" d="M11.9,21.5c0.2,0.1,0.3,0.2,0.5,0.4c0.1,0,0.1,0,0.1,0.1c0,0.1,0,0.1,0.1,0.2C12.3,22,12,21.9,11.9,21.5z"/>
		<path class="st19" d="M14.9,23.8c-0.1-0.1-0.2-0.2-0.2-0.2c-0.1-0.1-0.1-0.2-0.2-0.2c0,0,0-0.1,0-0.1c0.1,0,0.2,0.1,0.4,0.1l0,0
			C14.9,23.5,14.9,23.6,14.9,23.8z"/>
		<path class="st59" d="M15.5,27.4c0,0-0.1,0-0.1,0c-0.3,0-0.5,0.1-0.8-0.1C14.9,27.3,15.2,27,15.5,27.4z"/>
		<path class="st60" d="M8.7,20.7c0.4-0.2,0.7-0.1,1.1,0C9.4,20.7,9.1,20.7,8.7,20.7z"/>
		<path class="st61" d="M12,24.6c0-0.2-0.1-0.4-0.1-0.6C11.9,24.2,12.5,24.4,12,24.6z"/>
		<path class="st50" d="M14.6,23.2c0,0,0,0.1,0,0.1c-0.3,0-0.3-0.2-0.4-0.4c0.2-0.1,0.2,0,0.2,0.1C14.5,23.1,14.5,23.1,14.6,23.2z"
			/>
		<path class="st62" d="M14.9,24.6c0.1-0.1,0.2-0.2,0.4-0.3C15.3,24.5,15.3,24.7,14.9,24.6z"/>
		<path class="st54" d="M8.3,21.7c-0.3-0.2-0.1-0.4-0.2-0.6c0,0,0,0,0-0.1c0,0,0,0,0,0c0,0,0.1,0,0.1,0C8.2,21.3,8.2,21.5,8.3,21.7z
			"/>
		<path class="st63" d="M9.2,23.9c-0.3,0.2-0.5,0.2-0.8,0C8.7,23.8,9,23.8,9.2,23.9z"/>
		<path class="st64" d="M8.5,23.8c0.2-0.2,0.4-0.1,0.6-0.1c0,0,0.1,0.1,0.1,0.1C9,23.9,8.7,23.9,8.5,23.8L8.5,23.8z"/>
		<path class="st65" d="M14.9,23.3c0-0.1,0.1-0.2,0.2-0.1c0.1,0.1,0.1,0.2,0,0.2C15.1,23.5,15,23.3,14.9,23.3
			C14.9,23.3,14.9,23.3,14.9,23.3z"/>
		<path class="st66" d="M14.6,22.2c0,0,0-0.1,0-0.1c0.3,0,0.5-0.1,0.8,0.1C15.1,22.2,14.8,22.2,14.6,22.2z"/>
		<path class="st19" d="M14.4,23c-0.1,0-0.2-0.1-0.2-0.1c0,0-0.1-0.1-0.1-0.1c0.2,0,0.2-0.2,0.3-0.2C14.4,22.7,14.4,22.9,14.4,23z"
			/>
		<path class="st67" d="M11.6,27.3c0.2-0.1,0.4-0.1,0.6,0C12,27.4,11.8,27.4,11.6,27.3z"/>
		<path class="st68" d="M14.6,27.3c0.3,0,0.5-0.1,0.8,0.1c0,0,0,0,0,0c-0.3,0.1-0.5,0.1-0.8,0C14.6,27.4,14.6,27.4,14.6,27.3z"/>
		<path class="st69" d="M14.6,27.4c0.3,0,0.5,0,0.8,0c0,0,0,0.1,0,0.1C15.1,27.6,14.8,27.5,14.6,27.4C14.6,27.5,14.6,27.5,14.6,27.4
			z"/>
		<path class="st70" d="M8.5,23.8c0.3,0,0.5,0,0.8,0c0,0,0,0.1,0,0.1c-0.3,0-0.5,0-0.8,0C8.5,23.9,8.5,23.9,8.5,23.8z"/>
		<path class="st50" d="M13.5,23.2c0.3,0,0.3,0.2,0.3,0.3C13.6,23.5,13.6,23.3,13.5,23.2z"/>
		<path class="st71" d="M9.2,3.7c0.1-0.1,0.2-0.1,0.4-0.1c0.2-0.1,0.3,0,0.5,0c0.6-0.1,0.9,0.2,1.1,0.7c-0.4,0.1-0.8,0-1.3,0
			c0.4,0,0.8,0,1.3,0c0.3,0,0.5,0,0.3,0.3c-0.4,0.3-1,0.2-1.5,0.2C9.8,4.7,9.5,4.7,9.3,4.7C9.2,4.7,9,4.6,8.9,4.6
			C8.8,4.2,8.9,3.9,9.2,3.7z"/>
		<path class="st72" d="M11.4,4.6c0.1-0.2-0.1-0.2-0.3-0.2c-0.5,0-0.9,0-1.4-0.1c0.4,0,0.8,0,1.2,0c-0.1-0.8-0.7-0.6-1.3-0.6
			c0.4-0.2,0.8-0.1,1.2-0.1c0.4,0,0.7,0.1,1,0.3c0.1,0.1,0.3,0.2,0.3,0.4C12.1,4.6,11.9,4.7,11.4,4.6z"/>
		<path class="st73" d="M11.4,4.6c0.3,0,0.6-0.1,0.6-0.4c0,0,0.1,0,0.1,0c0.1,0,0.1,0.1,0.1,0.1c0,0.2,0,0.3,0,0.5
			c-0.5,0-1,0.3-1.5,0.2c-0.2-0.1-0.5,0-0.7-0.1c-0.2,0-0.4,0-0.5-0.2c0.1-0.1,0.3-0.1,0.4,0C10.4,4.7,10.9,4.7,11.4,4.6z"/>
		<path class="st74" d="M12.2,4.2C12.2,4.2,12.1,4.2,12.2,4.2c0.4-0.3,0.9-0.2,1.4-0.2c0.1,0,0.2,0.1,0.1,0.1
			c-0.1,0.1-0.2,0-0.3,0.1c-0.1,0-0.3,0.1-0.4,0.1C12.8,4.2,12.4,4.4,12.2,4.2z"/>
		<path class="st72" d="M9.2,3.7C9.2,4,9.1,4.2,9,4.5c-0.2,0.1-0.3,0-0.4-0.1C8.5,4.2,8.5,4.1,8.6,4c0,0,0-0.1,0-0.1
			C8.8,3.9,9,3.7,9.2,3.7z"/>
		<path class="st75" d="M11.8,3.8c-0.3-0.1-0.7-0.2-1-0.3C11.2,3.3,11.5,3.5,11.8,3.8z"/>
		<path class="st76" d="M10,3.2c0.3-0.2,0.5-0.2,0.8,0C10.5,3.3,10.3,3.3,10,3.2z"/>
		<path class="st77" d="M10,3.2c0.3,0,0.5,0,0.8,0C10.5,3.4,10.3,3.4,10,3.2z"/>
		<path class="st78" d="M10.8,4.9c0.3,0,0.6-0.1,0.9-0.2c0.2-0.1,0.3-0.1,0.5,0.1c0.1,0.2,0.1,0.5,0,0.7C12,5.8,11.6,6,11.2,6
			C10.6,6,10,6.1,9.4,6C9.1,6,8.8,5.9,8.6,5.6c-0.1-0.2-0.1-0.3,0-0.5c0.1-0.3,0.3-0.5,0.7-0.4C9.7,4.9,10.3,4.8,10.8,4.9z"/>
		<path class="st79" d="M8.3,4.8C7.9,4.7,7.4,4.7,7,4.8C6.6,5,6.5,5.2,6.8,5.5C6.9,5.7,7,5.9,7.1,6.1C7.2,6.2,7.2,6.3,7,6.3
			C6.7,6.3,6.6,6,6.4,5.9C6.3,5.8,6.2,5.6,6.2,5.5c0,0-0.1-0.1-0.1-0.1c0,0,0-0.1-0.1-0.1C5.8,5,5.4,4.7,5.4,4.4
			c0,0,0.1-0.1,0.2-0.1c0.3,0,0.6,0,0.9,0c0.4,0,0.8,0,1.2,0C8.5,4.3,8.5,4.3,8.3,4.8z"/>
		<path class="st80" d="M7,6.3c0.1,0,0.1-0.1,0.1-0.2c0.1,0.1,0.2,0.2,0.3,0.3C7.1,7.1,7.2,7.8,7.2,8.5C7.1,8.6,7.1,8.8,7.1,8.9
			C7,9,6.9,9.1,6.7,8.9c-0.2-0.7-0.1-1.5,0-2.2c0-0.1,0.1-0.2,0.1-0.3C6.9,6.4,6.9,6.4,7,6.3z"/>
		<path class="st81" d="M10.8,4.9C10.4,5.1,10,5,9.6,4.9c-0.9-0.1-0.9-0.1-1,0.7C8.4,5.4,8.4,5.1,8.4,4.9c0.1-0.1,0-0.2,0.1-0.3
			c0-0.1,0.1-0.2,0.2-0.2c0.1,0,0.2,0.1,0.4,0.1C9,4.5,9.1,4.6,9.2,4.6c0.1,0.1,0.2,0,0.3,0.1C9.9,4.9,10.4,4.6,10.8,4.9z"/>
		<path class="st82" d="M14.6,6.5c-1.1,0-2.3,0-3.4,0c0.1-0.3,0.5,0,0.8-0.2C12.8,6.3,13.7,6.2,14.6,6.5z"/>
		<path class="st83" d="M11.9,6.3c-0.2,0.2-0.6,0-0.8,0.2c-0.1,0-0.3,0-0.4,0c-0.8-0.1-1.5,0-2.3-0.1c-0.3,0-0.6,0.1-0.9-0.1
			C9,6.3,10.5,6.3,11.9,6.3z"/>
		<path class="st84" d="M8.5,4.6c0,0.1,0,0.2-0.1,0.3c0,0,0-0.1,0-0.1c0.1-0.5-0.3-0.4-0.6-0.4C7.5,4.2,7.1,4.5,7,4.1
			c0.5,0,1,0,1.5,0C8.6,4.3,8.6,4.4,8.5,4.6z"/>
		<path class="st84" d="M12.2,5.5c0-0.2,0-0.5,0-0.7c0-0.2,0-0.3,0-0.5c0.3,0,0.6-0.1,0.9,0.1c-0.2,0.1-0.6-0.2-0.7,0.2
			C12.2,4.9,12.4,5.2,12.2,5.5z"/>
		<path class="st85" d="M14,4.9c0.1,0.1,0.2,0.2,0.1,0.3c-0.1,0.1-0.2,0-0.2-0.1C13.9,5.1,14,5,14,4.9z"/>
		<path class="st86" d="M15.3,18.5c0-0.8,0-1.6,0-2.4c0,0,0.1,0,0.1,0c0,0.8,0,1.6,0,2.4C15.4,18.6,15.4,18.6,15.3,18.5
			C15.4,18.6,15.3,18.6,15.3,18.5z"/>
		<path class="st87" d="M15.5,8.6c0,0.1,0,0.2,0.1,0.3c0,0.1,0,0.1,0,0.2c-0.1,0.4,0,0.8-0.1,1.2c0,0.1-0.1,0.1-0.2,0
			C15.4,9.8,15.2,9.2,15.5,8.6z"/>
		<path class="st32" d="M15.6,14.5c0,0.1,0,0.2,0,0.3c0,0-0.1,0-0.1,0c0,0,0,0-0.1-0.1c0-0.2-0.1-0.4,0.1-0.6
			c0.1-0.4-0.1-0.8,0.1-1.2C15.6,13.5,15.6,14,15.6,14.5z"/>
		<path class="st88" d="M15.6,18.5c0,0.6,0,1.2,0,1.9c0,0-0.1,0-0.1,0h0c-0.1-0.6-0.1-1.2,0-1.9c0,0,0,0,0,0
			C15.5,18.5,15.5,18.5,15.6,18.5z"/>
		<path class="st89" d="M15.5,18.5c0,0.6,0,1.2,0,1.9c-0.3-0.6-0.1-1.2-0.1-1.9C15.4,18.5,15.4,18.5,15.5,18.5z"/>
		<path class="st90" d="M15.5,10.4c0.1-0.4-0.1-0.8,0.1-1.2c0,0.4,0,0.8,0,1.2c0,0,0,0.1-0.1,0.1c0,0-0.1,0-0.1,0
			C15.4,10.4,15.4,10.4,15.5,10.4C15.4,10.4,15.4,10.4,15.5,10.4z"/>
		<path class="st91" d="M15.5,10.4c0,0,0,0.1,0,0.1c0,0.4,0,0.7,0,1.1c0,0-0.1,0-0.1,0c0-0.4,0-0.8,0-1.2
			C15.4,10.4,15.4,10.4,15.5,10.4z"/>
		<path class="st92" d="M15.5,14.8c0,0.2,0,0.3,0,0.5c0,0-0.1,0-0.1,0c0-0.2,0-0.3,0-0.5C15.4,14.8,15.4,14.8,15.5,14.8L15.5,14.8z"
			/>
		<path class="st93" d="M15.5,14.8c0,0-0.1,0-0.1,0c0-0.2-0.1-0.4,0.1-0.6C15.5,14.4,15.5,14.6,15.5,14.8z"/>
		<path class="st94" d="M6.5,4.3c-0.3,0-0.7,0-1,0c0,0-0.1,0-0.1,0c0-0.1,0-0.3,0-0.4c0.2,0.3,0.6,0.2,0.9,0.2
			C6.3,4.2,6.5,4.1,6.5,4.3z"/>
		<path class="st95" d="M6.5,4.3C6.4,4.3,6.3,4.2,6.2,4.1c0.3,0,0.5,0,0.8,0c0.2,0.2,0.6,0,0.8,0.2C7.3,4.3,6.9,4.3,6.5,4.3z"/>
		<path class="st96" d="M8.5,4.6c0-0.1,0-0.3,0-0.4c0,0,0.1-0.1,0.1-0.1c0,0.1,0,0.2,0,0.3C8.6,4.4,8.5,4.5,8.5,4.6z"/>
		<path class="st97" d="M3.8,24.4c0-1.3,0-2.7,0-4c0.1-0.4,0-0.9,0.1-1.3c0.2-0.3,0-0.7,0.3-0.9c0.2,0.1,0.2,0.2,0.3,0.4
			c0.1,1.5,0.3,3,0.6,4.5c0,0.1,0,0.2,0,0.3c0.1,0.1-0.3,0.1-0.1,0.2c0.1,0,0.2,0.1,0.2,0.1c0,0,0.1,0.1,0.1,0.1
			c0,0.2,0.1,0.4,0.1,0.6c-0.1,0.2-0.2,0.3-0.2,0.5c-0.1,0.2,0,0.5-0.3,0.6c-0.1,0-0.1,0-0.2,0c-0.2-0.1-0.2-0.3-0.4-0.4
			C3.9,24.8,3.9,24.6,3.8,24.4z"/>
		<path class="st98" d="M4.2,18.2c-0.1,0.3,0.3,0.6-0.3,0.8c-0.1-0.4,0-0.8-0.1-1.3c0-1,0-2,0-3c0-0.8,0.1-1.7-0.1-2.5
			c0-0.8,0-1.7,0-2.5c0.1-0.3,0-0.5,0.1-0.8c0-0.7-0.1-1.5,0-2.2l0,0c0.2-0.1,0.3,0,0.4,0.1c0.1,0.2,0.1,0.4,0.1,0.6
			c-0.2,2.7-0.1,5.4-0.1,8.2c0,0.6,0.2,1.2,0.1,1.9C4.4,17.8,4.4,18.1,4.2,18.2z"/>
		<path class="st99" d="M3.8,24.4c0.1,0.2,0.3,0.3,0.5,0.4c-0.1,0.3,0.1,0.5,0,0.8c0,0.1,0,0.2-0.1,0.2c0,0.1-0.1,0.1-0.1,0.1
			c-0.1,0-0.1,0-0.2,0c0-0.1,0-0.3,0-0.4c-0.1,0.3,0.2,0.6,0,0.9c0,0,0,0.1,0,0.1c-0.2-0.2-0.1-0.5-0.1-0.7
			C3.8,25.4,3.8,24.9,3.8,24.4z"/>
		<path class="st100" d="M3.9,14.8c0,1,0,2,0,3c0,0-0.1,0-0.1,0c0-1,0-2,0-3C3.8,14.8,3.9,14.8,3.9,14.8z"/>
		<path class="st101" d="M3.8,17.8c0,0,0.1,0,0.1,0c0,0.4,0,0.8,0,1.2c-0.1,0.4,0.1,0.9-0.1,1.3C3.8,19.5,3.8,18.7,3.8,17.8z"/>
		<path class="st102" d="M3.9,14.8c0,0-0.1,0-0.1,0c0-0.8,0-1.7,0-2.5c0.3,0.5,0.1,0.9,0.1,1.4C4,14.1,3.9,14.5,3.9,14.8z"/>
		<path class="st103" d="M3.9,6.8c0,0.8,0,1.5,0,2.3c0,0-0.1,0-0.1,0c0-0.7,0-1.5,0-2.2C3.8,6.9,3.9,6.9,3.9,6.8z"/>
		<path class="st104" d="M3.8,9.1c0,0,0.1,0,0.1,0c0,0.2,0.1,0.5-0.1,0.7C3.8,9.6,3.8,9.4,3.8,9.1z"/>
		<path class="st105" d="M13,28.3c-0.5,0.2-1.1,0.1-1.6,0.1c-0.5,0-1,0-1.4,0c0.5-0.2,1.1-0.1,1.6-0.1C12.1,28.3,12.6,28.3,13,28.3z
			"/>
		<path class="st22" d="M10.9,28.1c0.4-0.1,0.6-0.1,1,0C11.5,28.2,11.3,28.2,10.9,28.1z"/>
		<path class="st106" d="M8.5,28.4c-0.3,0-0.5,0-0.8,0c0,0,0-0.1,0-0.1c0.3,0,0.5,0,0.8,0C8.5,28.3,8.5,28.3,8.5,28.4z"/>
		<path class="st107" d="M7.9,27.8c-0.3,0-0.6,0-0.8,0c0.8-0.2,1.7,0,2.6-0.1c0.4,0,0.8,0,1.2,0c0.3,0.1,0.6,0.1,0.8,0
			c0.4,0,0.7,0,1.1,0c0.2,0,0.4,0,0.4,0.2c-1.1,0.1-2.3,0.1-3.4,0c-0.4-0.1-0.8,0-1.1,0C8.3,27.8,8.1,27.9,7.9,27.8z"/>
		<path class="st108" d="M13,27.8c-0.5-0.2-1,0-1.5-0.1c0,0-0.1,0,0-0.1c0,0,0,0,0,0l0,0c0.6-0.1,1.2-0.1,1.8,0c0.7,0,1.3,0,2,0
			c0,0,0,0.1,0,0.1c-0.3,0-0.5,0-0.8,0c-0.2,0.1-0.4,0-0.6,0.1C13.6,27.8,13.3,27.8,13,27.8z"/>
		<path class="st109" d="M8.5,27.8c0.4,0,0.8-0.1,1.1,0.1C9.2,27.9,8.9,27.9,8.5,27.8C8.4,27.8,8.4,27.8,8.5,27.8
			C8.5,27.8,8.5,27.8,8.5,27.8z"/>
		<path class="st110" d="M8.5,27.8C8.5,27.8,8.5,27.8,8.5,27.8c-0.2,0.1-0.4,0.1-0.6,0.1c0,0,0-0.1,0-0.1
			C8.1,27.8,8.3,27.8,8.5,27.8z"/>
		<path class="st111" d="M13.9,27.8c0.2-0.1,0.4-0.1,0.6-0.1c0,0,0,0.1,0,0.1C14.4,27.8,14.1,27.8,13.9,27.8z"/>
		<path class="st112" d="M4.3,6c0.1-0.4,0.4-0.6,0.6-0.9C5.1,5,5.2,4.8,5.4,4.8c0,0,0.1,0.1,0.1,0.1c0,0.1,0,0.2,0,0.4
			c0,0.1,0.1,0.2,0.1,0.3c0,0.1,0,0.2-0.1,0.2C5.4,6,5.2,6.1,5,6.2C4.9,6.3,4.8,6.4,4.6,6.3C4.4,6.3,4.4,6.1,4.3,6z"/>
		<path class="st113" d="M5.4,4.9C5.3,4.9,5.2,5.1,4.9,5.1C4.9,4.9,5.1,4.8,5.1,4.6c0.1-0.1,0.2-0.2,0.2-0.2c0,0,0.1,0,0.1,0
			c0,0,0,0.1,0,0.1C5.6,4.6,5.6,4.7,5.4,4.9z"/>
		<path class="st103" d="M4.2,6.9C4.1,6.8,4,6.8,3.9,6.8c0-0.2,0.1-0.3,0.3-0.4c0.1,0,0.2,0,0.3,0c0.1,0,0.1,0,0.1,0
			c0,0.1,0,0.3,0.1,0.4C4.6,7,4.4,7,4.2,6.9z"/>
		<path class="st2" d="M4.4,6.4c-0.1,0-0.1,0.1-0.2,0.1c-0.1,0-0.1-0.1-0.1-0.2c0-0.1,0-0.3,0.2-0.4c0.2,0.1,0.2,0.2,0.2,0.3
			C4.6,6.4,4.5,6.4,4.4,6.4z"/>
		<path class="st111" d="M13.3,27.6c-0.6,0-1.2,0-1.8,0c0,0,0-0.1,0-0.1C12.1,27.6,12.7,27.6,13.3,27.6
			C13.3,27.6,13.3,27.6,13.3,27.6z"/>
		<path class="st114" d="M11.5,27.7c0,0,0,0.1,0,0.1c-0.3,0-0.5,0.1-0.8-0.1C11,27.7,11.3,27.7,11.5,27.7z"/>
		<path class="st115" d="M4.2,25.9c0-0.1,0-0.1,0-0.2c0.1-0.2,0-0.5,0.4-0.4l0,0l0,0c0,0.1,0.2,0.1,0.3,0.1c0.3,0.2,0.6,0.4,0.9,0.6
			c0.1,0.2,0.2,0.5,0.2,0.7c-0.1,0.2-0.3,0.1-0.5,0.1c-0.2,0-0.4-0.1-0.6,0c-0.2,0-0.3-0.1-0.4-0.2C4.2,26.4,4.4,26.1,4.2,25.9z"/>
		<path class="st116" d="M4.8,26.8c0.1-0.2,0.3-0.3,0.5-0.2c0.1,0.1,0.3,0.1,0.5,0.1c0.4,0.1,0.4,0.3,0.4,0.5
			c-0.2,0-0.3-0.2-0.5-0.1c-0.2-0.1-0.3-0.2-0.6-0.2C5,26.9,4.9,26.8,4.8,26.8z"/>
		<path class="st116" d="M4.2,25.9c0.4,0.2,0.2,0.5,0.3,0.7c-0.1,0-0.2,0-0.3-0.1C4,26.3,4,26.2,4.2,25.9
			C4.1,25.9,4.2,25.9,4.2,25.9z"/>
		<path class="st97" d="M4,26.5c0-0.4,0-0.8,0-1.1c0,0,0,0,0.1,0c0,0.2,0,0.4,0.1,0.6c0.1,0.2,0.1,0.3,0,0.5L4,26.5L4,26.5z"/>
		<path class="st117" d="M4.1,26.5c0-0.2,0-0.3,0-0.5c0,0,0.1,0,0.1,0c0,0.2,0,0.4,0,0.6C4.1,26.5,4.1,26.5,4.1,26.5z"/>
		<path class="st118" d="M6.2,27.3c-0.1-0.2-0.2-0.4-0.4-0.5c-0.1-0.2,0-0.5-0.3-0.7c-0.1-0.2-0.3-0.5-0.4-0.7c0-0.2-0.1-0.3,0-0.5
			c0-0.2,0-0.4,0.1-0.6c0.1-0.3,0-0.6-0.1-0.8c0-0.1,0-0.1,0-0.2c0.1-0.4,0.3-0.7,0.9-0.7c0.4,0,0.7,0.4,0.7,0.8
			c0,0.7-0.2,1.4,0,2.1c0.1,0.7,0.5,1.4,0,2.1C6.5,27.4,6.4,27.4,6.2,27.3C6.2,27.3,6.2,27.3,6.2,27.3z"/>
		<path class="st119" d="M8,24.4c0.1,0.1,0.2,0.2,0.4,0.2c0,0.1,0.1,0.2,0.1,0.3c-0.1,0.2-0.4,0.2-0.6,0.2c-0.3,0-0.5,0-0.8,0.1
			c-0.4,0-0.4-0.2-0.3-0.4c0,0,0.1-0.1,0.1-0.1c0.3,0.2,0.6,0.1,0.9,0c-0.2,0-0.5,0.2-0.8,0c-0.1-0.2-0.1-0.4-0.2-0.6
			c0-0.5,0-1.1,0-1.6c0.1-0.2,0.1-0.5,0.1-0.7c0-1.9,0-3.8,0-5.7c0-0.2-0.1-0.5,0.2-0.7c0.3,0.2,0,0.4,0.2,0.5
			c0.1,1.9,0.3,3.7,0.4,5.6c0.2,0.1,0,0.4,0.1,0.5c0.1,0.5,0.2,1.1,0.3,1.6c0,0.1-0.1,0.1-0.1,0.2C7.7,24.1,7.8,24.3,8,24.4z"/>
		<path class="st120" d="M7.2,15.9C7,15.9,7.2,15.7,7,15.5c0,1.1,0,2.1,0,3.1c0,1.1,0,2.3,0,3.4c0,0.2,0.1,0.4-0.1,0.5
			c-0.2-0.2-0.2-0.4-0.2-0.7c0-4.1,0-8.1,0-12.2c0-0.2,0-0.5,0.2-0.7c0.2-0.1,0-0.4,0.4-0.5C7.2,11,7.2,13.5,7.2,15.9z"/>
		<path class="st121" d="M11.8,20.2c0.5-0.2,0.6,0.1,0.7,0.4c0.1,0.2,0.2,0.3-0.1,0.4c-0.1,0-0.2-0.1-0.2-0.1
			c-0.1,0-0.1-0.1-0.1-0.2c-0.1-0.1-0.2-0.1-0.2-0.2C11.7,20.4,11.7,20.3,11.8,20.2z"/>
		<path class="st122" d="M13.9,19.8c0-0.2,0-0.4,0.4-0.4c0.2,0,0.2,0.2,0.2,0.3C14.4,19.9,14.2,20,13.9,19.8
			C13.9,19.9,13.9,19.8,13.9,19.8C13.9,19.8,13.9,19.8,13.9,19.8z"/>
		<path class="st82" d="M8.5,6.4c0.8,0.1,1.5-0.1,2.3,0.1C10,6.5,9.2,6.6,8.5,6.4z"/>
		<path class="st123" d="M8.1,21c0,0,0,0.1,0,0.1c-0.2,0.1,0,0.3-0.3,0.4c-0.1-0.1-0.1-0.2,0-0.3c0-0.2-0.1-0.4,0.2-0.6
			C8.1,20.8,8.1,20.9,8.1,21z"/>
		<path class="st124" d="M12.7,21c0.1-0.1,0.2-0.3,0.3-0.4c-0.1,0.2,0.2,0.5-0.3,0.5C12.6,21.1,12.6,21.1,12.7,21
			C12.6,21,12.7,21,12.7,21z"/>
		<path class="st125" d="M12.5,22C12.5,21.9,12.4,21.9,12.5,22c0-0.2,0.1-0.3,0.3-0.3C12.8,21.9,12.7,22,12.5,22z"/>
		<path class="st126" d="M12,20.7c0.1,0,0.1,0.1,0.1,0.2c-0.1,0.1-0.2,0.1-0.3,0C11.7,20.7,12.1,20.8,12,20.7z"/>
		<path class="st126" d="M11.8,20.2c0,0.1,0,0.2,0,0.3c-0.3-0.1-0.1-0.3-0.1-0.4c0,0,0.1,0,0.1,0C11.8,20.1,11.8,20.2,11.8,20.2z"/>
		<path class="st127" d="M14.7,23.6c0,0.1,0.2,0.3-0.1,0.3C14.5,23.8,14.3,23.6,14.7,23.6z"/>
		<path class="st128" d="M14,22.7c0,0,0,0.1,0,0.1c-0.1,0-0.1,0.2-0.2,0.1c-0.1-0.1-0.1-0.2,0-0.3C13.9,22.6,14,22.6,14,22.7z"/>
		<path class="st129" d="M12.7,21c0,0,0,0.1,0,0.1c-0.1,0-0.2,0-0.3-0.1c0.2-0.1,0.1-0.3,0.1-0.4C12.7,20.7,12.6,20.9,12.7,21z"/>
		<path class="st130" d="M7.9,21.2c0,0.1,0,0.2,0,0.3c0,0.1,0,0.2-0.1,0.3c-0.1-0.1-0.1-0.2,0-0.3C7.7,21.4,7.7,21.3,7.9,21.2z"/>
		<path class="st131" d="M7.7,21.5c0,0.1,0,0.2,0,0.3c0,0.1,0,0.1,0,0.2c-0.2-0.1-0.1-0.3-0.1-0.5C7.6,21.5,7.7,21.5,7.7,21.5z"/>
		<path class="st132" d="M13.9,19.8C13.9,19.8,13.9,19.8,13.9,19.8c0,0.2,0,0.3,0,0.5C13.8,20.1,13.8,19.9,13.9,19.8z"/>
		<path class="st133" d="M13.5,22.4c0,0-0.1-0.1-0.1-0.1c0-0.1,0-0.1,0.1-0.1c0,0,0.1,0.1,0.1,0.1C13.7,22.4,13.6,22.4,13.5,22.4z"
			/>
		<path class="st2" d="M6.8,9c0,4.5,0,9,0,13.6c0,0.6,0,1.1,0,1.7c0.1,0.2,0.1,0.4,0,0.6c0,0.2-0.1,0.4,0.3,0.4c0.1,0,0.1,0,0.1,0
			c-0.2,0.1-0.3,0.1-0.5,0.1c-0.5-0.4-0.2-0.9-0.2-1.3c0-0.2,0.1-0.5,0.1-0.7c0-0.3-0.1-0.7-0.6-0.7c-0.5,0-0.7,0.3-0.7,0.7
			c-0.2,0.1-0.1,0.2-0.3,0.3c-0.1,0-0.2,0-0.3,0c-0.1-0.1-0.1-0.1,0-0.2c0.1-0.6-0.1-1.1-0.2-1.7c-0.1-1.1-0.4-2.2-0.4-3.3
			c0-0.1,0-0.2-0.1-0.3c-0.1-3.8-0.2-7.5,0-11.3c0.2-0.1,0.3-0.1,0.5-0.2c0,0,0,0,0.1-0.1c0.3-0.1,0.7-0.2,1.1-0.2
			c0.1,0,0.1,0,0.2,0c0.2,0.1,0.5,0,0.7,0c0.1,0,0.2,0,0.2,0.1C6.7,7.4,6.9,8.2,6.8,9z"/>
		<path class="st131" d="M7.2,25.3c0,0-0.1,0-0.1,0C7.6,25.2,8,25.1,8.5,25c0.2,0.1,0.2,0.2,0.3,0.4c-0.2,0-0.3,0-0.5,0
			C7.9,25.3,7.6,25.3,7.2,25.3z"/>
		<path class="st134" d="M7.7,27.3c0.4-0.2,0.9,0,1.4-0.1c-0.2,0.1-0.4,0.1-0.6,0.1C8.2,27.4,8,27.4,7.7,27.3z"/>
		<path class="st135" d="M7.7,27.3c0.3,0,0.5,0,0.8,0c0,0,0,0.1,0,0.1c0,0-0.1,0-0.1,0C8.1,27.4,7.9,27.5,7.7,27.3z"/>
		<path class="st136" d="M8.1,22.5c0.1,0,0.2,0,0.4,0.1c0.2,0,0.6,0,0.5,0.4c-0.2,0.1-0.3,0.1-0.5,0C8.2,22.9,8,22.8,8.1,22.5z"/>
		<path class="st127" d="M9.2,23c-0.2,0.2-0.5,0.4-0.8,0C8.7,22.9,9,22.9,9.2,23z"/>
		<path class="st137" d="M8.2,21.9c0.1,0.2,0.2,0.4-0.1,0.5C8.1,22.2,8,22,8.2,21.9z"/>
		<path class="st138" d="M9.2,23c-0.3,0-0.5,0-0.8,0c0,0,0-0.1,0-0.1c0.2,0,0.4,0,0.5,0c0.1-0.1,0.1-0.2,0.2-0.1c0,0,0,0,0,0
			C9.2,22.9,9.2,22.9,9.2,23z"/>
		<path class="st139" d="M8.6,23.3c0.2-0.1,0.4-0.1,0.6,0C8.9,23.4,8.8,23.4,8.6,23.3z"/>
		<path class="st131" d="M8,24.4c-0.3-0.1-0.3-0.3-0.1-0.5C7.9,24.1,7.9,24.3,8,24.4z"/>
		<path class="st140" d="M9.2,22.8c-0.1,0-0.2,0.1-0.2,0.1c-0.1-0.2-0.3-0.2-0.5-0.3c0,0,0.1-0.1,0.1-0.1
			C8.9,22.5,9.1,22.6,9.2,22.8z"/>
		<path class="st141" d="M9.5,4.7c-0.1,0-0.2-0.1-0.3-0.1c0.2,0,0.5-0.1,0.6,0.1C9.8,4.7,9.6,4.7,9.5,4.7z"/>
		<path class="st142" d="M10.8,5.4c-0.4,0.1-0.8,0.3-1.4,0.1C9.6,5.3,9.8,5.4,10,5.4C10.3,5.2,10.5,5.2,10.8,5.4z"/>
		<path class="st143" d="M10.8,5.4c-0.3,0-0.5,0-0.8,0C10.3,5.1,10.5,5.1,10.8,5.4z"/>
		<path class="st144" d="M5.4,4.9c0-0.1,0-0.3,0-0.4C5.8,4.7,5.9,5,6.2,5.3C5.9,5.4,5.8,5.2,5.7,5.1c0.1,0.1,0.1,0.3,0,0.4
			c-0.2,0.1-0.2,0-0.2-0.2C5.4,5.2,5.5,5.1,5.4,4.9C5.5,4.9,5.5,4.9,5.4,4.9z"/>
		<path class="st145" d="M5.4,5.8c0-0.1,0.1-0.1,0.1-0.2c0,0,0,0,0.1,0c0,0,0.1,0,0.1,0c0.2,0,0.3-0.2,0.5-0.1
			c0.2,0.1,0.2,0.2,0.2,0.3C6.5,5.9,6.4,6,6.3,6C6,6,5.7,6,5.4,5.9C5.4,5.9,5.4,5.8,5.4,5.8z"/>
		<path class="st146" d="M6.2,5.9c0.1,0,0.2,0,0.3-0.1C6.7,5.9,6.8,6.1,7,6.3c0,0,0,0.1,0,0.1C6.9,6.5,6.8,6.5,6.6,6.5
			c-0.1,0-0.2,0-0.3-0.1C6.3,6.2,6.2,6.1,6.2,5.9z"/>
		<path class="st145" d="M5.7,5.5c0-0.1,0-0.3,0-0.4c0.2,0,0.3,0.3,0.5,0.2c0,0,0,0.1,0,0.1C6,5.4,5.9,5.6,5.7,5.5L5.7,5.5
			C5.6,5.6,5.6,5.5,5.7,5.5C5.7,5.5,5.7,5.5,5.7,5.5z"/>
		<path class="st147" d="M5.7,5.6C5.9,5.5,6,5.4,6.2,5.4c0,0,0,0.1,0,0.1C6,5.5,6,5.8,5.7,5.6z"/>
		<path class="st148" d="M6.6,6.4c0.1,0,0.2,0,0.4,0c0,0.1,0,0.1,0,0.2c-0.1,0-0.2,0-0.3,0C6.5,6.7,6.2,6.7,6,6.6l0,0
			c0,0,0-0.1,0-0.1C6.2,6.3,6.4,6.5,6.6,6.4z"/>
		<path class="st116" d="M5.3,25.3c0.2,0.2,0.2,0.5,0.3,0.7c-0.3-0.2-0.5-0.4-0.8-0.6c0.1-0.2,0-0.5,0.1-0.7c0-0.2,0.2-0.3,0.3-0.4
			c0,0,0,0,0.1,0.1c0,0.1,0,0.2,0,0.4C5.3,24.9,5.2,25.1,5.3,25.3z"/>
		<path class="st149" d="M5.3,23.4c0.1,0.3,0.4,0.5,0.1,0.8c-0.1,0.1-0.1,0.2-0.3,0.2c0,0,0,0,0-0.1c-0.1-0.2-0.2-0.4-0.1-0.6
			C5.2,23.6,5.1,23.4,5.3,23.4z"/>
		<path class="st116" d="M4.6,25.2c-0.3,0.1-0.2,0.3-0.4,0.4c0-0.3-0.2-0.6,0.1-0.8C4.4,25,4.5,25.1,4.6,25.2z"/>
		<path class="st150" d="M4.9,24.7c0,0.2,0.1,0.5-0.1,0.7c-0.1,0-0.2,0-0.2-0.1C5.2,25.3,4.7,24.8,4.9,24.7z"/>
		<path class="st151" d="M5.3,23.4c-0.1,0.1-0.2,0.2-0.3,0.3c0,0,0-0.1,0-0.1C5.2,23.5,4.8,23.2,5.3,23.4
			C5.3,23.3,5.4,23.4,5.3,23.4z"/>
		<path class="st152" d="M4.8,23.4c0,0.1,0,0.1,0,0.2c-0.1-0.1-0.3-0.2-0.1-0.4C4.8,23.2,4.8,23.3,4.8,23.4z"/>
		<path class="st153" d="M4.5,23.1c-0.1,0.1-0.1,0.1-0.1,0.1c-0.1,0-0.1-0.1-0.1-0.1c0-0.1,0-0.1,0.1-0.1C4.5,22.9,4.5,23,4.5,23.1z
			"/>
		<path class="st154" d="M4.4,6.4c0,0,0.1-0.1,0.1-0.1c0.1-0.1,0.3-0.1,0.4-0.2c0.1-0.1,0.1,0,0.2,0.1C5.1,6.3,5,6.3,5,6.4
			c-0.1,0.1-0.3,0.1-0.4,0C4.5,6.4,4.5,6.4,4.4,6.4z"/>
		<path class="st155" d="M5.1,6.2c0,0-0.1-0.1-0.1-0.1C5.1,6,5.3,5.9,5.4,5.8c0,0,0,0.1,0,0.1C5.5,6.1,5.3,6.2,5.1,6.2z"/>
		<path class="st156" d="M5.7,5.5C5.7,5.5,5.7,5.5,5.7,5.5C5.6,5.6,5.6,5.6,5.6,5.6c-0.3,0-0.2-0.2-0.1-0.3c0,0,0.1,0,0.1,0
			C5.6,5.4,5.7,5.4,5.7,5.5z"/>
		<path class="st113" d="M5.6,5.3c0,0-0.1,0-0.1,0c-0.2-0.1,0-0.2,0-0.3C5.6,5,5.6,5.2,5.6,5.3z"/>
		<path class="st2" d="M4.6,6.4c0.1,0,0.3-0.1,0.4-0.1c0,0,0,0,0.1,0c0.1,0.1,0.1,0.1,0.1,0.2C5.1,6.8,4.8,6.6,4.7,6.7c0,0,0,0,0,0
			C4.4,6.7,4.6,6.5,4.6,6.4z"/>
		<path class="st157" d="M5.2,24.4c0.1-0.1,0.2-0.1,0.3-0.2c0,0.2-0.1,0.4-0.1,0.5c0,0-0.1,0.1-0.1,0C5.2,24.6,5.2,24.5,5.2,24.4z"
			/>
		<path class="st158" d="M5.9,24c-0.1-0.2-0.1-0.3,0-0.4C6,23.8,5.9,23.9,5.9,24z"/>
		<path class="st159" d="M5.2,24.8c0,0,0.1,0,0.1,0c0,0.2,0,0.3,0,0.5C5,25.1,5.3,24.9,5.2,24.8z"/>
		<path class="st131" d="M7,24.9C7.3,25,7.6,24.6,8,24.8C7.7,25,7.3,25,7,24.9z"/>
		<path class="st131" d="M7.2,21c0.3,0.1,0.3,0.3,0.2,0.4c0,0-0.1,0-0.2,0C7,21.4,7.1,21.2,7.2,21z"/>
		<path class="st131" d="M6.8,24.9c0-0.2,0-0.4,0-0.6c0.2,0.2,0.1,0.4,0.1,0.6C6.9,24.9,6.9,24.9,6.8,24.9z"/>
		<path class="st160" d="M4.7,6.7c0.1-0.1,0.3-0.1,0.4-0.2c0,0,0.1-0.1,0.1-0.1c0.2-0.1,0.5-0.2,0.7,0C6,6.4,6,6.5,6,6.5
			c0,0,0,0.1,0,0.1C5.5,6.7,5.1,6.7,4.7,6.7z"/>
		<path class="st161" d="M6,6.6c0.3,0,0.5,0,0.8,0C6.5,6.8,6.2,6.8,6,6.6z"/>
		<path class="st162" d="M6,6.4c-0.3,0-0.5,0.1-0.8,0.1C5.3,6.3,5,6.4,4.9,6.3c0,0,0,0,0,0c0,0,0.1-0.1,0.1-0.1
			C5.2,6.1,5.4,6,5.4,5.9c0.3-0.1,0.5-0.1,0.8,0C6.1,6.1,6.9,6.1,6.3,6.3C6.2,6.4,6.1,6.5,6,6.4z"/>
		<path class="st163" d="M6,6.4c0.1,0,0.3-0.1,0.4-0.1c0.1,0.1,0.2,0.1,0.3,0.1C6.4,6.6,6.2,6.5,6,6.5C6,6.5,6,6.5,6,6.4z"/>
		<path class="st164" d="M4.9,6.3c0.2,0,0.4,0,0.3,0.2c0,0-0.1,0-0.1,0C5,6.5,4.9,6.4,4.9,6.3z"/>
	</g>
</g>
</svg>
