<?xml version="1.0" encoding="utf-8"?>
<!-- Generator: Adobe Illustrator 22.0.0, SVG Export Plug-In . SVG Version: 6.00 Build 0)  -->
<svg version="1.1" id="Layer_1" xmlns="http://www.w3.org/2000/svg" xmlns:xlink="http://www.w3.org/1999/xlink" x="0px" y="0px"
	 viewBox="0 0 27 27" style="enable-background:new 0 0 27 27;" xml:space="preserve">
<style type="text/css">
	.st0{opacity:0.27;clip-path:url(#SVGID_2_);}
	.st1{fill:#1D3C1C;}
	.st2{opacity:8.000000e-02;clip-path:url(#SVGID_2_);}
	.st3{opacity:6.000000e-02;clip-path:url(#SVGID_2_);}
	.st4{fill:#CAE98B;}
	.st5{opacity:9.000000e-02;}
	.st6{opacity:0.26;}
	.st7{fill:#FFFFFF;}
	.st8{opacity:0.17;}
	.st9{fill:#154B0D;}
	.st10{opacity:8.000000e-02;clip-path:url(#SVGID_4_);}
	.st11{fill:#A6D85B;}
	.st12{opacity:0.16;clip-path:url(#SVGID_4_);}
	.st13{fill:#195410;}
	.st14{opacity:0.17;fill:#A6D85B;}
	.st15{opacity:0.66;}
	.st16{clip-path:url(#SVGID_6_);}
	.st17{fill:#C1E083;}
	.st18{fill:#4D9623;}
	.st19{fill:#DEF7A1;}
	.st20{clip-path:url(#SVGID_8_);}
	.st21{fill:#EBF9BB;}
	.st22{fill:#BBD073;}
	.st23{fill:#FFF5CC;}
	.st24{opacity:0.2;clip-path:url(#SVGID_10_);}
	.st25{fill:#BA044A;}
	.st26{opacity:0.26;clip-path:url(#SVGID_10_);}
	.st27{fill:#BC0902;}
	.st28{opacity:0.29;}
	.st29{fill:#FE6E27;}
	.st30{opacity:0.49;}
	.st31{fill:#B60807;}
	.st32{fill:#FEA489;}
	.st33{fill:#4E691C;}
	.st34{fill:#415613;}
	.st35{fill:#67822B;}
	.st36{fill:#E74B1B;}
	.st37{fill:#FECDA4;}
	.st38{opacity:0.55;}
	.st39{fill:#FFE793;}
	.st40{fill:#FECA90;}
	.st41{fill:#D51F12;}
	.st42{clip-path:url(#SVGID_12_);}
	.st43{opacity:0.4;fill:#FF8D4F;}
	.st44{opacity:0.4;clip-path:url(#SVGID_12_);}
	.st45{fill:#FF8D4F;}
	.st46{fill:#E5411C;}
	.st47{fill:#F46F40;}
	.st48{fill:#FFF29A;}
	.st49{fill:#FFE76D;}
	.st50{fill:#FEC085;}
	.st51{opacity:0.41;}
	.st52{fill:#FD6F3D;}
	.st53{fill:#DB270C;}
	.st54{fill:#335606;}
	.st55{opacity:0.32;clip-path:url(#SVGID_14_);}
	.st56{fill:#FFC188;}
	.st57{opacity:0.36;}
	.st58{opacity:0.32;clip-path:url(#SVGID_16_);}
	.st59{opacity:0.32;clip-path:url(#SVGID_18_);}
	.st60{opacity:0.48;}
	.st61{opacity:0.32;clip-path:url(#SVGID_20_);}
	.st62{opacity:0.32;clip-path:url(#SVGID_22_);}
	.st63{opacity:0.32;clip-path:url(#SVGID_24_);}
	.st64{opacity:0.32;clip-path:url(#SVGID_26_);}
	.st65{opacity:0.32;clip-path:url(#SVGID_28_);}
	.st66{opacity:0.58;}
	.st67{opacity:0.32;clip-path:url(#SVGID_30_);}
	.st68{opacity:0.32;clip-path:url(#SVGID_32_);}
	.st69{opacity:0.32;clip-path:url(#SVGID_34_);}
	.st70{opacity:0.32;clip-path:url(#SVGID_36_);}
	.st71{fill:#C8976B;}
	.st72{opacity:0.32;clip-path:url(#SVGID_38_);}
	.st73{fill:#FFCC88;}
	.st74{opacity:0.32;clip-path:url(#SVGID_40_);}
	.st75{opacity:0.32;clip-path:url(#SVGID_42_);}
	.st76{opacity:0.32;clip-path:url(#SVGID_44_);}
	.st77{opacity:0.32;clip-path:url(#SVGID_46_);}
	.st78{opacity:0.32;clip-path:url(#SVGID_48_);}
	.st79{opacity:0.32;clip-path:url(#SVGID_50_);}
	.st80{opacity:0.32;clip-path:url(#SVGID_52_);}
	.st81{opacity:0.32;clip-path:url(#SVGID_54_);}
	.st82{opacity:0.32;clip-path:url(#SVGID_56_);}
	.st83{opacity:0.32;clip-path:url(#SVGID_58_);}
	.st84{fill:#F87048;}
	.st85{fill:#FEFCFD;}
	.st86{fill:#9EBA3F;}
	.st87{fill:#6D9137;}
	.st88{fill:#A8C13F;}
	.st89{fill:#5D742E;}
	.st90{opacity:0.23;clip-path:url(#SVGID_60_);}
	.st91{fill:#D34A26;}
	.st92{opacity:0.59;clip-path:url(#SVGID_60_);}
	.st93{fill:#F1832E;}
	.st94{fill:#FDBE7B;}
	.st95{fill:#C55B2B;}
	.st96{opacity:0.6;}
	.st97{fill:#FFB97E;}
	.st98{fill:#F99E32;}
	.st99{fill:#BACE45;}
	.st100{fill:#C94F08;}
	.st101{fill:#DE6926;}
	.st102{opacity:0.15;clip-path:url(#SVGID_62_);}
	.st103{opacity:0.4;clip-path:url(#SVGID_62_);}
	.st104{opacity:0.11;}
	.st105{opacity:5.000000e-02;}
	.st106{fill:#D8600E;}
	.st107{opacity:0.15;clip-path:url(#SVGID_64_);}
	.st108{fill:#ED7B2E;}
	.st109{opacity:0.4;clip-path:url(#SVGID_64_);}
	.st110{opacity:0.2;clip-path:url(#SVGID_66_);}
	.st111{fill:#C3938F;}
	.st112{opacity:0.46;}
	.st113{fill:#F9EFED;}
	.st114{opacity:0.56;}
	.st115{clip-path:url(#SVGID_68_);}
	.st116{fill:#C89896;}
	.st117{opacity:0.78;clip-path:url(#SVGID_68_);}
	.st118{opacity:0.54;clip-path:url(#SVGID_68_);}
	.st119{opacity:0.41;clip-path:url(#SVGID_68_);}
	.st120{opacity:0.18;clip-path:url(#SVGID_70_);}
	.st121{fill:#AA3A47;}
	.st122{opacity:0.53;}
	.st123{opacity:0.34;}
	.st124{fill:#F7D5D7;}
	.st125{opacity:0.45;clip-path:url(#SVGID_72_);}
	.st126{fill:#FEF6F6;}
	.st127{opacity:0.22;}
	.st128{clip-path:url(#SVGID_74_);}
	.st129{fill:#D8ACAB;}
	.st130{opacity:0.18;}
	.st131{fill:#FEFEFE;}
</style>
<g>
	<g>
		<g>
			<defs>
				<path id="SVGID_1_" d="M10.6,6.4c0.3,0.3,2.7,2.4,3.2,3.5c0.2,0.4,0.4,1,0.3,1.4c-0.2,0.8-1,0.8-1.7,0.6
					c-1.4-0.4-2.4-1.3-3.7-2.1C7.3,8.9,6.1,7.9,5,6.7c-0.4-0.4-0.9-0.9-1-1.5C3.8,4.6,3.9,3.9,4.4,3.5c0.4-0.2,1-0.2,1.4-0.1
					C6.8,3.7,9.6,5.5,10.6,6.4z"/>
			</defs>
			<use xlink:href="#SVGID_1_"  style="overflow:visible;fill:#1D3C1C;"/>
			<clipPath id="SVGID_2_">
				<use xlink:href="#SVGID_1_"  style="overflow:visible;"/>
			</clipPath>
			<g class="st0">
				<path class="st1" d="M2.8,3.4C2.1,4.4,3,5.6,3.5,6.4c0.9,1.3,1.9,2.4,3,3.4c1,1,2.2,1.9,3.4,2.8c1.2,0.9,2.7,1.8,4.2,1.1
					c0.5-0.2,0.7-0.8,0.6-1.3c-0.2-1.4-1.3-1.7-2.4-2.3C11.2,9.6,10.1,8.8,9.1,8C8,7.2,7,6.4,6,5.5C5.1,4.8,4.4,3.8,3.4,3.3
					C3.2,3.1,2.9,3.2,2.8,3.4L2.8,3.4z"/>
			</g>
			<g class="st2">
				<path class="st1" d="M2.3,3.8C1.6,4.8,2.5,6.1,3,6.9C3.9,8.2,5,9.3,6,10.3c1,1,2.2,1.9,3.4,2.8c1.2,0.9,2.7,1.8,4.2,1.1
					c0.5-0.2,0.7-0.8,0.6-1.3c-0.2-1.4-1.3-1.7-2.4-2.3C10.7,10,9.6,9.2,8.6,8.4C7.5,7.6,6.5,6.8,5.5,6C4.6,5.3,3.9,4.3,2.9,3.7
					C2.7,3.6,2.4,3.6,2.3,3.8L2.3,3.8z"/>
			</g>
			<g class="st2">
				<path class="st1" d="M2,4.3c-0.7,1,0.2,2.2,0.8,3.1c0.9,1.3,1.9,2.4,3,3.4c1,1,2.2,1.9,3.4,2.8c1.2,0.9,2.7,1.8,4.2,1.1
					c0.5-0.2,0.7-0.8,0.6-1.3c-0.2-1.4-1.3-1.7-2.4-2.3c-1.1-0.7-2.2-1.5-3.3-2.3c-1-0.8-2.1-1.6-3.1-2.4C4.4,5.7,3.6,4.8,2.7,4.2
					C2.5,4.1,2.2,4.1,2,4.3L2,4.3z"/>
			</g>
			<g class="st3">
				<path class="st4" d="M15.7,11.4c0.7-1-0.2-2.2-0.8-3.1C14.1,7,13,6,11.9,4.9c-1.1-1-2.2-1.9-3.4-2.8C7.3,1.2,5.8,0.3,4.3,1
					C3.8,1.3,3.6,1.8,3.7,2.3C3.9,3.7,5,4,6.1,4.6c1.1,0.7,2.3,1.5,3.3,2.2c1,0.8,2.1,1.6,3.1,2.4c0.9,0.7,1.6,1.7,2.6,2.2
					C15.3,11.6,15.6,11.6,15.7,11.4L15.7,11.4z"/>
			</g>
			<g class="st3">
				<path class="st4" d="M16.1,10.8c0.7-1-0.2-2.2-0.8-3.1c-0.9-1.3-1.9-2.4-3-3.4c-1.1-1-2.2-1.9-3.4-2.8C7.6,0.6,6.1-0.2,4.6,0.5
					C4.2,0.7,3.9,1.3,4,1.8c0.3,1.4,1.4,1.7,2.4,2.3c1.1,0.7,2.3,1.5,3.3,2.2c1,0.8,2.1,1.6,3.1,2.4c0.9,0.7,1.6,1.7,2.6,2.2
					C15.7,11.1,15.9,11,16.1,10.8L16.1,10.8z"/>
			</g>
		</g>
		<g class="st5">
			<path class="st4" d="M4.8,3.9c0.5,0.5,1.4,0.9,2,1.3C7.7,5.7,8.5,6.4,9.3,7c0.7,0.5,1.4,1.3,2,1.9c0.6,0.6,1.1,1.4,1.8,1.8
				c0.2,0.1,0.6,0,0.5-0.3c-0.2-0.8-0.9-1.4-1.4-2c-0.6-0.7-1.4-1.4-2.1-2C9.4,5.8,8.6,5.3,7.8,4.8c-0.9-0.5-1.9-0.7-2.9-1
				C4.8,3.8,4.8,3.9,4.8,3.9L4.8,3.9z"/>
		</g>
		<g class="st6">
			<path class="st7" d="M10.5,7.3c0.2,0.1,0.4,0.3,0.6,0.4c0.1,0,0.1-0.1,0.1-0.1c-0.2-0.2-0.4-0.3-0.6-0.4
				C10.5,7.1,10.4,7.2,10.5,7.3L10.5,7.3z"/>
		</g>
		<g class="st6">
			<path class="st7" d="M11.7,8.3C12,8.6,12.3,9,12.5,9.4c0.2,0.4,0.4,0.8,0.6,1.1c0.1,0.1,0.2,0.1,0.2-0.1
				C13.4,9.6,12.4,8.7,11.7,8.3C11.7,8.1,11.6,8.2,11.7,8.3L11.7,8.3z"/>
		</g>
		<g>
			<path class="st1" d="M12.6,10.9C12.6,10.9,12.6,10.9,12.6,10.9c-0.2,0-0.1,0.3,0.1,0.2c0,0,0,0,0,0C12.7,11,12.7,10.9,12.6,10.9
				L12.6,10.9z"/>
		</g>
		<g>
			<path class="st1" d="M12,10.6C12,10.6,12,10.6,12,10.6c0.1,0.1,0.1,0,0.1,0c0,0,0,0,0,0C12.1,10.4,11.9,10.5,12,10.6L12,10.6z"/>
		</g>
		<g>
			<path class="st1" d="M10.9,10.4C10.9,10.4,10.9,10.4,10.9,10.4C11,10.4,11,10.4,10.9,10.4C11,10.4,11,10.4,10.9,10.4
				c0.1-0.1,0.1-0.1,0-0.1C10.9,10.3,10.9,10.4,10.9,10.4L10.9,10.4z"/>
		</g>
		<g>
			<path class="st1" d="M11.5,8.9C11.5,8.9,11.5,8.9,11.5,8.9C11.4,9,11.6,9.2,11.7,9c0,0,0,0,0,0C11.8,8.8,11.6,8.7,11.5,8.9
				L11.5,8.9z"/>
		</g>
		<g>
			<path class="st1" d="M10.9,9.2c0.2,0,0.2-0.3,0-0.3S10.7,9.2,10.9,9.2L10.9,9.2z"/>
		</g>
		<g>
			<path class="st1" d="M10.3,9.8c0.2,0,0.2-0.3,0-0.3S10.1,9.8,10.3,9.8L10.3,9.8z"/>
		</g>
		<g>
			<path class="st1" d="M9.5,9.7c0.1,0,0-0.2-0.1-0.1C9.3,9.6,9.4,9.8,9.5,9.7L9.5,9.7z"/>
		</g>
		<g>
			<path class="st1" d="M9.7,9c0.1,0,0.1-0.2,0-0.2C9.6,8.8,9.6,9,9.7,9L9.7,9z"/>
		</g>
		<g>
			<path class="st1" d="M8.5,8.8c0.2,0,0.2-0.3,0-0.3C8.3,8.5,8.3,8.8,8.5,8.8L8.5,8.8z"/>
		</g>
		<g>
			<path class="st1" d="M8.9,9.4c0.1,0,0.1-0.2,0-0.2S8.8,9.4,8.9,9.4L8.9,9.4z"/>
		</g>
		<g>
			<path class="st1" d="M9.4,7.8c0.2,0,0.2-0.3,0-0.3C9.2,7.5,9.2,7.8,9.4,7.8L9.4,7.8z"/>
		</g>
		<g>
			<path class="st1" d="M7.8,7.7c0.2,0,0.2-0.3,0-0.3C7.6,7.4,7.6,7.7,7.8,7.7L7.8,7.7z"/>
		</g>
		<g>
			<path class="st1" d="M7.6,8.3C7.7,8.2,7.5,8,7.4,8.1C7.3,8.3,7.5,8.5,7.6,8.3L7.6,8.3z"/>
		</g>
		<g>
			<path class="st1" d="M8.3,8.1c0.1,0,0.1-0.2,0-0.2S8.1,8.1,8.3,8.1L8.3,8.1z"/>
		</g>
		<g>
			<path class="st1" d="M6.6,7.2C6.6,7.2,6.6,7.2,6.6,7.2c0.1,0,0.1,0,0.1,0c0-0.1,0-0.1,0-0.1C6.6,6.9,6.5,7.1,6.6,7.2L6.6,7.2z"/>
		</g>
		<g>
			<path class="st1" d="M6.3,6.2C6.3,6.2,6.3,6.2,6.3,6.2C6.3,6.2,6.3,6.2,6.3,6.2L6.3,6.2z"/>
		</g>
		<g>
			<path class="st1" d="M6.3,6.3c0.1,0,0.1-0.1,0-0.1C6.2,6.1,6.2,6.3,6.3,6.3L6.3,6.3z"/>
		</g>
		<g>
			<path class="st1" d="M7.6,5.4c0.1,0,0.1-0.2,0-0.2C7.5,5.2,7.5,5.4,7.6,5.4L7.6,5.4z"/>
		</g>
		<g>
			<path class="st1" d="M8.5,5.6c0-0.1-0.1-0.2-0.2-0.1C8.2,5.6,8.5,5.7,8.5,5.6L8.5,5.6z"/>
		</g>
		<g>
			<path class="st1" d="M9.1,6.7c0.1,0,0.1-0.2,0-0.2S9,6.7,9.1,6.7L9.1,6.7z"/>
		</g>
		<g>
			<path class="st1" d="M9.9,6.8c0.1,0,0.1-0.2,0-0.2S9.8,6.8,9.9,6.8L9.9,6.8z"/>
		</g>
		<g>
			<path class="st1" d="M6.5,4.5C6.5,4.5,6.5,4.5,6.5,4.5c0,0.1,0,0.1,0,0.1c0,0,0,0,0,0c0.1,0.1,0.2,0,0.1-0.1
				C6.6,4.4,6.5,4.4,6.5,4.5L6.5,4.5z"/>
		</g>
		<g>
			<path class="st1" d="M5.8,4c0.1,0,0.1-0.2,0-0.2C5.6,3.8,5.6,4,5.8,4L5.8,4z"/>
		</g>
		<g>
			<path class="st1" d="M5.6,4.8C5.6,4.8,5.6,4.8,5.6,4.8C5.5,4.9,5.6,5,5.7,5c0.1,0,0.1-0.2,0-0.3c0,0,0,0,0,0
				C5.7,4.7,5.6,4.7,5.6,4.8L5.6,4.8z"/>
		</g>
		<g>
			<path class="st1" d="M5.1,3.8C5.1,3.8,5.1,3.8,5.1,3.8c0.1,0,0.1,0,0.1-0.1c0,0,0-0.1,0-0.1C5,3.5,4.9,3.7,5.1,3.8L5.1,3.8z"/>
		</g>
		<g>
			<path class="st1" d="M4.5,4.4c0.1,0,0.1-0.2,0-0.2S4.3,4.4,4.5,4.4L4.5,4.4z"/>
		</g>
		<g>
			<path class="st1" d="M4.9,4.9C4.9,4.9,4.9,4.8,4.9,4.9C4.8,4.8,4.8,4.9,4.9,4.9L4.9,4.9z"/>
		</g>
		<g>
			<path class="st1" d="M4.5,5.6c0.1,0,0.1-0.2,0-0.2C4.3,5.4,4.3,5.6,4.5,5.6L4.5,5.6z"/>
		</g>
		<g>
			<path class="st1" d="M5.3,5.6c0.1,0,0.1-0.2,0-0.2S5.2,5.6,5.3,5.6L5.3,5.6z"/>
		</g>
		<g>
			<path class="st1" d="M5.3,6.3C5.3,6.3,5.3,6.3,5.3,6.3c0.1,0,0.2-0.1,0.1-0.2c0,0,0,0,0,0C5.3,6,5.1,6.3,5.3,6.3L5.3,6.3z"/>
		</g>
		<g>
			<path class="st1" d="M5.7,6.6C5.7,6.6,5.7,6.6,5.7,6.6c0,0.1,0.1,0.2,0.1,0.1c0,0,0,0,0,0C6,6.5,5.8,6.4,5.7,6.6L5.7,6.6z"/>
		</g>
		<g>
			<path class="st1" d="M5.9,7.3c0.2,0,0.2-0.2,0-0.2S5.8,7.3,5.9,7.3L5.9,7.3z"/>
		</g>
		<g class="st8">
			<path class="st4" d="M10.3,9.7c0.1,0,0.1-0.2,0-0.2C10.2,9.5,10.2,9.7,10.3,9.7L10.3,9.7z"/>
		</g>
		<g class="st8">
			<path class="st4" d="M11.2,10C11.2,10,11.2,10,11.2,10C11.2,10,11.2,10,11.2,10L11.2,10z"/>
		</g>
		<g class="st8">
			<path class="st4" d="M11.6,10.6c0.1,0,0.1-0.2,0-0.2S11.5,10.6,11.6,10.6L11.6,10.6z"/>
		</g>
		<g class="st8">
			<path class="st4" d="M12,11C12,11,12,11,12,11C12,11,12,11,12,11C12,11,12,11,12,11C11.9,10.9,11.9,11.1,12,11L12,11z"/>
		</g>
		<g class="st8">
			<path class="st4" d="M8.6,8.6C8.6,8.6,8.6,8.6,8.6,8.6C8.5,8.6,8.5,8.6,8.6,8.6C8.5,8.7,8.5,8.7,8.6,8.6C8.5,8.7,8.6,8.7,8.6,8.6
				C8.6,8.7,8.6,8.7,8.6,8.6C8.6,8.6,8.6,8.6,8.6,8.6L8.6,8.6z"/>
		</g>
		<g class="st8">
			<path class="st4" d="M7.9,7.7c0.1,0,0.1-0.2,0-0.2C7.8,7.5,7.8,7.7,7.9,7.7L7.9,7.7z"/>
		</g>
		<g class="st8">
			<path class="st4" d="M9.9,7.1C9.9,7.1,9.9,7,9.9,7.1C9.8,7,9.8,7.1,9.9,7.1L9.9,7.1z"/>
		</g>
		<g class="st8">
			<path class="st4" d="M10.4,8.3C10.4,8.3,10.4,8.3,10.4,8.3C10.4,8.3,10.5,8.3,10.4,8.3C10.5,8.3,10.5,8.3,10.4,8.3
				C10.6,8.2,10.3,8.2,10.4,8.3L10.4,8.3z"/>
		</g>
		<g class="st8">
			<path class="st4" d="M10.8,9c0.1,0,0.1-0.1,0-0.1C10.7,8.9,10.7,9,10.8,9L10.8,9z"/>
		</g>
		<g class="st8">
			<path class="st4" d="M8.8,7.2C8.8,7.2,8.8,7.2,8.8,7.2C8.8,7.2,8.8,7.2,8.8,7.2L8.8,7.2z"/>
		</g>
		<g class="st8">
			<path class="st4" d="M8.8,7.3c0.1,0,0.1-0.1,0-0.1C8.7,7.2,8.7,7.3,8.8,7.3L8.8,7.3z"/>
		</g>
		<g class="st8">
			<path class="st4" d="M9.6,7.9c0.2,0,0.2-0.2,0-0.2C9.4,7.7,9.4,7.9,9.6,7.9L9.6,7.9z"/>
		</g>
		<g class="st8">
			<path class="st4" d="M7.4,6c0.1,0,0.1-0.2,0-0.2C7.3,5.8,7.3,6,7.4,6L7.4,6z"/>
		</g>
		<g class="st8">
			<path class="st4" d="M6.9,6.7c0.1,0,0.1-0.2,0-0.2C6.8,6.5,6.8,6.7,6.9,6.7L6.9,6.7z"/>
		</g>
	</g>
	<path class="st9" d="M7.9,12C8,12.2,8,12.5,8,12.7c0,0.1,0,0.2,0.1,0.3c0.1,0.1,0.2,0.2,0.3,0.3c0.5,0.3,0.8,0.4,1.4,0.4
		c0.3,0,1-0.1,1.2-0.2c0.6-0.3,0.8-0.4,1.1-0.8c0.2-0.3,0.2-0.6,0.1-0.7c0-0.3-0.2-0.7-0.4-1c-0.2,0.4-0.6,0.9-1,1
		C10,12.2,8.9,12.1,7.9,12z"/>
	<path class="st4" d="M9,10.8c0.4-0.2,0.8-0.3,1.2-0.4c0.4-0.1,1-0.1,1.3,0.1c0.3,0.1,0.4,0.2,0.5,0.5c0,0.1,0.1,0.2,0.1,0.3
		c0,0.4-0.2,0.8-0.5,1.1c-0.1,0.1-0.2,0.2-0.4,0.3c-0.9,0.4-1.9,0.4-2.4,0.2c-0.3-0.1-0.8-0.4-0.9-0.7C7.9,11.8,8.1,11.2,9,10.8z"/>
	<path class="st4" d="M3.6,11C3.8,11.3,4,11.8,4,12.2c0,0.4-0.2,0.8-0.4,1.1c-0.1,0.1-0.5,0.4-1.3,0.2c-0.4-0.1-0.7-0.4-1-0.8
		c-0.2-0.3-0.2-0.5-0.3-0.8c-0.1-0.3-0.1-0.7,0-0.9c0.2-0.6,0.5-0.9,1.1-0.9C2.6,10.1,3.3,10.5,3.6,11z"/>
	<g>
		<defs>
			<path id="SVGID_3_" d="M9.9,6.5C9.7,5.9,9,5.7,8.4,5.7c-0.6,0.1-1.7,0.7-2.2,1C4.7,7.5,3.4,8.5,2.2,9.6C2,9.8,1.8,10,1.6,10.1
				c0.2,0,0.3-0.1,0.5-0.1c0.6,0,1.1,0.4,1.5,1c0.2,0.3,0.4,0.7,0.4,1.2c0,0.4-0.1,0.8-0.4,1.1c0.8-0.5,1.4-1,1.6-1.1
				c1.1-0.7,4-3.4,4.5-4.3C9.9,7.5,10.1,6.9,9.9,6.5z"/>
		</defs>
		<use xlink:href="#SVGID_3_"  style="overflow:visible;fill:#195410;"/>
		<clipPath id="SVGID_4_">
			<use xlink:href="#SVGID_3_"  style="overflow:visible;"/>
		</clipPath>
		<g class="st10">
			<path class="st11" d="M10,5.8C9.8,6.8,9,7.2,8.4,7.9C7.7,8.7,6.8,9.4,5.9,10c-0.8,0.7-1.7,1.3-2.5,2c-0.6,0.5-1.5,1.2-0.8,2
				c0.2,0.2,0.6,0.3,0.9,0.2c1-0.3,1.7-1.2,2.4-1.8c0.8-0.7,1.7-1.4,2.5-2.1c0.7-0.7,1.4-1.6,1.8-2.5c0.3-0.5,0.7-1.5,0.3-2
				c-0.1-0.1-0.2-0.1-0.2,0L10,5.8z"/>
		</g>
		<g class="st10">
			<path class="st11" d="M10.3,6.5c-0.2,0.9-1,1.4-1.6,2.1C7.9,9.4,7.1,10,6.2,10.7c-0.8,0.7-1.7,1.3-2.5,2c-0.6,0.5-1.5,1.2-0.8,2
				C3.1,15,3.5,15.1,3.8,15c1-0.3,1.7-1.2,2.4-1.8C7,12.5,7.9,11.8,8.7,11c0.7-0.7,1.4-1.6,1.8-2.5c0.3-0.5,0.7-1.5,0.3-2
				c-0.1-0.1-0.2-0.1-0.2,0L10.3,6.5z"/>
		</g>
		<g class="st12">
			<path class="st13" d="M10.1,5.3c-1.6-0.5-3.7,0.9-5,1.8C4.3,7.7,3.5,8.3,2.7,8.9c-0.8,0.6-1.6,1.2-2.4,1.9
				c-0.8,0.8,0.2,2,1.2,1.5c1.7-0.9,3-2.5,4.6-3.6c0.7-0.5,1.5-1.2,2.2-1.7c0.7-0.4,1.1-0.7,1.5-0.9C10.1,6.1,10.3,5.4,10.1,5.3
				L10.1,5.3z"/>
		</g>
		<g class="st12">
			<path class="st13" d="M9.3,4.9c-1.6-0.5-3.7,0.9-5,1.8C3.5,7.2,2.7,7.9,1.9,8.5c-0.8,0.6-1.6,1.2-2.4,1.9c-0.8,0.8,0.2,2,1.2,1.5
				c1.7-0.9,3-2.5,4.6-3.6C6,7.8,6.8,7.1,7.5,6.7c0.7-0.4,1.1-0.7,1.5-0.9C9.3,5.7,9.5,4.9,9.3,4.9L9.3,4.9z"/>
		</g>
		<g class="st12">
			<path class="st13" d="M8.8,4.8c-1.6-0.5-3.7,0.9-5,1.8C3,7.1,2.2,7.8,1.4,8.4C0.6,9.1-0.2,9.7-1,10.4c-0.8,0.8,0.2,2,1.2,1.5
				c1.7-0.9,3-2.5,4.6-3.6C5.5,7.7,6.3,7,7,6.6c0.7-0.4,1.1-0.7,1.5-0.9C8.8,5.6,9,4.9,8.8,4.8L8.8,4.8z"/>
		</g>
	</g>
	<path class="st14" d="M9.2,6.3C8.4,6.9,7.5,7.8,6.8,8.5C5.9,9.3,5.2,10,4.3,10.7c-0.5,0.4-0.3,1.5,0.5,1.1c1.2-0.5,2.3-1.6,3.1-2.5
		c0.6-0.8,1.5-1.7,1.7-2.7C9.7,6.4,9.4,6.2,9.2,6.3z"/>
	<g class="st15">
		<path class="st7" d="M8.2,8.6c-0.5,0.5-1.1,1-1.7,1.4C6,10.4,5.4,10.7,5,11.2c-0.1,0.1,0,0.3,0.2,0.3c0.6-0.3,1.2-0.8,1.7-1.2
			C7.5,9.8,8,9.3,8.3,8.7C8.4,8.6,8.3,8.5,8.2,8.6L8.2,8.6z"/>
	</g>
	<g>
		<defs>
			<path id="SVGID_5_" d="M3.6,11C3.8,11.3,4,11.8,4,12.2c0,0.4-0.2,0.8-0.4,1.1c-0.1,0.1-0.5,0.4-1.3,0.2c-0.4-0.1-0.7-0.4-1-0.8
				c-0.2-0.3-0.2-0.5-0.3-0.8c-0.1-0.3-0.1-0.7,0-0.9c0.2-0.6,0.5-0.9,1.1-0.9C2.6,10.1,3.3,10.5,3.6,11z"/>
		</defs>
		<clipPath id="SVGID_6_">
			<use xlink:href="#SVGID_5_"  style="overflow:visible;"/>
		</clipPath>
		<g class="st16">
			<path class="st17" d="M1.5,10.7C1.1,10.9,1,11.4,1,11.8c0,0.5,0.2,1.1,0.6,1.4c0.8,0.9,2,0.1,2.4-0.8c0.3-1-0.5-2.3-1.5-2.5
				C2,9.9,1.6,10.1,1.3,10.5C1,10.9,1,11.7,1.3,12c0.2,0.1,0.4,0.1,0.5-0.1C1.9,11.8,1.9,11,2.3,11c0.4,0.1,0.7,0.8,0.6,1.1
				c-0.1,0.4-0.4,0.3-0.6,0.1C2.1,12,2,11.7,1.9,11.5c-0.1-0.2-0.1-0.5-0.2-0.7C1.7,10.7,1.6,10.7,1.5,10.7L1.5,10.7z"/>
		</g>
		<g class="st16">
			<path class="st18" d="M0.9,11c-0.2,1,0.2,2.3,1.2,2.6c1,0.4,1.9,0,2-1.1c0.1-1-0.2-2.2-1.2-2.5c-1.2-0.4-1.9,0.3-2,1.5
				c0,0.1,0.2,0.2,0.1,0c0-0.5,0-0.6,0.1-0.8c0.3-0.6,1.1-0.7,1.6-0.4c1.1,0.7,1.1,1.3,1.1,1.9c-0.1,1.3-1.4,1.4-2.1,0.9
				c-0.6-0.5-0.7-1.5-0.7-2.3C1.1,10.8,1,10.9,0.9,11L0.9,11z"/>
		</g>
	</g>
	<g>
		<path class="st19" d="M1.9,11c-0.2,0-0.4,0.3-0.4,0.5c0,0.3,0,0.6,0.1,0.8c0.1,0.3,0.5,0.6,0.8,0.6c0.4,0,0.7-0.3,0.9-0.6
			c0.3-0.6,0-1.4-0.7-1.6c-0.6-0.2-1.4,0.4-1,1C1.7,11.9,2,11.8,2,11.6c0.1-0.2,0.1-0.4,0.4-0.3c0.3,0.1,0.3,0.5,0.3,0.8
			c-0.1,0.4-0.4,0.1-0.5-0.1c-0.1-0.2-0.2-0.6-0.1-0.8C2.1,11.1,2,11,1.9,11L1.9,11z"/>
	</g>
	<g>
		<path class="st19" d="M10.4,10.8c-0.6-0.4-1.5,0.3-1.7,0.9c-0.3,0.9,1.1,0.9,1.6,0.8c0.7-0.1,1.7-0.8,1-1.6
			c-0.5-0.6-1.6-0.1-2.1,0.1c-0.2,0.1-0.1,0.3,0.1,0.3c0.4-0.1,0.9-0.2,1.3-0.2c0.2,0,0.4,0.2,0.3,0.4c-0.1,0.2-0.4,0.3-0.6,0.4
			c-0.2,0-1.3,0.2-1.2-0.2c0.1-0.5,0.8-0.8,1.2-0.8C10.4,11,10.5,10.9,10.4,10.8L10.4,10.8z"/>
	</g>
	<g>
		<defs>
			<path id="SVGID_7_" d="M9,10.8c0.4-0.2,0.8-0.3,1.2-0.4c0.4-0.1,1-0.1,1.3,0.1c0.3,0.1,0.4,0.2,0.5,0.5c0,0.1,0.1,0.2,0.1,0.3
				c0,0.4-0.2,0.8-0.5,1.1c-0.1,0.1-0.2,0.2-0.4,0.3c-0.9,0.4-1.9,0.4-2.4,0.2c-0.3-0.1-0.8-0.4-0.9-0.7C7.9,11.8,8.1,11.2,9,10.8z"
				/>
		</defs>
		<clipPath id="SVGID_8_">
			<use xlink:href="#SVGID_7_"  style="overflow:visible;"/>
		</clipPath>
		<g class="st20">
			<path class="st17" d="M9,11c-0.4-0.1-0.9,0.2-1,0.6c-0.2,0.4-0.1,1,0.3,1.2c1,0.6,3.1,0.2,3.7-0.7c0.6-0.8-0.2-1.7-1.1-1.8
				c-0.8-0.1-2.4,0.3-2.6,1.3c0,0.2,0.6,0.5,0.5,0.3c0-0.5,0.6-0.7,1.1-0.8c0.3-0.1,1.3-0.4,1.5,0.1c0.2,0.5-0.8,1-1.1,1.1
				c-0.7,0.2-2.1-0.2-1.1-1.1C9.1,11.2,9.1,11,9,11L9,11z"/>
		</g>
		<g class="st20">
			<path class="st18" d="M8,11.9c0.3-1.2,1.8-1.5,2.9-1.5c1.3,0.1,1.3,1.1,0.8,1.7c-0.3,0.3-0.8,0.6-1.3,0.7C9.5,13,8.2,12.7,8,11.9
				c0-0.1-0.1-0.4-0.1-0.3c-0.2,1,0.7,1.7,1.6,1.7c1,0,2.9-0.9,2.8-2c-0.1-2-4.9-0.9-4.7,0.9c0,0,0.3,0,0.3-0.1L8,11.9z"/>
		</g>
	</g>
	<g>
		<path class="st21" d="M2.2,12c0,0.2,0,0.3-0.1,0.5c0,0.2-0.1,0.3-0.1,0.5C2,13,2.1,13,2.2,13c0.2-0.2,0.3-0.7,0.2-1
			C2.3,11.9,2.2,11.9,2.2,12L2.2,12z"/>
	</g>
	<g>
		<path class="st21" d="M2.3,11.7c0-0.2-0.1-0.3-0.3-0.4c-0.2-0.1-0.4-0.3-0.6-0.3c-0.1,0-0.1,0.2-0.1,0.2c0.1,0.1,0.3,0.2,0.5,0.3
			C2,11.6,2.1,11.7,2.3,11.7C2.3,11.7,2.3,11.7,2.3,11.7L2.3,11.7z"/>
	</g>
	<g>
		<path class="st21" d="M2.5,11.8c0.1,0,0.3,0,0.4,0c0.1,0,0.3,0,0.4-0.1c0,0,0-0.1,0-0.1c-0.1-0.2-0.3-0.1-0.5-0.1
			c-0.2,0-0.4,0.1-0.4,0.2C2.4,11.7,2.4,11.8,2.5,11.8L2.5,11.8z"/>
	</g>
	<g>
		<path class="st21" d="M10.1,11.5c0-0.2,0-0.4-0.1-0.7c0-0.1-0.1-0.1-0.1,0C9.8,11.1,9.9,11.4,10.1,11.5
			C10,11.6,10.1,11.6,10.1,11.5L10.1,11.5z"/>
	</g>
	<g>
		<path class="st21" d="M10,11.6c-0.3,0.1-0.6,0.2-0.8,0.5c-0.1,0.1,0,0.2,0.1,0.2c0.3-0.1,0.6-0.3,0.8-0.5
			C10.1,11.7,10,11.6,10,11.6L10,11.6z"/>
	</g>
	<g>
		<path class="st21" d="M10.3,11.8c0.3,0.1,0.5,0.2,0.8,0.2c0.1,0,0.1-0.2,0-0.2c-0.3-0.1-0.5-0.3-0.8-0.2
			C10.1,11.6,10.2,11.8,10.3,11.8L10.3,11.8z"/>
	</g>
	<g>
		<path class="st22" d="M2.1,11.1c0,0.1,0.1,0.1,0.1,0.2c0.1,0,0.1,0,0.1-0.1c0-0.1-0.1-0.2-0.1-0.2C2.2,10.9,2.1,11,2.1,11.1
			L2.1,11.1z"/>
	</g>
	<g>
		<path class="st22" d="M2.7,11.4c0.1,0,0.2-0.1,0.2-0.2c0-0.1,0-0.2-0.1-0.2c-0.1,0-0.2,0.1-0.2,0.2C2.5,11.4,2.6,11.4,2.7,11.4
			L2.7,11.4z"/>
	</g>
	<g>
		<path class="st22" d="M2.6,11c0,0,0.1-0.1,0.1-0.1c0-0.1,0-0.1-0.1-0.1c-0.1,0-0.1,0.1-0.1,0.1C2.4,11,2.5,11.1,2.6,11L2.6,11z"/>
	</g>
	<g>
		<path class="st22" d="M1.5,11.8c0.1,0.1,0.1,0.1,0.2,0.1c0.1,0,0.2-0.1,0.1-0.2c-0.1-0.1-0.1-0.1-0.2-0.1
			C1.5,11.6,1.4,11.7,1.5,11.8L1.5,11.8z"/>
	</g>
	<g>
		<path class="st22" d="M1.9,12c0,0.1-0.1,0.2,0,0.3c0,0.1,0.1,0.1,0.1,0.1c0.1-0.1,0.1-0.2,0.1-0.3C2.1,11.9,1.9,11.9,1.9,12
			L1.9,12z"/>
	</g>
	<g>
		<path class="st22" d="M1.5,12.2c0,0.1,0,0.1,0.1,0.2c0.1,0,0.1,0,0.2,0c0-0.1,0-0.2,0-0.3C1.7,12,1.5,12.1,1.5,12.2L1.5,12.2z"/>
	</g>
	<g>
		<path class="st22" d="M2.7,12.1c0.1,0.1,0.1,0.1,0.3,0.1c0.1,0,0.1-0.1,0-0.1C2.9,12,2.8,12,2.7,11.9C2.7,11.9,2.6,12,2.7,12.1
			L2.7,12.1z"/>
	</g>
	<g>
		<path class="st22" d="M2.6,12.4c0,0,0,0.1,0,0.1c0,0.1,0.1,0.2,0.2,0.2c0.1,0,0.2-0.1,0.2-0.2c0-0.1-0.1-0.2-0.2-0.2
			C2.7,12.3,2.6,12.3,2.6,12.4L2.6,12.4z"/>
	</g>
	<g>
		<path class="st22" d="M3,12.5c0.1,0,0.2,0,0.3-0.1c0,0,0-0.1,0-0.2c-0.1,0-0.2,0-0.2,0C2.9,12.3,3,12.4,3,12.5L3,12.5z"/>
	</g>
	<g>
		<path class="st22" d="M9.4,11.1c0,0.1,0,0.2,0,0.3c0,0.1,0.1,0.1,0.2,0.1c0,0,0.1-0.1,0.1-0.1c0-0.1-0.1-0.2-0.2-0.3
			C9.5,11,9.4,11,9.4,11.1L9.4,11.1z"/>
	</g>
	<g>
		<path class="st22" d="M9.1,11.8c0.1,0,0.3-0.1,0.4-0.2c0.1-0.1,0-0.1-0.1-0.1c-0.1,0-0.2,0.1-0.3,0.2C9,11.8,9,11.9,9.1,11.8
			L9.1,11.8z"/>
	</g>
	<g>
		<path class="st22" d="M9,11.4c0.1,0.1,0.2,0.1,0.2,0.1c0.1,0,0.1-0.1,0.1-0.2c-0.1-0.1-0.2-0.1-0.3,0C9,11.3,9,11.4,9,11.4L9,11.4
			z"/>
	</g>
	<g>
		<path class="st22" d="M10.4,11.4c0.1,0,0.2,0,0.2-0.1c0.1,0,0.1-0.1,0.1-0.2c0-0.1-0.1-0.2-0.1-0.1c-0.1,0-0.1,0.1-0.2,0.1
			C10.4,11.2,10.4,11.3,10.4,11.4C10.3,11.4,10.4,11.4,10.4,11.4L10.4,11.4z"/>
	</g>
	<g>
		<path class="st22" d="M10.4,11.1C10.4,11.1,10.4,11.1,10.4,11.1c0.1-0.1,0.1-0.1,0.1-0.2c0,0,0,0,0,0c0,0,0-0.1-0.1-0.1
			c0,0,0,0,0,0c0,0-0.1,0-0.1,0C10.3,11,10.3,11,10.4,11.1C10.3,11.1,10.3,11.2,10.4,11.1L10.4,11.1z"/>
	</g>
	<g>
		<path class="st22" d="M10.8,11.5c0.1,0,0.2,0.1,0.3,0c0,0,0-0.1,0-0.1c-0.1-0.1-0.2-0.1-0.3-0.1C10.7,11.4,10.7,11.5,10.8,11.5
			L10.8,11.5z"/>
	</g>
	<g>
		<path class="st22" d="M10.9,11.1c0.1,0.1,0.2,0.2,0.3,0.2c0.1,0,0.1-0.1,0.1-0.2c0-0.1-0.2-0.1-0.3-0.2
			C10.9,10.9,10.8,11,10.9,11.1L10.9,11.1z"/>
	</g>
	<g>
		<path class="st22" d="M10,12c0,0.1,0.1,0.2,0.2,0.2c0.1,0,0.1,0,0.1-0.1c0-0.1-0.1-0.2-0.2-0.2C10.1,11.9,10,11.9,10,12L10,12z"/>
	</g>
	<g>
		<path class="st22" d="M9.8,12.4c0.1,0.1,0.2,0.2,0.3,0.1c0.1,0,0.1-0.1,0.1-0.2c-0.1-0.1-0.2-0.1-0.3-0.1
			C9.8,12.1,9.8,12.3,9.8,12.4L9.8,12.4z"/>
	</g>
	<g>
		<path class="st22" d="M10.5,12.1c-0.1,0.1-0.1,0.2,0,0.3c0,0.1,0.1,0.1,0.1,0c0.1-0.1,0.1-0.3,0-0.4C10.7,12,10.6,12,10.5,12.1
			L10.5,12.1z"/>
	</g>
	<g class="st8">
		<path class="st23" d="M2.9,9.8C3,9.8,3,9.7,2.9,9.8C2.9,9.7,2.9,9.8,2.9,9.8L2.9,9.8z"/>
	</g>
	<g class="st8">
		<path class="st23" d="M4.2,9.3c0.1,0,0.1-0.2,0-0.2C4,9.1,4,9.3,4.2,9.3L4.2,9.3z"/>
	</g>
	<g class="st8">
		<path class="st23" d="M4.9,8.6C4.9,8.6,4.9,8.6,4.9,8.6C5,8.6,5,8.6,4.9,8.6C5,8.6,5,8.6,4.9,8.6C5.1,8.5,4.9,8.5,4.9,8.6L4.9,8.6
			z"/>
	</g>
	<g class="st8">
		<path class="st23" d="M5.5,7.8C5.5,7.8,5.5,7.8,5.5,7.8c0.1,0,0.1-0.1,0-0.1c0,0,0,0,0,0C5.4,7.6,5.4,7.8,5.5,7.8L5.5,7.8z"/>
	</g>
	<g class="st8">
		<path class="st23" d="M7.1,6.8c0.1,0,0.1-0.1,0-0.1S7,6.8,7.1,6.8L7.1,6.8z"/>
	</g>
	<g class="st8">
		<path class="st23" d="M6.7,7.9C6.8,7.9,6.8,7.8,6.7,7.9C6.7,7.8,6.7,7.9,6.7,7.9L6.7,7.9z"/>
	</g>
	<g class="st8">
		<path class="st23" d="M6.7,7.3c0.1,0,0.1-0.1,0-0.1C6.6,7.2,6.6,7.3,6.7,7.3L6.7,7.3z"/>
	</g>
	<g class="st8">
		<path class="st23" d="M5.9,7.3c0.1,0,0.1-0.1,0-0.1S5.9,7.3,5.9,7.3L5.9,7.3z"/>
	</g>
	<g class="st8">
		<path class="st23" d="M8.6,6.4C8.6,6.4,8.6,6.4,8.6,6.4C8.6,6.4,8.6,6.3,8.6,6.4C8.6,6.3,8.6,6.3,8.6,6.4C8.5,6.2,8.5,6.4,8.6,6.4
			L8.6,6.4z"/>
	</g>
	<g class="st8">
		<path class="st23" d="M8.2,6C8.3,6,8.3,6,8.2,6C8.2,6,8.2,6,8.2,6L8.2,6z"/>
	</g>
	<g class="st8">
		<path class="st23" d="M7.7,7.4c0.1,0,0.1-0.1,0-0.1C7.6,7.3,7.6,7.4,7.7,7.4L7.7,7.4z"/>
	</g>
	<g class="st8">
		<path class="st23" d="M5.3,9.3C5.3,9.2,5.3,9.2,5.3,9.3c0.1,0,0.1-0.2,0-0.1c0,0,0,0,0,0C5.2,9.2,5.2,9.3,5.3,9.3L5.3,9.3z"/>
	</g>
	<g class="st8">
		<path class="st23" d="M4.1,10.5c0.1,0,0.1-0.1,0-0.1C4,10.4,4,10.5,4.1,10.5L4.1,10.5z"/>
	</g>
	<g class="st8">
		<path class="st23" d="M3.5,9C3.5,9,3.5,9,3.5,9c0,0,0.1,0,0.1,0S3.5,8.9,3.5,9C3.5,9,3.5,9,3.5,9C3.4,9,3.4,9,3.5,9L3.5,9z"/>
	</g>
	<g class="st8">
		<path class="st23" d="M4.7,10.8c0.1,0,0.1-0.1,0-0.1C4.7,10.7,4.7,10.8,4.7,10.8L4.7,10.8z"/>
	</g>
	<g class="st8">
		<path class="st23" d="M4.5,12.2C4.6,12.2,4.6,12.1,4.5,12.2C4.4,12.1,4.4,12.2,4.5,12.2L4.5,12.2z"/>
	</g>
	<g class="st8">
		<path class="st23" d="M5.8,10.2c0.1,0,0.1-0.2,0-0.2C5.7,10,5.7,10.2,5.8,10.2L5.8,10.2z"/>
	</g>
	<g class="st8">
		<path class="st23" d="M6.8,9C6.8,9,6.8,9,6.8,9C6.8,9,6.8,9,6.8,9L6.8,9z"/>
	</g>
	<g class="st8">
		<path class="st23" d="M6.2,8.4c0.1,0,0.1-0.1,0-0.1S6.1,8.4,6.2,8.4L6.2,8.4z"/>
	</g>
	<g class="st8">
		<path class="st23" d="M7.9,8.1C8,8.1,8,8,7.9,8C7.8,8,7.8,8.1,7.9,8.1L7.9,8.1z"/>
	</g>
	<g class="st8">
		<path class="st23" d="M8.8,7.8c0.1,0,0.1-0.1,0-0.1C8.8,7.7,8.8,7.8,8.8,7.8L8.8,7.8z"/>
	</g>
	<g class="st8">
		<path class="st23" d="M9.3,7C9.3,7,9.3,7,9.3,7C9.4,7,9.4,6.9,9.3,7c0-0.1,0-0.1,0-0.1c0,0-0.1,0-0.1,0.1C9.2,7,9.3,7,9.3,7L9.3,7
			z"/>
	</g>
	<g>
		<polygon class="st1" points="4.1,9.2 4.1,9.2 4.1,9.2 		"/>
	</g>
	<g>
		<path class="st1" d="M4.7,8.7C4.7,8.7,4.7,8.7,4.7,8.7C4.7,8.7,4.7,8.7,4.7,8.7L4.7,8.7z"/>
	</g>
	<g>
		<polygon class="st1" points="4.9,8.6 4.9,8.5 4.9,8.6 		"/>
	</g>
	<g>
		<path class="st1" d="M5.4,7.8c0.1,0,0.1-0.2,0-0.2C5.3,7.6,5.3,7.8,5.4,7.8L5.4,7.8z"/>
	</g>
	<g>
		<path class="st1" d="M5.9,7.1C5.9,7.1,5.9,7.1,5.9,7.1c0-0.1-0.1,0-0.1,0C5.8,7.3,5.9,7.3,5.9,7.1C5.9,7.2,5.9,7.2,5.9,7.1
			C6,7.2,6,7.2,5.9,7.1L5.9,7.1z"/>
	</g>
	<g>
		<path class="st1" d="M5.5,8.5c0-0.1-0.1-0.1-0.1,0C5.4,8.5,5.5,8.6,5.5,8.5L5.5,8.5z"/>
	</g>
	<g>
		<path class="st1" d="M4.2,9.1C4.2,9.1,4.2,9.1,4.2,9.1C4.2,9,4,9,4,9.1c0,0,0,0,0,0C4,9.3,4.2,9.3,4.2,9.1L4.2,9.1z"/>
	</g>
	<g>
		<path class="st1" d="M3.5,9.6c0-0.1-0.1-0.1-0.1,0C3.4,9.7,3.5,9.7,3.5,9.6L3.5,9.6z"/>
	</g>
	<g>
		<path class="st1" d="M7.1,7.5c0.1,0,0.1-0.1,0-0.1C7,7.3,7,7.5,7.1,7.5L7.1,7.5z"/>
	</g>
	<g>
		<path class="st1" d="M7.6,6.8c0.1,0,0.2-0.1,0.1-0.2C7.5,6.6,7.4,6.8,7.6,6.8L7.6,6.8z"/>
	</g>
	<g>
		<path class="st1" d="M4.5,8.7C4.5,8.7,4.5,8.6,4.5,8.7C4.4,8.6,4.4,8.7,4.5,8.7L4.5,8.7z"/>
	</g>
	<g>
		<path class="st1" d="M3.7,10C3.7,10,3.7,10,3.7,10C3.6,10,3.6,10,3.7,10L3.7,10z"/>
	</g>
	<g>
		<path class="st1" d="M3.7,10C3.7,10,3.7,10,3.7,10C3.6,10,3.6,10,3.7,10L3.7,10z"/>
	</g>
	<g>
		<path class="st1" d="M3.4,10.3c0.1,0,0.1-0.2,0-0.2C3.3,10.2,3.3,10.3,3.4,10.3L3.4,10.3z"/>
	</g>
	<g>
		<path class="st1" d="M2.9,9.4c-0.1,0-0.1,0.1,0,0.1C3,9.5,3,9.4,2.9,9.4L2.9,9.4z"/>
	</g>
	<g>
		<path class="st1" d="M2.7,9.9C2.7,9.9,2.7,9.9,2.7,9.9c0.1-0.1,0.1-0.2,0-0.2c0,0,0,0,0,0C2.4,9.7,2.5,10,2.7,9.9L2.7,9.9z"/>
	</g>
	<g>
		<path class="st1" d="M5,8.3c0.1,0,0.1-0.2,0-0.2C4.9,8.1,4.9,8.3,5,8.3L5,8.3z"/>
	</g>
	<g>
		<path class="st1" d="M4.8,9.6c0.1,0,0.1-0.1,0-0.1C4.7,9.5,4.7,9.6,4.8,9.6L4.8,9.6z"/>
	</g>
	<g>
		<path class="st1" d="M4.4,10C4.5,10.1,4.5,10.1,4.4,10C4.5,10.1,4.5,10.1,4.4,10C4.5,10.1,4.5,10.1,4.4,10C4.5,10,4.5,10,4.4,10
			C4.4,10,4.4,10,4.4,10L4.4,10z"/>
	</g>
	<g>
		<path class="st1" d="M4.2,9.9c0.1,0,0.1-0.2,0-0.2C4.1,9.8,4.1,9.9,4.2,9.9L4.2,9.9z"/>
	</g>
	<g>
		<path class="st1" d="M4,11.1c0.1,0,0.1-0.1,0-0.1C3.9,10.9,3.9,11.1,4,11.1L4,11.1z"/>
	</g>
	<g>
		<path class="st1" d="M4.3,12.6C4.3,12.6,4.3,12.6,4.3,12.6C4.2,12.6,4.2,12.6,4.3,12.6L4.3,12.6z"/>
	</g>
	<g>
		<path class="st1" d="M4.2,12.6C4.2,12.6,4.2,12.6,4.2,12.6C4.2,12.6,4.2,12.6,4.2,12.6C4.2,12.6,4.2,12.6,4.2,12.6
			C4.3,12.5,4.2,12.5,4.2,12.6L4.2,12.6z"/>
	</g>
</g>
<g>
	<g>
		<g>
			<defs>
				<path id="SVGID_9_" d="M15.7,4.5c-0.3,0.2-0.6,0.4-0.8,0.6c-0.6,0.7-0.9,1.6-0.8,2.5c0.1,0.9,0.5,1.8,1.2,2.3
					c0.3,0.2,0.7,0.4,1.1,0.6c1.4,0.5,3,0.5,4.4,0c0.3-0.1,0.6-0.2,0.9-0.4c0.5-0.4,0.9-0.9,1.1-1.5c0.1-0.3,0.3-0.6,0.4-1
					c0.1-0.3,0.1-0.5,0.1-0.8c0-1.1-0.6-2.2-1.5-2.8C20.7,3.4,18,3.2,15.7,4.5z"/>
			</defs>
			<use xlink:href="#SVGID_9_"  style="overflow:visible;fill:#EA3017;"/>
			<clipPath id="SVGID_10_">
				<use xlink:href="#SVGID_9_"  style="overflow:visible;"/>
			</clipPath>
			<g class="st24">
				<path class="st25" d="M20.3,3.1c0.1-0.7-0.7-0.9-1.1-0.9c-1,0-4.1,1.4-4.7,2.1c-1.1,1.3-0.8,3.4-0.4,5c0.4,1.7,3.3,2.2,4.8,2.9
					c1.4,0.6,3.3,0.7,4.6-0.1c0.9-0.5,0.7-1.8-0.3-2C22.7,10,23.5,9.3,23,9.3c-0.4,0-2.1,0-2.8-0.2c-1.8-0.7-1.8-2-1.8-2.4
					c0-0.5,0-1.1,0.3-1.5c0.3-0.5,0.7-0.9,1.1-1.3c0.2-0.1,0.4-0.3,0.5-0.5c0.1-0.2-0.3,0.2,0,0C20.3,3.3,20.3,3.2,20.3,3.1
					L20.3,3.1z"/>
			</g>
			<g class="st26">
				<path class="st27" d="M19.8,3c0.1-0.7-1.8-0.5-2.3-0.6c-1,0-4.1,1.4-4.7,2.1c-1.1,1.3-0.8,3.4-0.4,5c0.4,1.7,3.3,2.2,4.8,2.9
					c1.4,0.6,3.3,0.7,4.6-0.1c0.9-0.5,2.1-2.4,1-2.5c-0.5-0.1-2.2,0.2-2.7,0.1c-2.4-0.3-3.1-1.2-3.3-1.7c-0.1-0.3-0.3-0.9-0.3-1.3
					c0-0.5,0.1-1.6,0.4-2c0.8-1.2,2.2-1.6,2.2-1.7L19.8,3z"/>
			</g>
			<g class="st26">
				<path class="st27" d="M18.5,3.3c0.1-0.7-1.8-0.5-2.3-0.6c-1,0-4.1,1.4-4.7,2.1c-1.1,1.3-0.8,3.4-0.4,5c0.4,1.7,3.3,2.2,4.8,2.9
					c1.4,0.6,3.3,0.7,4.6-0.1c0.9-0.5,0.7-1.8-0.3-2c-0.5-0.1-1-0.1-1.6-0.1c-0.4,0-1.1-0.1-1.3-0.2c-0.5-0.1-0.7-0.2-1.1-0.6
					c-0.2-0.2-0.5-0.7-0.7-1.2c-0.1-0.3-0.3-0.9-0.3-1.3c0-0.5,0.1-1.6,0.4-2c0.8-1.2,2.2-1.6,2.2-1.7L18.5,3.3z"/>
			</g>
			<g class="st26">
				<path class="st27" d="M17.9,3.3c0.1-0.7-1.8-0.5-2.3-0.6c-1,0-4.1,1.4-4.7,2.1c-1.1,1.3-0.8,3.4-0.4,5c0.4,1.7,3.3,2.2,4.8,2.9
					c1.4,0.6,3.3,0.7,4.6-0.1c0.9-0.5,0.7-1.8-0.3-2c-0.5-0.1-1-0.1-1.6-0.1c-0.4,0-1.1-0.1-1.3-0.2c-0.5-0.1-0.7-0.2-1.1-0.6
					c-0.2-0.2-0.5-0.7-0.7-1.2c-0.1-0.3-0.3-0.9-0.3-1.3c0-0.5,0.1-1.6,0.4-2c0.8-1.2,2.2-1.6,2.2-1.7L17.9,3.3z"/>
			</g>
		</g>
		<g class="st28">
			<path class="st29" d="M17.9,5.3c0.1,0.1,0.6,0.3,0.8,0.4c0.4,0.2,0.7,0.4,1,0.7c0.2,0.2,0.2,0.6,0.2,0.8c-0.1,0.5-0.4,1-0.4,1.6
				c0,0.6,0.4,1,1,1c1.4,0.1,2-1.3,2.1-2.5c0.1-1-0.4-2.1-1.1-2.8c-0.7-0.6-1.8-1-2.7-0.8c-0.3,0.1-0.9,0.2-1,0.6
				C17.6,4.8,17.6,5.1,17.9,5.3L17.9,5.3z"/>
		</g>
		<g class="st30">
			<path class="st29" d="M19.3,5.7c0.4,0.1,0.6,0.2,1,0.2c0.5,0,1-0.1,1.3-0.5c0.2-0.3,0.3-0.5,0.2-0.9c-0.1-0.4-0.5-0.7-0.9-0.7
				c-0.4,0-0.7,0.2-1,0.4c-0.2,0.1-0.4,0.3-0.7,0.3C18.7,4.7,18.7,5.5,19.3,5.7L19.3,5.7z"/>
		</g>
		<g class="st30">
			<path class="st31" d="M14.9,6.7c-0.5,0.7-0.2,1.8,0.3,2.5c0.6,0.7,1.6,1.3,2.5,0.9c0.5-0.2,0.6-0.8,0.1-1.1
				c-0.5-0.3-1-0.3-1.5-0.6c-0.5-0.3-0.9-1.1-1-1.6C15.3,6.5,15,6.5,14.9,6.7L14.9,6.7z"/>
		</g>
		<g>
			<path class="st32" d="M20.8,6.2c0.2,0,0.5,0,0.7,0c0.4-0.1,0.8-0.4,0.7-0.9c0-0.3-0.2-0.6-0.6-0.6c-0.4,0-0.6,0.2-0.8,0.5
				c0,0.1-0.1,0.2-0.1,0.2c0.1-0.1,0,0,0,0c0,0,0,0-0.1,0.1C20.4,5.7,20.5,6.1,20.8,6.2L20.8,6.2z"/>
		</g>
		<g>
			<path class="st33" d="M15,4.3c0.3,0,0.6,0,0.9,0.1c0.3,0.1,0.5,0.2,0.8,0.2c0.4,0,1,0.1,1.3-0.3c0.1-0.1,0.1-0.3,0-0.4
				c-0.4-0.4-0.9-0.1-1.4,0c-0.3,0.1-0.7,0-1,0.1C15.3,4,15.2,4.1,15,4.3C14.9,4.2,14.9,4.3,15,4.3L15,4.3z"/>
		</g>
		<g>
			<path class="st33" d="M16.4,2.4c-0.4,0.9,0.5,1.4,1,1.9c0.4,0.4,1-0.3,0.5-0.6c-0.2-0.2-0.5-0.3-0.7-0.4
				c-0.3-0.1-0.6-0.4-0.5-0.8C16.7,2.3,16.5,2.2,16.4,2.4L16.4,2.4z"/>
		</g>
		<g>
			<path class="st33" d="M20.6,2.9c-1.2-0.5-2,0.6-3,0.8c-0.5,0.1-0.2,0.9,0.3,0.7c0.4-0.2,0.8-0.5,1.2-0.8c0.5-0.3,1-0.3,1.5-0.5
				C20.7,3.1,20.7,2.9,20.6,2.9L20.6,2.9z"/>
		</g>
		<g>
			<path class="st33" d="M20.2,3.7c-0.4,0.4-1,0.5-1.6,0.4c-0.3-0.1-1-0.4-1.2-0.1c-0.3,0.4,0.2,0.9,0.5,0.5c0,0,0,0,0,0
				c-0.1,0-0.2,0.1-0.3,0.1c0.6-0.1,1.2,0.2,1.8,0c0.4-0.1,0.8-0.4,0.9-0.9C20.4,3.7,20.3,3.6,20.2,3.7L20.2,3.7z"/>
		</g>
		<g>
			<path class="st33" d="M16.3,5.5c0.3,0,0.6-0.1,0.8-0.2c0.1-0.1,0.3-0.2,0.4-0.3c0.1-0.1,0.2-0.2,0.4-0.3c0.3-0.2,0.3-0.6,0-0.8
				c-0.3-0.2-0.7,0.1-0.7,0.4c0,0.4-0.6,0.9-1,1C16.2,5.3,16.2,5.5,16.3,5.5L16.3,5.5z"/>
		</g>
		<g>
			<path class="st34" d="M18.5,1.7c-0.7,0.6-0.8,1.5-0.8,2.4c0,0.5,0.8,0.3,0.6-0.2c-0.3-0.6,0.1-1.5,0.3-2.1
				C18.6,1.7,18.5,1.6,18.5,1.7L18.5,1.7z"/>
		</g>
		<g>
			<path class="st34" d="M18.3,2.2c-0.2-0.1-0.4,0-0.5,0.2c-0.1,0.2-0.1,0.3,0,0.5C18,3.2,18.6,3,18.6,2.6c0,0,0-0.1,0-0.1
				c0,0,0-0.1,0-0.1c0,0.2,0.1,0.2,0,0.1C18.5,2.3,18.4,2.2,18.3,2.2L18.3,2.2z"/>
		</g>
		<g>
			<path class="st34" d="M16.6,3.4c0.2,0.4,0.6,0.6,0.9,0.7c0.1,0,0.1-0.1,0.1-0.1C17.3,3.7,17,3.6,16.6,3.4
				C16.7,3.3,16.6,3.3,16.6,3.4L16.6,3.4z"/>
		</g>
		<g>
			<path class="st34" d="M20.4,3.1c-0.6-0.2-1.4,0.2-1.8,0.6c-0.1,0.1,0,0.2,0.1,0.1c0.2-0.1,0.5-0.3,0.7-0.4
				C19.8,3.3,20.1,3.3,20.4,3.1C20.4,3.1,20.4,3.1,20.4,3.1L20.4,3.1z"/>
		</g>
		<g>
			<path class="st34" d="M18.2,4.5c0.5,0.4,1.3,0.3,1.7-0.2c0.1-0.1,0-0.2-0.1-0.1C19.2,4.5,18.8,4.6,18.2,4.5
				C18.2,4.5,18.2,4.5,18.2,4.5L18.2,4.5z"/>
		</g>
		<g>
			<path class="st34" d="M17,5c0.2-0.2,0.5-0.4,0.5-0.8c0-0.1-0.1-0.1-0.1,0c-0.1,0.1-0.1,0.3-0.2,0.4C17.1,4.7,17,4.9,17,5
				C16.9,5,17,5,17,5L17,5z"/>
		</g>
		<g>
			<path class="st34" d="M16.1,4c0.2,0.1,0.4,0.1,0.6,0.1c0.1,0,0.2,0,0.3-0.1c0.2,0,0.3,0,0.5,0c0.1,0,0.1-0.1,0-0.2
				C17.1,3.7,16.6,4.1,16.1,4C16.1,4,16.1,4,16.1,4L16.1,4z"/>
		</g>
		<g>
			<path class="st35" d="M15.6,4.2c0.2,0,0.4,0.1,0.5,0.1c0,0,0.1-0.1,0-0.1C16,4.1,15.8,4.1,15.6,4.2C15.5,4.1,15.5,4.2,15.6,4.2
				L15.6,4.2z"/>
		</g>
		<g>
			<path class="st35" d="M15.9,4.1c0.1,0,0.2,0,0.3,0c0,0,0-0.1,0-0.1C16.1,4,16,4,15.9,4.1C15.9,4.1,15.9,4.1,15.9,4.1L15.9,4.1z"
				/>
		</g>
		<g>
			<path class="st35" d="M16.3,4.3c0.1,0.1,0.3,0.1,0.5,0.1c0,0,0-0.1,0-0.1C16.7,4.2,16.5,4.2,16.3,4.3C16.3,4.2,16.3,4.2,16.3,4.3
				L16.3,4.3z"/>
		</g>
		<g>
			<path class="st35" d="M16.6,2.8c-0.1,0.3,0.3,0.7,0.6,0.7c0.1,0,0.1-0.1,0.1-0.1c-0.1-0.1-0.2-0.1-0.3-0.2
				C16.8,3.1,16.6,3,16.6,2.8C16.6,2.8,16.6,2.8,16.6,2.8L16.6,2.8z"/>
		</g>
		<g>
			<path class="st35" d="M18.3,3.8c0.1-0.2,0.3-0.2,0.4-0.3c0.1,0,0-0.1,0-0.1C18.5,3.4,18.3,3.6,18.3,3.8
				C18.3,3.8,18.3,3.8,18.3,3.8L18.3,3.8z"/>
		</g>
		<g>
			<path class="st33" d="M18.1,2.8c0.2,0.1,0.4-0.2,0.3-0.3c0-0.1-0.1-0.1-0.2,0C18.1,2.5,18.2,2.7,18.1,2.8C18,2.7,18,2.8,18.1,2.8
				L18.1,2.8z"/>
		</g>
		<g>
			<path class="st33" d="M18,3.2c-0.2,0.2-0.1,0.6,0.1,0.8c0,0.1,0.1,0,0.1-0.1c0-0.1-0.1-0.2-0.1-0.4C18,3.5,18,3.4,18,3.2
				C18,3.2,18,3.2,18,3.2L18,3.2z"/>
		</g>
		<g>
			<path class="st33" d="M18.3,2.2C18.3,2.2,18.3,2.2,18.3,2.2C18.3,2.2,18.3,2.2,18.3,2.2C18.3,2.2,18.3,2.2,18.3,2.2
				C18.3,2.2,18.3,2.2,18.3,2.2L18.3,2.2z"/>
		</g>
		<g>
			<path class="st33" d="M18.3,2.2c0.1,0,0.2-0.2,0.2-0.2c0,0,0-0.1-0.1-0.1C18.3,2,18.2,2.1,18.3,2.2C18.3,2.2,18.3,2.2,18.3,2.2
				L18.3,2.2z"/>
		</g>
		<g>
			<path class="st7" d="M21.7,5.4c0.2,0,0.4-0.2,0.4-0.4c0-0.2-0.2-0.4-0.4-0.4s-0.4,0.2-0.4,0.4C21.3,5.2,21.5,5.4,21.7,5.4
				L21.7,5.4z"/>
		</g>
	</g>
	<g>
		<path class="st36" d="M21.7,6.7c-0.7-0.3-1.5-0.6-2.2-0.4c-0.3,0.1-0.6,0.2-0.9,0.4c-0.7,0.5-1.3,1.3-1.4,2.2
			c-0.2,0.9,0,1.8,0.6,2.5c0.3,0.3,0.6,0.6,0.9,0.8c1.2,0.8,2.8,1.2,4.2,1.1c0.3,0,0.6-0.1,0.9-0.2c0.6-0.2,1.1-0.7,1.5-1.1
			c0.2-0.3,0.4-0.6,0.6-0.9c0.1-0.2,0.2-0.5,0.3-0.7c0.3-1.1,0.1-2.4-0.7-3.1c-0.6-0.5-1.5-0.7-2.4-0.5c-0.2,0-0.4,0.1-0.5,0.1
			C22.2,6.9,21.9,6.8,21.7,6.7z"/>
		<g>
			<path class="st37" d="M21.2,8.8C20.5,8.9,20,9.9,20,10.5c0,0.6,0.4,1.1,1,1.3c0.6,0.2,1.5-0.2,1.6-0.9c0.1-0.3,0.1-0.5,0-0.8
				c0-0.1,0-0.1,0-0.2c0,0.1,0,0.2,0,0.3c0-0.3-0.1-0.6-0.2-0.9C22.1,8.9,21.6,8.7,21.2,8.8L21.2,8.8z"/>
		</g>
		<g class="st38">
			<path class="st39" d="M21.6,8.9c0,0.1-0.1,0.2-0.1,0.3c0,0.1,0,0.2,0,0.3c0,0.2,0,0.3,0.1,0.5c0.1,0.2,0.3,0.3,0.4,0.3
				c0.2,0.1,0.4,0,0.6-0.1c0.4-0.2,0.5-0.9,0.2-1.2c-0.1,0-0.1-0.1-0.2-0.1c-0.1,0-0.1-0.1-0.2-0.1c0.1,0.1,0.2,0.1,0.1,0
				c0,0-0.1,0-0.1-0.1c0,0-0.1,0-0.1-0.1c0,0,0,0-0.1,0c0.1,0.1,0,0,0,0C22,8.5,21.7,8.6,21.6,8.9L21.6,8.9z"/>
		</g>
		<g class="st38">
			<path class="st39" d="M21.2,8.5c-0.4-0.1-0.8-0.1-1.1,0.2c-0.1,0.2-0.2,0.3-0.2,0.6c0,0.2,0.1,0.4,0.2,0.6c0.3,0.3,0.8,0.3,1.1,0
				c0.1-0.1,0.2-0.3,0.2-0.4c0,0.1-0.1,0.1-0.1,0.2c0.1-0.1,0.1-0.3,0.2-0.4C21.7,8.9,21.5,8.6,21.2,8.5L21.2,8.5z"/>
		</g>
		<g class="st38">
			<path class="st40" d="M21,10.1c0.2-0.4,0-0.9-0.2-1.3c-0.2-0.4-0.7-0.5-1.1-0.3c-0.4,0.2-0.5,0.7-0.3,1.1
				c0.2,0.3,0.3,0.7,0.6,0.9C20.5,10.7,20.8,10.5,21,10.1L21,10.1z"/>
		</g>
		<g class="st38">
			<path class="st40" d="M21.7,10.8c0.2,0.3,0.7,0.2,1,0.1c0.2-0.1,0.3-0.1,0.5-0.2c0.1-0.1,0.2-0.1,0.3-0.2
				c0.5-0.3,0.7-1.1,0.2-1.5c-0.4-0.4-1.2-0.4-1.5,0.2C22,9.3,22,9.4,22,9.5c-0.1,0.2,0.1-0.2,0,0c0,0.1-0.1,0.1-0.1,0.2
				c-0.1,0.2,0.1-0.1,0,0C21.6,10,21.4,10.4,21.7,10.8L21.7,10.8z"/>
		</g>
		<g>
			<path class="st41" d="M22,8.2c0.6,0.2,1.5,0.6,1.9,1.2c0.3,0.4,0.1,0.9-0.2,1.3c-0.4,0.6-1.1,0.5-1.6,0.4
				c-1.3-0.3-1.4,1.7-0.2,1.7c1.8-0.1,3.7-1.1,3.6-3.1c-0.1-0.9-0.8-1.4-1.5-1.8c-0.6-0.3-1.4-0.8-2-0.3C21.6,7.7,21.7,8.1,22,8.2
				L22,8.2z"/>
		</g>
		<g>
			<path class="st41" d="M21.9,7.5c-0.3-1-1.5-0.9-2.2-0.6c-0.9,0.3-1.5,0.7-1.9,1.5c-0.8,1.7,0.2,3.4,1.9,4c1,0.3,1.5-1.1,0.7-1.6
				c-0.4-0.2-0.8-0.4-1.1-0.7C19,9.7,19.1,9,19.5,8.8C20,8.3,22.3,8.8,21.9,7.5L21.9,7.5z"/>
		</g>
		<g>
			<defs>
				<path id="SVGID_11_" d="M21.7,6.7c-0.7-0.3-1.5-0.6-2.2-0.4c-0.3,0.1-0.6,0.2-0.9,0.4c-0.7,0.5-1.3,1.3-1.4,2.2
					c-0.2,0.9,0,1.8,0.6,2.5c0.3,0.3,0.6,0.6,0.9,0.8c1.2,0.8,2.8,1.2,4.2,1.1c0.3,0,0.6-0.1,0.9-0.2c0.6-0.2,1.1-0.7,1.5-1.1
					c0.2-0.3,0.4-0.6,0.6-0.9c0.1-0.2,0.2-0.5,0.3-0.7c0.3-1.1,0.1-2.4-0.7-3.1c-0.6-0.5-1.5-0.7-2.4-0.5c-0.2,0-0.4,0.1-0.5,0.1
					C22.2,6.9,21.9,6.8,21.7,6.7z"/>
			</defs>
			<clipPath id="SVGID_12_">
				<use xlink:href="#SVGID_11_"  style="overflow:visible;"/>
			</clipPath>
			<g class="st42">
				<path class="st43" d="M21.9,7.4c-0.2-0.4-0.3-0.8-0.7-0.9c-0.5-0.2-0.9-0.2-1.4,0c-1.1,0.3-2.1,1-2.6,2
					c-0.6,1.1-0.3,2.2,0.5,3.1c0.6,0.7,2,1.8,2.9,1.3c0.3-0.1,0.3-0.5,0.1-0.7c-0.2-0.3-0.4-0.2-0.6-0.3c-0.3-0.2-0.7-0.5-1-0.7
					c-0.6-0.4-1.2-1.5-0.9-2.3c0.3-0.7,0.7-0.9,1.3-1.2c0.3-0.1,0.8-0.2,1.1-0.2c0.2,0,0.9,0.1,1.1,0.2C22,7.8,22,7.6,21.9,7.4
					L21.9,7.4z"/>
			</g>
			<g class="st44">
				<path class="st45" d="M21.8,7.7c0.5,0,1.2,0.2,1.9,0.5c0.6,0.2,1.1,1,1.2,1.5c0.1,0.7-0.2,1.3-0.7,1.7c-0.3,0.3-0.6,0.4-1,0.5
					c-0.1,0-0.6,0.1-0.8,0.1c-0.3,0-0.7-0.1-1,0.2c-0.4,0.4,0,1.4,0.6,1.4c2.1-0.1,4.4-1.3,4.4-3.6c0-1.1-0.5-2-1.4-2.6
					c-0.9-0.6-2.5-0.8-3.2,0.1C21.7,7.5,21.7,7.7,21.8,7.7L21.8,7.7z"/>
			</g>
			<g class="st42">
				<path class="st46" d="M21.4,6.6c0.5,0.5,1.2,0.6,1.8,0.5c1.5-0.2,2.2,0.3,2.6,1.4c0.9,2.2-1.1,4.6-3.3,4.7
					c-1.1,0.1-2.2-0.2-3.1-0.7c-0.8-0.5-1.7-1.1-2.1-2c-0.5-1.1,0.1-2.5,0.9-3.2c0.4-0.3,1-0.6,1.5-0.7c1-0.2,1.7,0.3,2.2,0.4
					c0.2,0.1,0-0.3-0.2-0.4c-2-1.3-4.7,0.9-5.1,2.8c-0.2,1.1,0.6,2,1.4,2.7c1.1,0.9,2.2,1.4,3.6,1.6c1.2,0.2,2.3,0,3.3-0.7
					c1-0.7,1.6-1.8,1.7-3c0-1.2-0.5-2.4-1.5-3c-0.4-0.3-1-0.4-1.6-0.4c-0.6,0.1-1.4,0.2-1.9-0.1C21.4,6.4,21.3,6.5,21.4,6.6
					L21.4,6.6z"/>
			</g>
			<g class="st42">
				<path class="st47" d="M21.3,13.5c0.5-0.5,0.9-0.9,1.1-1.6c0.2-0.7-0.2-1.5-1-1.7c-0.9-0.2-1.8,0.4-1.8,1.3
					c0,0.3,0.1,0.6,0.2,0.9c-0.1-0.2-0.1-0.2,0,0c0.1,0.1,0.1,0.3,0.2,0.4c-0.1-0.2,0.1,0.4,0.1,0.3c0.1,0.1,0.1,0.2,0.2,0.3
					C20.6,13.7,21.1,13.8,21.3,13.5L21.3,13.5z"/>
			</g>
		</g>
		<g class="st38">
			<path class="st48" d="M21.8,6.9c-0.2,0.3-0.2,0.6-0.4,0.9c-0.2,0.4-0.5,0.7-0.7,1.1c-0.3,0.5,0.4,1.2,1,1c1-0.4,0.6-2.1,0.7-2.9
				c-0.3,0-0.6,0-0.8,0c0,0.5-0.1,1-0.2,1.5c0,0.1,0,0.2,0,0.3c0,0.1,0,0.1,0,0.2c-0.1,0.1,0,0.1,0.3,0c-0.5-0.2-0.7,0.6-0.2,0.8
				c0.5,0.2,0.7-0.3,0.8-0.7c0.1-0.6,0.3-1.3,0.3-2c0-0.6-0.8-0.5-0.8,0c-0.1,0.7,0.1,1.4-0.1,2.1c-0.1,0.1,0,0.1,0.2,0
				c0,0-0.1,0-0.1-0.1c0,0.2,0,0.2,0.1,0c0.2-0.2,0.3-0.4,0.4-0.7c0.2-0.5,0.3-1,0-1.5C21.9,6.9,21.8,6.9,21.8,6.9L21.8,6.9z"/>
		</g>
		<g>
			<path class="st49" d="M21.7,7.1c-0.1,0.1-0.1,0.3-0.2,0.4c-0.1,0.1-0.1,0.3-0.1,0.5c0,0.1,0.1,0.1,0.2,0.1
				c0.2-0.2,0.3-0.7,0.3-0.9C21.9,7.1,21.8,7.1,21.7,7.1L21.7,7.1z"/>
		</g>
		<g>
			<path class="st49" d="M21.9,7.9c-0.1,0.3,0,0.7-0.2,0.9c-0.2,0.2,0.2,0.4,0.4,0.3c0.3-0.2,0.1-0.9,0-1.2
				C22,7.8,21.9,7.9,21.9,7.9L21.9,7.9z"/>
		</g>
		<g>
			<path class="st49" d="M21,9c-0.1,0.1-0.2,0.3-0.2,0.4c-0.1,0.1,0,0.3,0.1,0.3c0.1,0,0.2-0.1,0.3-0.2c0-0.1,0-0.3,0-0.4
				C21.3,9,21.1,8.9,21,9L21,9z"/>
		</g>
		<g>
			<path class="st50" d="M22.9,9.8c0.2,0.1,0.7,0.2,0.7-0.1c0-0.2-0.2-0.2-0.3-0.2c-0.1,0-0.3,0.1-0.4,0.1
				C22.9,9.7,22.9,9.8,22.9,9.8L22.9,9.8z"/>
		</g>
		<g>
			<path class="st50" d="M22.6,10.4c0.1,0.1,0.3,0.1,0.4,0.1c0.1,0,0.1-0.1,0.1-0.2c0-0.1-0.1-0.1-0.1-0.2c-0.1,0-0.3,0-0.4,0
				C22.5,10.2,22.5,10.3,22.6,10.4L22.6,10.4z"/>
		</g>
		<g>
			<path class="st50" d="M23.1,9.4c0,0,0.1,0,0.1-0.1c0.2-0.1,0-0.4-0.2-0.3c0,0-0.1,0.1-0.1,0.1C22.9,9.3,23,9.4,23.1,9.4L23.1,9.4
				z"/>
		</g>
		<g>
			<path class="st50" d="M19.8,9.1c0,0.1,0.2,0.2,0.3,0.2c0.2,0,0.2-0.2,0.1-0.3c-0.1-0.1-0.2-0.1-0.3-0.1C19.9,8.9,19.8,9,19.8,9.1
				L19.8,9.1z"/>
		</g>
		<g>
			<path class="st50" d="M20,10c0.1,0,0.2,0,0.3,0c0.1,0,0.1-0.1,0.1-0.2c0-0.1-0.1-0.1-0.2-0.1c-0.1,0-0.2,0-0.2,0.1
				C19.8,9.8,19.8,10,20,10L20,10z"/>
		</g>
		<g class="st51">
			<path class="st52" d="M21.7,6.7c-0.7-0.3-1.4-0.6-2.2-0.4c-0.3,0.1-0.6,0.2-0.9,0.4c-0.7,0.5-1.2,1.3-1.4,2.1
				c-0.2,0.9,0,1.8,0.6,2.5c0.3,0.3,0.6,0.6,0.9,0.8c1.2,0.8,2.7,1.2,4.1,1.1c0.3,0,0.6-0.1,0.9-0.2c0.6-0.2,1-0.6,1.4-1.1
				c0.2-0.3,0.4-0.5,0.6-0.8c0.1-0.2,0.2-0.5,0.3-0.7c0.3-1.1,0.1-2.3-0.7-3c-0.6-0.5-1.5-0.7-2.3-0.5c-0.2,0-0.3,0.1-0.5,0.1
				C22.2,7,21.9,6.9,21.7,6.7z"/>
		</g>
		<g>
			<path class="st53" d="M21,8c-0.6-0.9-1.8-0.4-2.3,0.3c-0.6,0.8-0.1,2.4,0.9,2.7c0.2,0.1,0.4-0.1,0.4-0.4
				c-0.1-0.5-0.6-0.9-0.5-1.5c0.1-0.6,0.8-0.5,1.2-0.4C21,8.8,21.2,8.3,21,8L21,8z"/>
		</g>
		<g>
			<path class="st53" d="M22.8,9C23,9,23.3,9,23.5,9.2c0.3,0.2,0.2,0.6,0.2,0.9c-0.1,0.4-0.1,0.6-0.5,0.8c-0.3,0.1-0.7,0.2-1,0.3
				c-0.2,0.1-0.1,0.3,0,0.4c1.1,0.3,2.4-0.4,2.6-1.6c0.2-1.2-0.8-2.3-2.1-2C22.3,8.1,22.3,8.8,22.8,9L22.8,9z"/>
		</g>
		<g>
			<path class="st54" d="M21.6,6.7C21.8,7,22.2,7.2,22.5,7c0.1-0.1,0.1-0.2,0-0.3c-0.1-0.1-0.3-0.1-0.4-0.1c-0.2,0-0.3,0-0.4,0
				C21.6,6.6,21.6,6.7,21.6,6.7L21.6,6.7z"/>
		</g>
		<g>
			<g>
				<defs>
					<path id="SVGID_13_" d="M23,8.1c0.1,0,0.2,0,0.2,0.1c0.1,0.1,0,0.3-0.1,0.4c-0.1,0.1-0.1,0.2-0.2,0.3c-0.1-0.2-0.1-0.4,0-0.6
						C22.9,8.3,22.9,8.2,23,8.1z"/>
				</defs>
				<use xlink:href="#SVGID_13_"  style="overflow:visible;fill:#EC801E;"/>
				<clipPath id="SVGID_14_">
					<use xlink:href="#SVGID_13_"  style="overflow:visible;"/>
				</clipPath>
				<g class="st55">
					<path class="st56" d="M22.9,8.8c0.1-0.1,0.1-0.2,0.2-0.3c0-0.1,0.1-0.2,0.1-0.3c0-0.2-0.3-0.2-0.3,0c0,0.2,0,0.4,0,0.6
						C22.8,8.8,22.9,8.8,22.9,8.8L22.9,8.8z"/>
				</g>
			</g>
			<g class="st57">
				<path class="st7" d="M23,8.5c0-0.1,0.1-0.2,0.1-0.3c0-0.1-0.1-0.1-0.1-0.1C22.9,8.2,22.9,8.4,23,8.5C22.9,8.5,23,8.6,23,8.5
					L23,8.5z"/>
			</g>
		</g>
		<g>
			<g>
				<defs>
					<path id="SVGID_15_" d="M20.8,7.8c0.1-0.1,0.2-0.1,0.2,0c0.1,0.1,0.1,0.3,0,0.4c0,0.1-0.1,0.2-0.2,0.3
						c-0.1-0.2-0.2-0.3-0.2-0.5C20.7,8,20.7,7.9,20.8,7.8z"/>
				</defs>
				<use xlink:href="#SVGID_15_"  style="overflow:visible;fill:#EC801E;"/>
				<clipPath id="SVGID_16_">
					<use xlink:href="#SVGID_15_"  style="overflow:visible;"/>
				</clipPath>
				<g class="st58">
					<path class="st56" d="M20.9,8.5c0-0.1,0.1-0.2,0.1-0.3c0-0.1,0-0.2,0-0.3c-0.1-0.2-0.4-0.2-0.3,0.1c0,0.2,0.1,0.4,0.1,0.6
						C20.8,8.5,20.9,8.5,20.9,8.5L20.9,8.5z"/>
				</g>
			</g>
			<g class="st57">
				<path class="st7" d="M20.9,8.2c0-0.1,0.1-0.2,0-0.3c0,0-0.1-0.1-0.1-0.1C20.7,8,20.8,8.1,20.9,8.2C20.8,8.2,20.9,8.2,20.9,8.2
					L20.9,8.2z"/>
			</g>
		</g>
		<g>
			<g>
				<defs>
					<path id="SVGID_17_" d="M20.2,7.8c0-0.1,0.1-0.1,0.2,0c0.1,0.1,0.1,0.2,0.1,0.3c0,0.1-0.1,0.2-0.1,0.3
						c-0.1-0.1-0.2-0.3-0.2-0.4C20.1,8,20.1,7.9,20.2,7.8z"/>
				</defs>
				<use xlink:href="#SVGID_17_"  style="overflow:visible;fill:#EC801E;"/>
				<clipPath id="SVGID_18_">
					<use xlink:href="#SVGID_17_"  style="overflow:visible;"/>
				</clipPath>
				<g class="st59">
					<path class="st56" d="M20.3,8.4c0-0.1,0-0.2,0-0.3c0-0.1,0-0.2,0-0.3C20.2,7.6,20,7.7,20,7.9c0,0.2,0.1,0.3,0.2,0.5
						C20.2,8.5,20.3,8.4,20.3,8.4L20.3,8.4z"/>
				</g>
			</g>
			<g class="st57">
				<path class="st7" d="M20.3,8.1c0-0.1,0-0.2,0-0.2c0,0-0.1-0.1-0.1,0C20.1,8,20.2,8.1,20.3,8.1C20.2,8.2,20.3,8.2,20.3,8.1
					L20.3,8.1z"/>
			</g>
		</g>
		<g class="st60">
			<g>
				<defs>
					<path id="SVGID_19_" d="M19.2,8.1c0-0.1,0.1-0.1,0.1-0.1c0.1,0,0.1,0.1,0.2,0.2c0,0.1,0,0.2,0,0.2c-0.1,0-0.2-0.1-0.3-0.2
						C19.2,8.2,19.2,8.2,19.2,8.1z"/>
				</defs>
				<use xlink:href="#SVGID_19_"  style="overflow:visible;fill:#EC801E;"/>
				<clipPath id="SVGID_20_">
					<use xlink:href="#SVGID_19_"  style="overflow:visible;"/>
				</clipPath>
				<g class="st61">
					<path class="st56" d="M19.5,8.5c0-0.1,0-0.1-0.1-0.2c0-0.1-0.1-0.1-0.1-0.2C19.2,8,19,8.1,19.1,8.2C19.2,8.3,19.3,8.4,19.5,8.5
						C19.4,8.5,19.5,8.5,19.5,8.5L19.5,8.5z"/>
				</g>
			</g>
			<g class="st57">
				<path class="st7" d="M19.4,8.3c0-0.1,0-0.2-0.1-0.2c0,0-0.1,0-0.1,0C19.1,8.2,19.3,8.3,19.4,8.3C19.4,8.4,19.4,8.3,19.4,8.3
					L19.4,8.3z"/>
			</g>
		</g>
		<g class="st60">
			<g>
				<defs>
					<path id="SVGID_21_" d="M24.2,8.6c0.1,0,0.1,0.1,0.1,0.1c0,0.1-0.1,0.2-0.2,0.2c-0.1,0-0.2,0.1-0.2,0.1c0-0.1,0.1-0.2,0.2-0.3
						C24.1,8.6,24.1,8.6,24.2,8.6z"/>
				</defs>
				<use xlink:href="#SVGID_21_"  style="overflow:visible;fill:#EC801E;"/>
				<clipPath id="SVGID_22_">
					<use xlink:href="#SVGID_21_"  style="overflow:visible;"/>
				</clipPath>
				<g class="st62">
					<path class="st56" d="M23.9,8.9c0.1,0,0.1,0,0.2-0.1c0.1,0,0.1-0.1,0.2-0.2c0.1-0.1-0.1-0.2-0.2-0.1C24,8.6,23.9,8.7,23.9,8.9
						C23.8,8.9,23.9,8.9,23.9,8.9L23.9,8.9z"/>
				</g>
			</g>
			<g class="st57">
				<path class="st7" d="M24.1,8.8c0.1,0,0.1-0.1,0.2-0.1c0,0,0-0.1,0-0.1C24.1,8.5,24,8.6,24.1,8.8C24,8.8,24,8.8,24.1,8.8
					L24.1,8.8z"/>
			</g>
		</g>
		<g class="st6">
			<g>
				<defs>
					<path id="SVGID_23_" d="M24.6,9.9c0,0.1,0,0.1,0,0.1c-0.1,0-0.2,0-0.3-0.1c-0.1,0-0.1-0.1-0.2-0.2c0.1-0.1,0.2-0.1,0.4,0
						C24.5,9.9,24.6,9.9,24.6,9.9z"/>
				</defs>
				<use xlink:href="#SVGID_23_"  style="overflow:visible;fill:#EC801E;"/>
				<clipPath id="SVGID_24_">
					<use xlink:href="#SVGID_23_"  style="overflow:visible;"/>
				</clipPath>
				<g class="st63">
					<path class="st56" d="M24.2,9.9c0.1,0,0.1,0.1,0.2,0.1c0.1,0,0.1,0.1,0.2,0.1c0.1,0,0.2-0.2,0-0.2C24.5,9.8,24.4,9.8,24.2,9.9
						C24.2,9.8,24.2,9.8,24.2,9.9L24.2,9.9z"/>
				</g>
			</g>
			<g class="st57">
				<path class="st7" d="M24.4,9.9c0.1,0,0.1,0.1,0.2,0.1c0,0,0,0,0-0.1C24.6,9.8,24.5,9.8,24.4,9.9C24.3,9.9,24.3,9.9,24.4,9.9
					L24.4,9.9z"/>
			</g>
		</g>
		<g class="st6">
			<g>
				<defs>
					<path id="SVGID_25_" d="M18.9,10.1c-0.1,0-0.1-0.1-0.1-0.1c0-0.1,0.1-0.1,0.2-0.1c0.1,0,0.2,0,0.2,0c-0.1,0.1-0.1,0.2-0.3,0.2
						C19,10.1,19,10.1,18.9,10.1z"/>
				</defs>
				<use xlink:href="#SVGID_25_"  style="overflow:visible;fill:#EC801E;"/>
				<clipPath id="SVGID_26_">
					<use xlink:href="#SVGID_25_"  style="overflow:visible;"/>
				</clipPath>
				<g class="st64">
					<path class="st56" d="M19.3,9.8c-0.1,0-0.1,0-0.2,0c-0.1,0-0.1,0-0.2,0.1c-0.1,0.1,0,0.3,0.1,0.2C19.1,10.1,19.2,10,19.3,9.8
						C19.3,9.9,19.3,9.8,19.3,9.8L19.3,9.8z"/>
				</g>
			</g>
			<g class="st57">
				<path class="st7" d="M19.1,9.9c-0.1,0-0.2,0-0.2,0.1c0,0,0,0.1,0,0.1C19,10.1,19.1,10,19.1,9.9C19.2,10,19.1,9.9,19.1,9.9
					L19.1,9.9z"/>
			</g>
		</g>
		<g class="st6">
			<g>
				<defs>
					<path id="SVGID_27_" d="M24,11.1c0,0.1-0.1,0.1-0.1,0.1c-0.1,0-0.1-0.1-0.1-0.2c0-0.1,0-0.2,0-0.2c0.1,0.1,0.2,0.1,0.3,0.3
						C24,11,24,11.1,24,11.1z"/>
				</defs>
				<use xlink:href="#SVGID_27_"  style="overflow:visible;fill:#EC801E;"/>
				<clipPath id="SVGID_28_">
					<use xlink:href="#SVGID_27_"  style="overflow:visible;"/>
				</clipPath>
				<g class="st65">
					<path class="st56" d="M23.7,10.8c0,0.1,0,0.1,0,0.2c0,0.1,0,0.1,0.1,0.2c0.1,0.1,0.3,0,0.2-0.1C24,10.9,23.9,10.8,23.7,10.8
						C23.8,10.7,23.7,10.7,23.7,10.8L23.7,10.8z"/>
				</g>
			</g>
			<g class="st57">
				<path class="st7" d="M23.8,10.9c0,0.1,0,0.2,0.1,0.2c0,0,0.1,0,0.1,0C24,11,23.9,10.9,23.8,10.9C23.8,10.9,23.8,10.9,23.8,10.9
					L23.8,10.9z"/>
			</g>
		</g>
		<g class="st66">
			<g>
				<defs>
					<path id="SVGID_29_" d="M19.5,8c0-0.1,0.1-0.1,0.2-0.1c0.1,0,0.2,0.2,0.2,0.3c0,0.1,0,0.2,0,0.3c-0.2-0.1-0.3-0.2-0.3-0.3
						C19.5,8.1,19.4,8.1,19.5,8z"/>
				</defs>
				<use xlink:href="#SVGID_29_"  style="overflow:visible;fill:#EC801E;"/>
				<clipPath id="SVGID_30_">
					<use xlink:href="#SVGID_29_"  style="overflow:visible;"/>
				</clipPath>
				<g class="st67">
					<path class="st56" d="M19.8,8.5c0-0.1,0-0.2-0.1-0.3c0-0.1-0.1-0.2-0.1-0.3c-0.1-0.1-0.3,0-0.2,0.2c0.1,0.1,0.2,0.2,0.3,0.4
						C19.7,8.6,19.8,8.5,19.8,8.5L19.8,8.5z"/>
				</g>
			</g>
			<g class="st57">
				<path class="st7" d="M19.7,8.2c0-0.1,0-0.2-0.1-0.2c0,0-0.1,0-0.1,0C19.4,8.1,19.5,8.2,19.7,8.2C19.7,8.3,19.7,8.3,19.7,8.2
					L19.7,8.2z"/>
			</g>
		</g>
		<g>
			<g>
				<defs>
					<path id="SVGID_31_" d="M18.8,8.5c0-0.1,0-0.2,0.1-0.2c0.1,0,0.2,0,0.3,0.1c0.1,0.1,0.1,0.1,0.2,0.2c-0.2,0.1-0.3,0-0.5,0
						C18.9,8.6,18.9,8.6,18.8,8.5z"/>
				</defs>
				<use xlink:href="#SVGID_31_"  style="overflow:visible;fill:#EC801E;"/>
				<clipPath id="SVGID_32_">
					<use xlink:href="#SVGID_31_"  style="overflow:visible;"/>
				</clipPath>
				<g class="st68">
					<path class="st56" d="M19.4,8.7c-0.1-0.1-0.1-0.1-0.2-0.2c-0.1,0-0.2-0.1-0.3-0.1c-0.2,0-0.2,0.2-0.1,0.3
						c0.2,0,0.3,0.1,0.5,0.1C19.4,8.8,19.4,8.7,19.4,8.7L19.4,8.7z"/>
				</g>
			</g>
			<g class="st57">
				<path class="st7" d="M19.2,8.6c-0.1,0-0.1-0.1-0.2-0.1c0,0-0.1,0-0.1,0.1C18.9,8.7,19.1,8.7,19.2,8.6
					C19.2,8.7,19.2,8.6,19.2,8.6L19.2,8.6z"/>
			</g>
		</g>
		<g class="st66">
			<g>
				<defs>
					<path id="SVGID_33_" d="M18.6,9.3c-0.1,0-0.1-0.1,0-0.2C18.7,9,18.9,9,19,9c0.1,0,0.2,0.1,0.3,0.1c-0.1,0.1-0.3,0.2-0.4,0.2
						C18.8,9.3,18.7,9.3,18.6,9.3z"/>
				</defs>
				<use xlink:href="#SVGID_33_"  style="overflow:visible;fill:#EC801E;"/>
				<clipPath id="SVGID_34_">
					<use xlink:href="#SVGID_33_"  style="overflow:visible;"/>
				</clipPath>
				<g class="st69">
					<path class="st56" d="M19.2,9.1c-0.1,0-0.2-0.1-0.3,0c-0.1,0-0.2,0-0.3,0c-0.2,0.1-0.1,0.3,0.1,0.3c0.2,0,0.3-0.1,0.5-0.2
						C19.3,9.2,19.3,9.2,19.2,9.1L19.2,9.1z"/>
				</g>
			</g>
			<g class="st57">
				<path class="st7" d="M19,9.2c-0.1,0-0.2,0-0.2,0c0,0-0.1,0.1,0,0.1C18.8,9.4,18.9,9.3,19,9.2C19,9.2,19,9.2,19,9.2L19,9.2z"/>
			</g>
		</g>
		<g>
			<g>
				<defs>
					<path id="SVGID_35_" d="M18.7,9.7c-0.1,0-0.1-0.1,0-0.2c0.1-0.1,0.2-0.1,0.3-0.1c0.1,0,0.2,0,0.3,0.1c-0.1,0.1-0.2,0.2-0.4,0.2
						C18.8,9.8,18.8,9.8,18.7,9.7z"/>
				</defs>
				<use xlink:href="#SVGID_35_"  style="overflow:visible;fill:#B56217;"/>
				<clipPath id="SVGID_36_">
					<use xlink:href="#SVGID_35_"  style="overflow:visible;"/>
				</clipPath>
				<g class="st70">
					<path class="st71" d="M19.2,9.5c-0.1,0-0.2,0-0.3,0c-0.1,0-0.2,0-0.3,0.1c-0.2,0.1-0.1,0.3,0.1,0.3c0.2-0.1,0.3-0.1,0.5-0.2
						C19.3,9.6,19.3,9.6,19.2,9.5L19.2,9.5z"/>
				</g>
			</g>
			<g class="st57">
				<path class="st7" d="M19,9.6c-0.1,0-0.2,0-0.3,0c0,0,0,0.1,0,0.1C18.8,9.8,18.9,9.7,19,9.6C19,9.6,19,9.6,19,9.6L19,9.6z"/>
			</g>
		</g>
		<g>
			<g>
				<defs>
					<path id="SVGID_37_" d="M19,10.5c-0.1,0-0.1-0.1-0.1-0.2c0-0.1,0.2-0.2,0.3-0.2c0.1,0,0.2,0,0.3,0c-0.1,0.2-0.2,0.3-0.3,0.4
						C19.2,10.5,19.1,10.5,19,10.5z"/>
				</defs>
				<use xlink:href="#SVGID_37_"  style="overflow:visible;fill:#EC931E;"/>
				<clipPath id="SVGID_38_">
					<use xlink:href="#SVGID_37_"  style="overflow:visible;"/>
				</clipPath>
				<g class="st72">
					<path class="st73" d="M19.5,10.1c-0.1,0-0.2,0-0.3,0.1c-0.1,0-0.2,0.1-0.2,0.2c-0.1,0.1,0.1,0.3,0.2,0.2
						C19.3,10.5,19.4,10.3,19.5,10.1C19.6,10.2,19.5,10.1,19.5,10.1L19.5,10.1z"/>
				</g>
			</g>
			<g class="st57">
				<path class="st7" d="M19.3,10.2c-0.1,0-0.2,0-0.2,0.1c0,0,0,0.1,0,0.1C19.2,10.5,19.2,10.4,19.3,10.2
					C19.3,10.3,19.3,10.2,19.3,10.2L19.3,10.2z"/>
			</g>
		</g>
		<g>
			<g>
				<defs>
					<path id="SVGID_39_" d="M19.4,10.9c-0.1,0-0.1-0.1-0.1-0.1c0-0.1,0.1-0.2,0.2-0.2c0.1,0,0.2-0.1,0.2-0.1c0,0.1-0.1,0.2-0.2,0.3
						C19.5,10.9,19.5,10.9,19.4,10.9z"/>
				</defs>
				<use xlink:href="#SVGID_39_"  style="overflow:visible;fill:#EC801E;"/>
				<clipPath id="SVGID_40_">
					<use xlink:href="#SVGID_39_"  style="overflow:visible;"/>
				</clipPath>
				<g class="st74">
					<path class="st56" d="M19.7,10.5c-0.1,0-0.1,0.1-0.2,0.1c-0.1,0.1-0.1,0.1-0.2,0.2c-0.1,0.1,0.1,0.2,0.2,0.1
						C19.6,10.8,19.7,10.7,19.7,10.5C19.8,10.6,19.7,10.5,19.7,10.5L19.7,10.5z"/>
				</g>
			</g>
			<g class="st57">
				<path class="st7" d="M19.6,10.7c-0.1,0-0.1,0.1-0.2,0.1c0,0,0,0.1,0,0.1C19.6,10.9,19.6,10.8,19.6,10.7
					C19.6,10.7,19.6,10.6,19.6,10.7L19.6,10.7z"/>
			</g>
		</g>
		<g>
			<g>
				<defs>
					<path id="SVGID_41_" d="M19.9,11.2c-0.1,0-0.1,0-0.1-0.1c0-0.1,0.1-0.2,0.1-0.2c0.1-0.1,0.1-0.1,0.2-0.1c0,0.1,0,0.3-0.1,0.4
						C20,11.1,19.9,11.2,19.9,11.2z"/>
				</defs>
				<use xlink:href="#SVGID_41_"  style="overflow:visible;fill:#EC801E;"/>
				<clipPath id="SVGID_42_">
					<use xlink:href="#SVGID_41_"  style="overflow:visible;"/>
				</clipPath>
				<g class="st75">
					<path class="st56" d="M20.1,10.8c-0.1,0-0.1,0.1-0.2,0.2c0,0.1-0.1,0.1-0.1,0.2c0,0.1,0.2,0.2,0.2,0.1
						C20.1,11.1,20.1,10.9,20.1,10.8C20.1,10.8,20.1,10.8,20.1,10.8L20.1,10.8z"/>
				</g>
			</g>
			<g class="st57">
				<path class="st7" d="M19.9,10.9c-0.1,0.1-0.1,0.1-0.1,0.2c0,0,0,0.1,0.1,0.1C20,11.2,20,11,19.9,10.9C20,10.9,20,10.9,19.9,10.9
					L19.9,10.9z"/>
			</g>
		</g>
		<g>
			<g>
				<defs>
					<path id="SVGID_43_" d="M23.8,8.3c0.1,0,0.2,0,0.2,0.1c0,0.1-0.1,0.3-0.2,0.3c-0.1,0.1-0.2,0.1-0.3,0.2c0-0.2,0-0.4,0.2-0.5
						C23.6,8.4,23.7,8.3,23.8,8.3z"/>
				</defs>
				<use xlink:href="#SVGID_43_"  style="overflow:visible;fill:#B56217;"/>
				<clipPath id="SVGID_44_">
					<use xlink:href="#SVGID_43_"  style="overflow:visible;"/>
				</clipPath>
				<g class="st76">
					<path class="st71" d="M23.5,8.9c0.1-0.1,0.2-0.1,0.2-0.2c0.1-0.1,0.1-0.2,0.2-0.3c0.1-0.2-0.2-0.3-0.3-0.1
						c-0.1,0.2-0.1,0.4-0.2,0.5C23.3,8.9,23.4,8.9,23.5,8.9L23.5,8.9z"/>
				</g>
			</g>
			<g class="st57">
				<path class="st7" d="M23.6,8.7c0.1-0.1,0.1-0.1,0.2-0.2c0,0,0-0.1-0.1-0.1C23.6,8.4,23.6,8.5,23.6,8.7
					C23.5,8.7,23.6,8.7,23.6,8.7L23.6,8.7z"/>
			</g>
		</g>
		<g>
			<g>
				<defs>
					<path id="SVGID_45_" d="M24.5,8.9c0.1,0,0.1,0.1,0.1,0.2c-0.1,0.1-0.2,0.2-0.4,0.2c-0.1,0-0.2,0-0.4,0C24,9.1,24.1,9,24.3,8.9
						C24.3,8.9,24.4,8.9,24.5,8.9z"/>
				</defs>
				<use xlink:href="#SVGID_45_"  style="overflow:visible;fill:#EC801E;"/>
				<clipPath id="SVGID_46_">
					<use xlink:href="#SVGID_45_"  style="overflow:visible;"/>
				</clipPath>
				<g class="st77">
					<path class="st56" d="M23.9,9.2c0.1,0,0.2,0,0.3,0c0.1,0,0.2-0.1,0.3-0.1c0.2-0.1,0-0.4-0.2-0.3C24.2,8.9,24,9,23.9,9.1
						C23.8,9.1,23.9,9.2,23.9,9.2L23.9,9.2z"/>
				</g>
			</g>
			<g class="st57">
				<path class="st7" d="M24.2,9.1c0.1,0,0.2,0,0.3-0.1c0,0,0-0.1,0-0.1C24.3,8.9,24.2,9,24.2,9.1C24.1,9.1,24.1,9.1,24.2,9.1
					L24.2,9.1z"/>
			</g>
		</g>
		<g>
			<g>
				<defs>
					<path id="SVGID_47_" d="M24.7,9.5c0.1,0,0.1,0.1,0,0.2c-0.1,0.1-0.2,0.1-0.3,0.1c-0.1,0-0.2,0-0.3-0.1c0.1-0.1,0.2-0.2,0.4-0.2
						C24.5,9.4,24.6,9.4,24.7,9.5z"/>
				</defs>
				<use xlink:href="#SVGID_47_"  style="overflow:visible;fill:#EC801E;"/>
				<clipPath id="SVGID_48_">
					<use xlink:href="#SVGID_47_"  style="overflow:visible;"/>
				</clipPath>
				<g class="st78">
					<path class="st56" d="M24.2,9.6c0.1,0,0.2,0,0.3,0c0.1,0,0.2,0,0.3,0c0.2-0.1,0.1-0.3-0.1-0.3c-0.1,0-0.3,0.1-0.4,0.2
						C24.1,9.5,24.1,9.6,24.2,9.6L24.2,9.6z"/>
				</g>
			</g>
			<g class="st57">
				<path class="st7" d="M24.4,9.6c0.1,0,0.2,0,0.2,0c0,0,0-0.1,0-0.1C24.5,9.4,24.4,9.5,24.4,9.6C24.3,9.5,24.3,9.6,24.4,9.6
					L24.4,9.6z"/>
			</g>
		</g>
		<g>
			<g>
				<defs>
					<path id="SVGID_49_" d="M24.6,10.2c0,0.1,0,0.2,0,0.2c-0.1,0.1-0.2,0-0.4,0c-0.1-0.1-0.2-0.1-0.3-0.2c0.2-0.1,0.3-0.1,0.5-0.1
						C24.4,10.1,24.5,10.2,24.6,10.2z"/>
				</defs>
				<use xlink:href="#SVGID_49_"  style="overflow:visible;fill:#EC931E;"/>
				<clipPath id="SVGID_50_">
					<use xlink:href="#SVGID_49_"  style="overflow:visible;"/>
				</clipPath>
				<g class="st79">
					<path class="st73" d="M24,10.2c0.1,0.1,0.2,0.1,0.3,0.1c0.1,0,0.2,0.1,0.3,0c0.2,0,0.2-0.3,0-0.3c-0.2,0-0.3,0-0.5,0
						C23.9,10.1,23.9,10.2,24,10.2L24,10.2z"/>
				</g>
			</g>
			<g class="st57">
				<path class="st7" d="M24.2,10.3c0.1,0,0.2,0.1,0.2,0.1c0.1,0,0.1-0.1,0.1-0.1C24.5,10.1,24.3,10.2,24.2,10.3
					C24.2,10.2,24.2,10.2,24.2,10.3L24.2,10.3z"/>
			</g>
		</g>
		<g class="st66">
			<g>
				<defs>
					<path id="SVGID_51_" d="M24.3,10.9c0,0.1-0.1,0.1-0.1,0.1c-0.1,0-0.2-0.1-0.3-0.2c-0.1-0.1-0.1-0.2-0.1-0.3
						c0.2,0,0.3,0.1,0.5,0.2C24.3,10.7,24.3,10.8,24.3,10.9z"/>
				</defs>
				<use xlink:href="#SVGID_51_"  style="overflow:visible;fill:#EC801E;"/>
				<clipPath id="SVGID_52_">
					<use xlink:href="#SVGID_51_"  style="overflow:visible;"/>
				</clipPath>
				<g class="st80">
					<path class="st56" d="M23.8,10.5c0,0.1,0.1,0.2,0.1,0.2c0.1,0.1,0.1,0.2,0.2,0.2c0.2,0.1,0.3-0.2,0.2-0.3
						C24.2,10.6,24.1,10.5,23.8,10.5C23.9,10.4,23.8,10.5,23.8,10.5L23.8,10.5z"/>
				</g>
			</g>
			<g class="st57">
				<path class="st7" d="M24,10.7c0.1,0.1,0.1,0.2,0.2,0.2c0,0,0.1,0,0.1,0C24.3,10.7,24.2,10.7,24,10.7C24,10.6,24,10.6,24,10.7
					L24,10.7z"/>
			</g>
		</g>
		<g class="st66">
			<g>
				<defs>
					<path id="SVGID_53_" d="M23.4,11.7c0,0.1-0.1,0.1-0.2,0.1c-0.1-0.1-0.1-0.2-0.1-0.3c0-0.1,0-0.2,0-0.3c0.2,0.1,0.2,0.2,0.3,0.4
						C23.4,11.6,23.4,11.6,23.4,11.7z"/>
				</defs>
				<use xlink:href="#SVGID_53_"  style="overflow:visible;fill:#EC801E;"/>
				<clipPath id="SVGID_54_">
					<use xlink:href="#SVGID_53_"  style="overflow:visible;"/>
				</clipPath>
				<g class="st81">
					<path class="st56" d="M23.1,11.2c0,0.1,0,0.2,0,0.3c0,0.1,0,0.2,0.1,0.3c0.1,0.2,0.4,0,0.3-0.1c-0.1-0.2-0.2-0.3-0.2-0.5
						C23.2,11.1,23.1,11.1,23.1,11.2L23.1,11.2z"/>
				</g>
			</g>
			<g class="st57">
				<path class="st7" d="M23.2,11.4c0,0.1,0,0.2,0,0.3c0,0,0.1,0,0.1,0C23.4,11.6,23.3,11.5,23.2,11.4
					C23.2,11.3,23.2,11.3,23.2,11.4L23.2,11.4z"/>
			</g>
		</g>
		<g>
			<g>
				<defs>
					<path id="SVGID_55_" d="M22.6,11.8c0,0-0.1,0-0.2,0c-0.1-0.1,0-0.2,0-0.3c0-0.1,0.1-0.2,0.1-0.2c0.1,0.1,0.1,0.2,0.1,0.4
						C22.7,11.7,22.7,11.8,22.6,11.8z"/>
				</defs>
				<use xlink:href="#SVGID_55_"  style="overflow:visible;fill:#EC801E;"/>
				<clipPath id="SVGID_56_">
					<use xlink:href="#SVGID_55_"  style="overflow:visible;"/>
				</clipPath>
				<g class="st82">
					<path class="st56" d="M22.6,11.4c0,0.1-0.1,0.1-0.1,0.2c0,0.1,0,0.2,0,0.2c0,0.2,0.3,0.1,0.2,0C22.8,11.6,22.7,11.5,22.6,11.4
						C22.7,11.3,22.6,11.3,22.6,11.4L22.6,11.4z"/>
				</g>
			</g>
			<g class="st57">
				<path class="st7" d="M22.6,11.6c0,0.1-0.1,0.1,0,0.2c0,0,0,0.1,0.1,0C22.7,11.8,22.7,11.7,22.6,11.6
					C22.6,11.5,22.6,11.5,22.6,11.6L22.6,11.6z"/>
			</g>
		</g>
		<g>
			<g>
				<defs>
					<path id="SVGID_57_" d="M23.8,11.4c0,0.1-0.1,0.1-0.1,0.1c-0.1,0-0.1-0.2-0.1-0.2c0-0.1,0-0.2,0-0.3c0.1,0.1,0.2,0.2,0.3,0.3
						C23.8,11.3,23.8,11.3,23.8,11.4z"/>
				</defs>
				<use xlink:href="#SVGID_57_"  style="overflow:visible;fill:#EC801E;"/>
				<clipPath id="SVGID_58_">
					<use xlink:href="#SVGID_57_"  style="overflow:visible;"/>
				</clipPath>
				<g class="st83">
					<path class="st56" d="M23.5,11c0,0.1,0,0.2,0,0.2c0,0.1,0,0.2,0.1,0.2c0.1,0.1,0.3,0,0.2-0.1C23.8,11.2,23.7,11.1,23.5,11
						C23.6,10.9,23.5,11,23.5,11L23.5,11z"/>
				</g>
			</g>
			<g class="st57">
				<path class="st7" d="M23.6,11.2c0,0.1,0,0.2,0.1,0.2c0,0,0.1,0,0.1,0C23.8,11.3,23.7,11.2,23.6,11.2
					C23.7,11.1,23.6,11.1,23.6,11.2L23.6,11.2z"/>
			</g>
		</g>
		<g>
			<path class="st84" d="M21.1,11.1c-0.1,0.4-0.2,0.7-0.4,1.1c-0.1,0.3-0.3,0.7,0,0.9c0.1,0.1,0.2,0.1,0.2,0
				c0.3-0.2,0.2-0.6,0.3-0.9c0.1-0.4,0.1-0.7,0.1-1.1C21.3,11,21.1,11,21.1,11.1L21.1,11.1z"/>
		</g>
		<g>
			<path class="st84" d="M20.7,11.8c-0.1,0.3-0.3,0.6-0.2,0.9c0,0,0.1,0,0.1,0c0-0.1,0-0.3,0.1-0.4C20.7,12.1,20.7,12,20.7,11.8
				C20.8,11.8,20.7,11.8,20.7,11.8L20.7,11.8z"/>
		</g>
		<g>
			<path class="st84" d="M21.4,12.5c-0.1,0.1-0.1,0.3-0.2,0.4c0,0,0,0.1,0.1,0.1C21.4,12.9,21.4,12.7,21.4,12.5
				C21.5,12.5,21.4,12.5,21.4,12.5L21.4,12.5z"/>
		</g>
		<g>
			<path class="st84" d="M21.5,8c0-0.1,0.1-0.1,0.1-0.2c0,0,0-0.1,0-0.1c0,0,0,0,0,0c0,0-0.1,0-0.1,0c0,0,0,0,0,0
				c0,0-0.1,0.1-0.1,0.1c0,0.1,0,0.1,0,0.2C21.3,8,21.4,8.1,21.5,8L21.5,8z"/>
		</g>
		<g>
			<path class="st84" d="M22.4,8C22.3,8,22.3,8.1,22.4,8C22.4,8.2,22.5,8.1,22.4,8L22.4,8z"/>
		</g>
		<g>
			<path class="st85" d="M24,10.9c0,0.1,0.1,0.2,0.2,0.2c0,0,0.1,0,0-0.1c0-0.1-0.1-0.1-0.1-0.1C24.1,10.8,24,10.8,24,10.9L24,10.9z
				"/>
		</g>
		<g>
			<path class="st85" d="M23.8,11.4C23.8,11.4,23.8,11.5,23.8,11.4c0,0.1,0.1,0.1,0.1,0.1c0,0,0,0,0-0.1
				C24,11.3,23.8,11.3,23.8,11.4L23.8,11.4z"/>
		</g>
		<g>
			<path class="st85" d="M24.1,8.4c0.1,0,0.1,0,0.1-0.1c0,0,0-0.1-0.1-0.1C24.1,8.3,24.1,8.3,24.1,8.4C24,8.4,24,8.4,24.1,8.4
				L24.1,8.4z"/>
		</g>
		<g>
			<path class="st85" d="M19.4,9.8C19.4,9.8,19.4,9.8,19.4,9.8c-0.1,0,0,0.2,0.1,0.2c0,0,0,0,0,0c0.1,0,0.1-0.1,0-0.1
				C19.5,9.8,19.5,9.8,19.4,9.8L19.4,9.8z"/>
		</g>
		<g>
			<path class="st85" d="M18.5,10.4c0,0.1,0,0.2,0.1,0.2c0,0,0.1,0,0.1-0.1C18.6,10.5,18.6,10.5,18.5,10.4
				C18.5,10.3,18.5,10.4,18.5,10.4L18.5,10.4z"/>
		</g>
		<g>
			<path class="st85" d="M18.9,8C19,8,19,8,19.1,7.9c0,0,0-0.1-0.1-0.1c0,0-0.1,0-0.1,0C18.9,7.8,18.8,8,18.9,8L18.9,8z"/>
		</g>
		<g>
			<polygon class="st85" points="21.4,7.9 21.4,7.8 21.4,7.9 			"/>
		</g>
		<g>
			<path class="st85" d="M23.7,8.3c0.1,0,0.1,0,0.1-0.1c0,0,0,0,0,0C23.7,8.2,23.7,8.2,23.7,8.3C23.6,8.3,23.6,8.3,23.7,8.3
				L23.7,8.3z"/>
		</g>
		<g class="st51">
			<path class="st23" d="M21.5,8.7c-0.2,0.2-0.3,0.3-0.5,0.6c-0.1,0.3-0.2,0.6-0.1,1c0.1,0.3,0.6,0.5,0.8,0.2
				c0.4-0.4,0.3-1.2,0.1-1.7C21.8,8.7,21.6,8.6,21.5,8.7L21.5,8.7z"/>
		</g>
	</g>
</g>
<g>
	<g>
		<g>
			<path class="st86" d="M9.4,18.8c0.7-0.5,1.2-1.2,1.7-1.9c0.6-0.8,1.3-1.5,2.1-2.2c0.1-0.1,0-0.3-0.2-0.2
				c-0.8,0.4-1.3,1.1-1.9,1.8c-0.6,0.8-1.2,1.7-1.9,2.5C9.2,18.8,9.3,18.9,9.4,18.8L9.4,18.8z"/>
		</g>
		<g>
			<path class="st86" d="M9.1,18.4c1-0.9,1.5-2.2,2.4-3.2c0-0.1,0-0.1-0.1-0.1c-0.4,0.4-0.8,0.9-1.1,1.4C9.9,17.1,9.6,17.9,9.1,18.4
				C9.1,18.4,9.1,18.4,9.1,18.4L9.1,18.4z"/>
		</g>
		<g>
			<path class="st87" d="M9.4,18.4c0.7-0.6,1.4-1.2,1.8-2c0-0.1-0.1-0.2-0.2-0.1C10.4,16.9,9.9,17.6,9.4,18.4
				C9.3,18.4,9.4,18.4,9.4,18.4L9.4,18.4z"/>
		</g>
		<g>
			<path class="st87" d="M9.7,18.9c0.6-0.3,1.1-0.7,1.7-1.1c0.6-0.5,1.3-0.9,2-1.2c0.1-0.1,0.1-0.3-0.1-0.2
				c-0.7,0.1-1.3,0.5-1.9,0.9C10.8,17.7,10.1,18.2,9.7,18.9C9.6,18.9,9.7,18.9,9.7,18.9L9.7,18.9z"/>
		</g>
		<g>
			<path class="st88" d="M9.6,18.7c0.6-0.5,1.3-0.9,2-1.4c0.3-0.3,0.7-0.5,1-0.8c0.3-0.2,0.5-0.6,0.8-0.8c0,0,0-0.1,0-0.1
				c-0.7,0.2-1.3,0.8-1.9,1.2C10.7,17.3,10.1,17.9,9.6,18.7C9.5,18.7,9.6,18.8,9.6,18.7L9.6,18.7z"/>
		</g>
		<g>
			<path class="st88" d="M10,19c0.8-0.4,1.5-0.6,2.4-0.8c0.1,0,0.1-0.2,0-0.2c-0.9,0.1-1.7,0.4-2.4,0.9C9.9,18.9,9.9,19,10,19L10,19
				z"/>
		</g>
		<g>
			<path class="st89" d="M9.5,18.8c0.7-0.5,1.3-1.2,1.8-1.8c0.7-0.7,1.4-1.4,2.2-2c0.1-0.1,0-0.2-0.1-0.1
				C11.8,15.8,10.8,17.5,9.5,18.8C9.4,18.8,9.4,18.9,9.5,18.8L9.5,18.8z"/>
		</g>
		<g>
			<path class="st89" d="M10,18.8c0.8-0.4,1.4-1,2.3-1.2c0.1,0,0-0.1,0-0.1C11.4,17.7,10.8,18.3,10,18.8C9.9,18.7,10,18.8,10,18.8
				L10,18.8z"/>
		</g>
		<g>
			<path class="st89" d="M9.1,18.5c0.5-0.7,1-1.4,1.3-2.2c0-0.1-0.1-0.1-0.1,0C9.8,17,9.4,17.7,9.1,18.5C9,18.5,9,18.5,9.1,18.5
				L9.1,18.5z"/>
		</g>
		<g>
			<defs>
				<path id="SVGID_59_" d="M0,26.9C0,27,0.3,27.2,2.9,25.8c0.5-0.3,0.9-0.6,1.3-0.9c0.3-0.2,0.7-0.5,1-0.7c1.5-1.1,2.9-2.2,4.3-3.4
					c0.3-0.3,0.6-0.6,0.8-1c0.2-0.4,0.2-0.9-0.1-1.2C10,18.5,9.7,18.1,9.5,18c-0.8-0.3-0.8-0.3-1.7,0.1c-0.5,0.3-1.3,1.1-1.8,1.6
					c-1.4,1.5-2.9,3.2-4.4,4.6C1.1,25,0.4,25.5,0,26.2C-0.1,26.4-0.2,26.8,0,26.9z"/>
			</defs>
			<use xlink:href="#SVGID_59_"  style="overflow:visible;fill:#F06522;"/>
			<clipPath id="SVGID_60_">
				<use xlink:href="#SVGID_59_"  style="overflow:visible;"/>
			</clipPath>
			<g class="st90">
				<path class="st91" d="M-0.5,27.7c1.1,0.3,2.2-0.5,3.2-1c1.3-0.6,2.4-1.5,3.5-2.4c1.1-0.9,2.1-1.9,3.1-3c1.1-1.1,2.2-2.2,2.7-3.6
					c0.2-0.5-2.6-0.9-2.7-0.4c-0.2,0.5,0.3,1-0.6,1.9c-0.9,1-2.4,2.1-3.5,3c-1,0.9-1.7,1.5-2.7,2.4c-0.5,0.4-1.1,0.9-1.6,1.4
					c-0.3,0.3-0.8,0.7-1.2,0.6C-0.5,26.7-0.7,27.7-0.5,27.7L-0.5,27.7z"/>
			</g>
			<g class="st90">
				<path class="st91" d="M0,28.1c1.1,0.3,2.2-0.5,3.2-1c1.3-0.6,2.4-1.5,3.5-2.4c1.1-0.9,2.1-1.9,3.1-3c1.1-1.1,2.2-2.2,2.7-3.6
					c0.2-0.5-2.9-0.9-2.7-0.4c0.1,0.6,0.3,1-0.6,1.9c-0.9,1-2.4,2.1-3.5,3c-1,0.9-1.7,1.5-2.7,2.4c-0.5,0.4-1.7,1.1-2.4,1.7
					c-0.4,0.3-0.6,0.6-0.9,0.6C-0.6,27.3-0.2,28.1,0,28.1L0,28.1z"/>
			</g>
			<g class="st92">
				<path class="st91" d="M0.7,28.3c1.1,0.3,2.2-0.5,3.2-1c1.3-0.6,2.4-1.5,3.5-2.4c1.1-0.9,2.1-1.9,3.1-3c1.1-1.1,2.2-2.2,2.7-3.6
					c0.2-0.5-2.9-0.9-2.7-0.4c0.1,0.6,0.3,1-0.6,1.9c-0.9,1-2.4,2.1-3.5,3c-1,0.9-1.7,1.5-2.7,2.4c-0.5,0.4-1.7,1.1-2.4,1.7
					c-0.4,0.3-0.6,0.6-0.9,0.6C0,27.4,0.4,28.2,0.7,28.3L0.7,28.3z"/>
			</g>
		</g>
		<g>
			<path class="st93" d="M0.5,26.2c0.4-0.2,0.7-0.5,1-0.8c0.3-0.3,0.7-0.6,1-1c0.1-0.1-0.1-0.3-0.2-0.2c-0.4,0.3-0.8,0.7-1.2,1
				c-0.3,0.3-0.6,0.5-0.7,0.9C0.3,26.2,0.4,26.3,0.5,26.2L0.5,26.2z"/>
		</g>
		<g>
			<path class="st93" d="M2.9,24.1c0.5-0.1,1-0.7,1.4-1.1c0.6-0.6,1.1-1.3,1.6-1.9c0.5-0.6,1.1-1.2,1.7-1.7C8,19.1,8.5,19,8.9,18.8
				c0.4-0.3,0.1-0.9-0.3-0.9c-0.5,0-0.9,0.4-1.3,0.7c-0.6,0.5-1,1-1.5,1.6c-0.6,0.6-1.1,1.3-1.6,1.9c-0.5,0.6-1.2,1.1-1.6,1.7
				C2.6,23.9,2.7,24.1,2.9,24.1L2.9,24.1z"/>
		</g>
		<g class="st57">
			<path class="st94" d="M4.6,22c0.4-0.2,0.6-0.6,0.9-0.9c0.4-0.5,0.8-0.8,1.2-1.3c0.1-0.1,0-0.2-0.1-0.1C5.7,20.2,5.1,21.2,4.6,22
				C4.5,22,4.5,22,4.6,22L4.6,22z"/>
		</g>
		<g class="st57">
			<path class="st94" d="M7,19.5c0.2-0.1,0.4-0.3,0.6-0.4c0.2-0.2,0.5-0.2,0.7-0.4c0.1-0.1,0-0.2-0.1-0.2c-0.5,0-1.1,0.5-1.4,0.9
				C6.9,19.4,6.9,19.5,7,19.5L7,19.5z"/>
		</g>
		<g class="st57">
			<path class="st95" d="M1.9,25.6c0.1,0.1,0.2,0.2,0.3,0.3c0,0,0.1,0,0.1,0C2.2,25.7,2.1,25.6,1.9,25.6C1.9,25.5,1.9,25.5,1.9,25.6
				L1.9,25.6z"/>
		</g>
		<g class="st57">
			<path class="st95" d="M1.3,25.6C1.3,25.6,1.4,25.6,1.3,25.6C1.4,25.7,1.4,25.7,1.3,25.6C1.4,25.6,1.4,25.6,1.3,25.6
				C1.3,25.6,1.3,25.6,1.3,25.6L1.3,25.6z"/>
		</g>
		<g class="st57">
			<path class="st95" d="M0.9,25.7c0,0,0.1,0.1,0.1,0.1c0,0,0,0,0,0C1,25.7,1,25.7,0.9,25.7C0.9,25.6,0.9,25.7,0.9,25.7L0.9,25.7z"
				/>
		</g>
		<g class="st57">
			<path class="st95" d="M1.1,25.9C1.1,25.9,1.1,25.9,1.1,25.9C1.1,25.9,1.2,25.9,1.1,25.9C1.2,25.9,1.2,25.9,1.1,25.9
				C1.2,25.9,1.1,25.9,1.1,25.9L1.1,25.9z"/>
		</g>
		<g class="st57">
			<path class="st95" d="M0.9,26.1C1,26.2,1,26.3,1.1,26.3c0,0,0,0,0,0C1.1,26.2,1,26.1,0.9,26.1C0.9,26,0.9,26.1,0.9,26.1L0.9,26.1
				z"/>
		</g>
		<g class="st57">
			<path class="st95" d="M0.5,26.2C0.5,26.2,0.5,26.3,0.5,26.2C0.6,26.3,0.6,26.3,0.5,26.2C0.6,26.2,0.5,26.2,0.5,26.2
				C0.5,26.2,0.5,26.2,0.5,26.2L0.5,26.2z"/>
		</g>
		<g class="st57">
			<path class="st95" d="M0.2,26.3c0,0.1,0.1,0.1,0.1,0.2c0,0,0,0,0,0C0.3,26.4,0.2,26.4,0.2,26.3C0.2,26.3,0.2,26.3,0.2,26.3
				L0.2,26.3z"/>
		</g>
		<g class="st57">
			<path class="st95" d="M2.3,25.1C2.3,25.1,2.4,25.1,2.3,25.1C2.4,25.1,2.4,25.1,2.3,25.1C2.4,25.1,2.3,25.1,2.3,25.1
				C2.3,25.1,2.3,25.1,2.3,25.1L2.3,25.1z"/>
		</g>
		<g class="st57">
			<path class="st95" d="M2.2,24.8c0.1,0.1,0.2,0.2,0.3,0.3c0,0,0.1,0,0,0C2.4,25,2.3,24.9,2.2,24.8C2.2,24.8,2.2,24.8,2.2,24.8
				L2.2,24.8z"/>
		</g>
		<g class="st57">
			<path class="st95" d="M2.4,24.1c0,0,0.1,0.1,0.1,0.1c0,0,0.1,0.1,0.1,0.1c0,0,0.1,0,0.1,0C2.6,24.1,2.5,24,2.4,24.1
				C2.4,24,2.4,24,2.4,24.1L2.4,24.1z"/>
		</g>
		<g class="st57">
			<path class="st95" d="M3.3,25c0.1,0.1,0.1,0.1,0.2,0.2c0,0,0,0,0,0C3.4,25.1,3.4,25,3.3,25C3.3,24.9,3.3,25,3.3,25L3.3,25z"/>
		</g>
		<g class="st57">
			<path class="st95" d="M3.1,24c0,0.1,0.1,0.1,0.2,0.2c0,0,0.1,0,0.1-0.1c0,0,0-0.1-0.1-0.1C3.2,24.1,3.2,24,3.1,24
				C3.1,24,3.1,24,3.1,24L3.1,24z"/>
		</g>
		<g class="st57">
			<path class="st95" d="M3.6,23.4c0.1,0.1,0.1,0.2,0.2,0.2c0,0,0.1,0,0.1-0.1C3.9,23.4,3.8,23.4,3.6,23.4
				C3.6,23.3,3.6,23.3,3.6,23.4L3.6,23.4z"/>
		</g>
		<g class="st57">
			<path class="st95" d="M4.4,24.1c0.1,0.1,0.1,0.2,0.2,0.3c0,0,0.1,0,0.1,0C4.6,24.2,4.5,24.1,4.4,24.1C4.4,24,4.4,24.1,4.4,24.1
				L4.4,24.1z"/>
		</g>
		<g class="st57">
			<path class="st95" d="M4.6,23c0.1,0,0.1,0.1,0.1,0.1c0,0.1,0.1,0.1,0.1,0.2c0,0,0.1,0,0.1,0c0-0.1-0.1-0.1-0.1-0.2
				C4.8,23.1,4.7,23.1,4.6,23C4.6,23,4.6,23,4.6,23L4.6,23z"/>
		</g>
		<g class="st57">
			<path class="st95" d="M4.3,22.4C4.3,22.4,4.3,22.4,4.3,22.4c0.1,0.1,0.1,0,0.1,0C4.4,22.4,4.3,22.4,4.3,22.4
				C4.3,22.3,4.2,22.4,4.3,22.4L4.3,22.4z"/>
		</g>
		<g class="st57">
			<path class="st95" d="M5.2,22.5c0.1,0.1,0.1,0.2,0.2,0.2c0,0,0.1,0,0,0C5.3,22.6,5.3,22.5,5.2,22.5C5.2,22.4,5.1,22.4,5.2,22.5
				L5.2,22.5z"/>
		</g>
		<g class="st57">
			<path class="st95" d="M5.3,21.5c0,0.1,0.1,0.1,0.1,0.2c0,0,0,0,0,0C5.4,21.6,5.4,21.5,5.3,21.5C5.3,21.5,5.3,21.5,5.3,21.5
				L5.3,21.5z"/>
		</g>
		<g class="st57">
			<path class="st95" d="M5.8,22c0.1,0.1,0.2,0.2,0.3,0.4c0,0,0.1,0,0.1,0C6.1,22.1,5.9,22,5.8,22C5.8,21.9,5.7,21.9,5.8,22L5.8,22z
				"/>
		</g>
		<g class="st57">
			<path class="st95" d="M6.2,23.3c0-0.1,0-0.2-0.1-0.3c0,0-0.1,0-0.1,0C6.1,23.1,6.2,23.2,6.2,23.3C6.2,23.3,6.2,23.3,6.2,23.3
				L6.2,23.3z"/>
		</g>
		<g class="st57">
			<path class="st95" d="M6.2,21.1c0,0,0.1,0.1,0.1,0.1c0,0,0.1,0.1,0.1,0.1c0,0,0.1,0,0.1,0C6.5,21.2,6.3,21.1,6.2,21.1
				C6.2,21,6.2,21.1,6.2,21.1L6.2,21.1z"/>
		</g>
		<g class="st57">
			<path class="st95" d="M7,22.2C7,22.1,7,22,6.9,21.9c0,0-0.1,0-0.1,0C6.9,22.1,6.9,22.1,7,22.2C7,22.3,7,22.2,7,22.2L7,22.2z"/>
		</g>
		<g class="st57">
			<path class="st95" d="M6.6,20.1c0.1,0.1,0.1,0.2,0.2,0.3c0,0,0.1,0,0.1,0C6.8,20.3,6.7,20.2,6.6,20.1C6.6,20.1,6.6,20.1,6.6,20.1
				L6.6,20.1z"/>
		</g>
		<g class="st57">
			<path class="st95" d="M7.6,21.4c0-0.1-0.1-0.2-0.1-0.2c0,0-0.1,0-0.1,0C7.4,21.3,7.5,21.4,7.6,21.4C7.6,21.4,7.6,21.4,7.6,21.4
				L7.6,21.4z"/>
		</g>
		<g class="st57">
			<path class="st95" d="M7.5,20c0.1,0.1,0.2,0.3,0.3,0.5c0,0,0.1,0,0.1,0C7.8,20.2,7.7,20,7.5,20C7.5,19.9,7.5,19.9,7.5,20L7.5,20z
				"/>
		</g>
		<g class="st57">
			<path class="st95" d="M8.1,19.1c0.1,0,0.1,0.1,0.2,0.1c0,0,0.1,0,0,0C8.2,19.2,8.2,19.1,8.1,19.1C8.1,19.1,8.1,19.1,8.1,19.1
				L8.1,19.1z"/>
		</g>
		<g class="st57">
			<path class="st95" d="M8.8,20c0.1,0.1,0.1,0.2,0.2,0.2c0,0,0.1,0,0.1,0C9,20.1,8.9,20,8.8,20C8.8,19.9,8.7,20,8.8,20L8.8,20z"/>
		</g>
		<g class="st57">
			<path class="st95" d="M8.7,21.1c0-0.1,0-0.1-0.1-0.2c0,0-0.1,0-0.1,0C8.6,21,8.6,21.1,8.7,21.1C8.7,21.2,8.8,21.1,8.7,21.1
				L8.7,21.1z"/>
		</g>
		<g class="st57">
			<path class="st95" d="M9.1,18.9c0.1,0.1,0.1,0.3,0.2,0.4c0,0,0.1,0,0.1,0C9.4,19.1,9.3,18.9,9.1,18.9C9.1,18.8,9.1,18.9,9.1,18.9
				L9.1,18.9z"/>
		</g>
		<g class="st96">
			<path class="st95" d="M1.9,26C1.9,26,2,26.1,2,26.2c0,0,0.1,0,0.1,0C2.1,26,2,26,1.9,26C1.9,25.9,1.9,25.9,1.9,26L1.9,26z"/>
		</g>
		<g class="st96">
			<path class="st95" d="M2.5,24.6c0,0.1,0.1,0.2,0.2,0.2c0,0,0,0,0,0C2.7,24.7,2.6,24.6,2.5,24.6C2.5,24.6,2.5,24.6,2.5,24.6
				L2.5,24.6z"/>
		</g>
		<g>
			<path class="st97" d="M1.3,25.6c0.1,0.1,0.1,0.2,0.2,0.2c0,0,0,0,0,0C1.4,25.7,1.3,25.7,1.3,25.6C1.3,25.6,1.3,25.6,1.3,25.6
				L1.3,25.6z"/>
		</g>
		<g>
			<path class="st97" d="M1.6,25.4c0,0,0-0.1-0.1-0.1c0,0,0,0,0,0C1.6,25.3,1.6,25.4,1.6,25.4C1.6,25.4,1.7,25.4,1.6,25.4L1.6,25.4z
				"/>
		</g>
		<g>
			<path class="st98" d="M3,24.7c0.1,0.1,0.2,0.3,0.2,0.4c0,0,0,0,0,0C3.2,25,3.1,24.9,3,24.7C3,24.7,3,24.7,3,24.7L3,24.7z"/>
		</g>
		<g>
			<path class="st98" d="M3.4,23.6c0.1,0.1,0.1,0.2,0.2,0.3c0,0,0,0,0,0C3.6,23.8,3.5,23.7,3.4,23.6C3.4,23.6,3.4,23.6,3.4,23.6
				L3.4,23.6z"/>
		</g>
		<g>
			<path class="st98" d="M3.9,22.9C4,22.9,4,22.9,3.9,22.9C4,23,4,22.9,3.9,22.9C4,22.9,4,22.9,3.9,22.9C4,22.8,3.9,22.8,3.9,22.9
				L3.9,22.9z"/>
		</g>
		<g>
			<path class="st98" d="M4.6,23.6c0.1,0.1,0.1,0.2,0.2,0.2c0,0,0,0,0,0C4.8,23.8,4.7,23.7,4.6,23.6C4.7,23.6,4.6,23.6,4.6,23.6
				L4.6,23.6z"/>
		</g>
		<g>
			<path class="st98" d="M5,22.7C5,22.7,5,22.7,5,22.7C5,22.7,5,22.7,5,22.7C5,22.7,5,22.7,5,22.7C5,22.7,5,22.7,5,22.7L5,22.7z"/>
		</g>
		<g>
			<path class="st98" d="M4.9,22.4C5,22.4,5,22.5,5.1,22.6c0,0,0.1,0,0,0C5.1,22.5,5,22.4,4.9,22.4C4.9,22.3,4.9,22.4,4.9,22.4
				L4.9,22.4z"/>
		</g>
		<g>
			<path class="st98" d="M5.2,21.7C5.2,21.8,5.2,21.8,5.2,21.7C5.2,21.8,5.2,21.8,5.2,21.7C5.2,21.7,5.2,21.7,5.2,21.7
				C5.2,21.7,5.2,21.7,5.2,21.7L5.2,21.7z"/>
		</g>
		<g>
			<path class="st98" d="M6.1,22c0.2,0.2,0.3,0.5,0.4,0.8c0,0,0,0,0,0C6.5,22.5,6.3,22.3,6.1,22C6.1,22,6.1,22,6.1,22L6.1,22z"/>
		</g>
		<g>
			<path class="st98" d="M2,25.4c-0.1-0.1-0.2-0.3-0.4-0.4c0,0,0,0,0,0C1.7,25.1,1.9,25.3,2,25.4C2,25.4,2,25.4,2,25.4L2,25.4z"/>
		</g>
		<g>
			<path class="st98" d="M6.8,20.2c0.1,0.1,0.2,0.3,0.3,0.4c0,0,0.1,0,0,0C7.1,20.5,7,20.3,6.8,20.2C6.8,20.2,6.8,20.2,6.8,20.2
				L6.8,20.2z"/>
		</g>
		<g>
			<path class="st98" d="M7.9,19.9C8,19.9,8,20,8,20c0,0,0,0,0,0C8,19.9,8,19.9,7.9,19.9C7.9,19.8,7.9,19.8,7.9,19.9L7.9,19.9z"/>
		</g>
		<g>
			<path class="st98" d="M8.4,20.8c0,0,0,0.1,0.1,0.1C8.4,20.9,8.4,20.9,8.4,20.8C8.4,20.9,8.4,20.8,8.4,20.8
				C8.4,20.8,8.4,20.8,8.4,20.8L8.4,20.8z"/>
		</g>
		<g>
			<path class="st98" d="M1.1,26.5c-0.1-0.1-0.1-0.2-0.2-0.2c0,0,0,0,0,0C0.9,26.4,1,26.4,1.1,26.5C1.1,26.5,1.1,26.5,1.1,26.5
				L1.1,26.5z"/>
		</g>
		<g>
			<path class="st93" d="M3.9,23.3c0.2,0.1,0.3,0.3,0.4,0.5c0,0,0,0,0,0C4.2,23.6,4.1,23.4,3.9,23.3C3.9,23.3,3.9,23.3,3.9,23.3
				L3.9,23.3z"/>
		</g>
		<g>
			<path class="st93" d="M1.7,25c0.2,0.2,0.4,0.3,0.6,0.6c0,0,0.1,0,0,0C2.2,25.3,1.9,25.1,1.7,25C1.7,24.9,1.6,25,1.7,25L1.7,25z"
				/>
		</g>
		<g>
			<path class="st93" d="M5.7,22.2c0.2,0.2,0.3,0.4,0.4,0.6c0,0,0.1,0,0,0C6,22.6,5.8,22.4,5.7,22.2C5.7,22.2,5.7,22.2,5.7,22.2
				L5.7,22.2z"/>
		</g>
		<g>
			<path class="st93" d="M6.6,20.7c0.3,0.2,0.4,0.4,0.6,0.7c0.2,0.2,0.2,0.5,0.4,0.6c0,0,0.1,0,0.1,0C7.5,21.4,7.1,21,6.6,20.7
				C6.6,20.6,6.6,20.7,6.6,20.7L6.6,20.7z"/>
		</g>
		<g>
			<path class="st93" d="M7,20.7c0.1,0.1,0.2,0.2,0.3,0.3c0,0,0.1,0,0,0C7.2,20.8,7.1,20.8,7,20.7C7,20.6,7,20.7,7,20.7L7,20.7z"/>
		</g>
		<g>
			<path class="st93" d="M9.1,20.7c0,0,0-0.1-0.1-0.1c0,0-0.1,0-0.1,0C8.9,20.6,9,20.7,9.1,20.7C9.1,20.7,9.1,20.7,9.1,20.7
				L9.1,20.7z"/>
		</g>
		<g>
			<path class="st93" d="M8.3,19.6C8.3,19.6,8.3,19.7,8.3,19.6c0.1,0.1,0.1,0.1,0.1,0.1C8.4,19.6,8.4,19.6,8.3,19.6
				C8.3,19.6,8.3,19.6,8.3,19.6L8.3,19.6z"/>
		</g>
		<g>
			<path class="st93" d="M8.7,19.1c0.1,0,0.1,0.1,0.2,0.2c0,0,0,0,0,0C8.9,19.2,8.8,19.1,8.7,19.1C8.7,19.1,8.7,19.1,8.7,19.1
				L8.7,19.1z"/>
		</g>
		<g>
			<path class="st93" d="M8.9,19.7c0,0,0.1,0.1,0.1,0.1c0,0,0,0,0,0C9,19.8,9,19.7,8.9,19.7C8.9,19.7,8.9,19.7,8.9,19.7L8.9,19.7z"
				/>
		</g>
		<g>
			<path class="st93" d="M7.9,21C8,21,8,21,7.9,21C8,21.1,8.1,21,8.1,21C8,21,8,21,7.9,21C8,20.9,7.9,20.9,7.9,21L7.9,21z"/>
		</g>
		<g>
			<path class="st93" d="M5.5,23.5c0-0.1,0-0.2-0.1-0.2c0,0-0.1,0,0,0C5.4,23.4,5.5,23.5,5.5,23.5C5.5,23.6,5.5,23.6,5.5,23.5
				L5.5,23.5z"/>
		</g>
		<g>
			<path class="st99" d="M11.4,16.3c0.4-0.6,0.9-1.1,1.5-1.5c0.1-0.1,0-0.1-0.1-0.1c-0.3,0.1-0.5,0.4-0.7,0.6
				C11.8,15.6,11.5,15.9,11.4,16.3C11.3,16.3,11.4,16.3,11.4,16.3L11.4,16.3z"/>
		</g>
		<g>
			<path class="st99" d="M11.3,17.3c0.5-0.5,1-0.8,1.5-1.2c0.1,0,0-0.1-0.1-0.1C12.2,16.2,11.6,16.7,11.3,17.3
				C11.2,17.3,11.2,17.3,11.3,17.3L11.3,17.3z"/>
		</g>
		<g>
			<path class="st99" d="M10.1,17.6c0.2-0.2,0.3-0.4,0.5-0.6c0,0,0,0,0,0C10.4,17.2,10.3,17.4,10.1,17.6
				C10.1,17.6,10.1,17.6,10.1,17.6L10.1,17.6z"/>
		</g>
		<g>
			<path class="st99" d="M12.2,16.9c0.3-0.1,0.6-0.3,0.9-0.3c0,0,0-0.1,0,0C12.7,16.6,12.5,16.7,12.2,16.9
				C12.2,16.9,12.2,16.9,12.2,16.9L12.2,16.9z"/>
		</g>
		<g>
			<path class="st99" d="M10.1,18.5c0.2-0.1,0.4-0.2,0.6-0.4c0,0,0-0.1,0-0.1C10.4,18.2,10.3,18.3,10.1,18.5
				C10.1,18.5,10.1,18.5,10.1,18.5L10.1,18.5z"/>
		</g>
	</g>
	<g>
		<path class="st100" d="M11.7,21.3c0-0.1-0.2-0.8-0.3-0.8c-0.1,0-0.6,0.2-0.6,0.4C10.8,21,11.7,21.3,11.7,21.3z"/>
		<path class="st101" d="M11.7,21.2c0,0.1-2.9,4.1-3.1,4.2S7.7,25.1,7.9,25c0.2,0,2.9-4.1,3-4.2C11,20.7,11.7,21.2,11.7,21.2z"/>
		<g>
			<defs>
				<path id="SVGID_61_" d="M11.7,21.2c0,0.1-2.9,4.1-3.1,4.2S7.8,25.2,7.9,25c0.2-0.2,2.9-4.1,3-4.2C11,20.7,11.7,21.2,11.7,21.2z"
					/>
			</defs>
			<clipPath id="SVGID_62_">
				<use xlink:href="#SVGID_61_"  style="overflow:visible;"/>
			</clipPath>
			<g class="st102">
				<path class="st101" d="M11,20.4c0,0.1-0.3,0.2-0.3,0.3c-0.2,0.2-0.3,0.4-0.5,0.6c-0.3,0.4-0.7,0.9-1,1.3c-0.3,0.4-0.7,0.9-1,1.3
					c-0.3,0.4-0.7,0.9-0.9,1.3c-0.2,0.3,0.3,0.5,0.5,0.3c0.4-0.5,0.8-0.9,1.1-1.4c0.4-0.5,0.7-1,1.1-1.4c0.4-0.5,0.7-1,1-1.5
					c0.2-0.2,0.4-0.6,0.3-0.9C11.2,20.3,11,20.3,11,20.4L11,20.4z"/>
			</g>
			<g class="st103">
				<path class="st101" d="M11.8,20.7c-0.3,0.4-0.7,0.8-1,1.2c-0.3,0.5-0.7,0.9-1,1.4c-0.3,0.4-1.6,2.1-1.8,2.2
					c-0.2,0.2-0.3,0-0.2,0.3c0,0.1,0.1,0.2,0.2,0.2c0.2,0,0.4-0.1,0.6-0.3c0.2-0.2,0.4-0.5,0.7-0.7c0.4-0.4,0.7-0.9,1.1-1.4
					c0.3-0.5,0.6-0.9,1-1.4c0.1-0.2,0.3-0.4,0.4-0.6c0.1-0.3,0.2-0.6,0.3-0.8C12,20.7,11.9,20.6,11.8,20.7L11.8,20.7z"/>
			</g>
		</g>
		<g class="st104">
			<path class="st7" d="M11.2,21.1c-0.2,0.2-0.4,0.4-0.5,0.6c-0.2,0.2-0.4,0.5-0.5,0.7c-0.2,0.2-0.3,0.4-0.5,0.7
				c-0.1,0.2-0.2,0.3-0.2,0.5c0,0,0,0.1,0.1,0.1c0.2,0,0.3-0.1,0.4-0.3c0.2-0.3,0.3-0.5,0.5-0.7c0.3-0.4,0.8-0.9,0.9-1.5
				C11.3,21.1,11.3,21.1,11.2,21.1L11.2,21.1z"/>
		</g>
		<g class="st104">
			<path class="st7" d="M11,21.5c-0.2,0.1-0.3,0.3-0.4,0.4c-0.1,0.2-0.3,0.3-0.4,0.5c-0.1,0.2-0.2,0.3-0.3,0.5
				c-0.1,0.1-0.2,0.2-0.2,0.4c0,0,0,0,0,0c0.1,0,0.2-0.1,0.3-0.2c0.1-0.2,0.2-0.4,0.4-0.5C10.6,22.3,11,21.9,11,21.5
				C11.1,21.5,11,21.5,11,21.5L11,21.5z"/>
		</g>
		<g class="st105">
			<path class="st7" d="M9.3,23.8c-0.2,0.1-0.4,0.3-0.5,0.5c-0.2,0.2-0.3,0.4-0.3,0.6C8.5,25,8.5,25,8.6,25
				C9,24.8,9.3,24.2,9.3,23.8C9.4,23.8,9.3,23.7,9.3,23.8L9.3,23.8z"/>
		</g>
	</g>
	<g>
		<path class="st106" d="M11.5,21c0-0.1,0-1-0.1-0.9c-0.1,0-0.7,0.1-0.7,0.3C10.6,20.5,11.5,21,11.5,21z"/>
		<g>
			<defs>
				<path id="SVGID_63_" d="M11.5,21c0,0.2-4.1,4-4.5,4c-0.3,0-0.8-0.6-0.7-0.6c0.2,0,4.2-4,4.3-4.1C10.8,20.2,11.5,21,11.5,21z"/>
			</defs>
			<use xlink:href="#SVGID_63_"  style="overflow:visible;fill:#ED7B2E;"/>
			<clipPath id="SVGID_64_">
				<use xlink:href="#SVGID_63_"  style="overflow:visible;"/>
			</clipPath>
			<g class="st107">
				<path class="st108" d="M10.9,19.9c0,0.1-0.3,0.2-0.4,0.3c-0.2,0.2-0.4,0.4-0.7,0.6c-0.5,0.4-1,0.8-1.4,1.3
					c-0.5,0.4-1,0.8-1.4,1.3c-0.5,0.4-0.9,0.8-1.3,1.3c-0.2,0.3,0.2,0.6,0.5,0.4c0.5-0.4,1-0.8,1.5-1.3c0.5-0.5,1-0.9,1.5-1.3
					c0.5-0.4,1-0.9,1.5-1.4c0.2-0.2,0.6-0.6,0.5-1C11.1,19.8,10.9,19.8,10.9,19.9L10.9,19.9z"/>
			</g>
			<g class="st109">
				<path class="st108" d="M11.7,20.4c-0.4,0.4-0.9,0.8-1.4,1.2c-0.5,0.5-0.9,0.9-1.4,1.3c-0.5,0.4-2.2,2-2.5,2.1
					c-0.3,0.2-0.3-0.1-0.3,0.3c0,0.1,0.1,0.2,0.2,0.3c0.3,0.1,0.5,0,0.7-0.2c0.3-0.2,0.6-0.4,0.9-0.6c0.5-0.4,1-0.9,1.5-1.3
					c0.5-0.5,0.9-0.9,1.4-1.4c0.2-0.2,0.4-0.4,0.6-0.6c0.2-0.3,0.4-0.6,0.5-0.9C12,20.5,11.8,20.3,11.7,20.4L11.7,20.4z"/>
			</g>
		</g>
		<g class="st104">
			<path class="st7" d="M10.9,20.7c-0.3,0.1-0.5,0.3-0.7,0.5c-0.2,0.2-0.5,0.4-0.8,0.7c-0.2,0.2-0.5,0.4-0.7,0.6
				c-0.2,0.2-0.3,0.3-0.3,0.5c0,0,0,0.1,0.1,0.1c0.2,0.1,0.4,0,0.5-0.2c0.2-0.3,0.5-0.5,0.7-0.7c0.5-0.4,1.1-0.8,1.3-1.5
				C11.1,20.8,11,20.7,10.9,20.7L10.9,20.7z"/>
		</g>
		<g class="st104">
			<path class="st7" d="M10.6,21.1c-0.2,0.1-0.4,0.3-0.5,0.4c-0.2,0.2-0.4,0.3-0.6,0.5c-0.2,0.1-0.3,0.3-0.5,0.5
				c-0.1,0.1-0.3,0.2-0.3,0.4c0,0,0,0,0,0c0.1,0,0.2-0.1,0.3-0.2c0.2-0.2,0.4-0.3,0.5-0.5C10,21.9,10.5,21.6,10.6,21.1
				C10.7,21.2,10.7,21.1,10.6,21.1L10.6,21.1z"/>
		</g>
		<g class="st105">
			<path class="st7" d="M8.2,23.3c-0.3,0.1-0.5,0.3-0.7,0.4C7.3,23.9,7,24.1,7,24.3c0,0.1,0.1,0.2,0.2,0.1c0.5-0.1,0.9-0.7,1.1-1.1
				C8.3,23.3,8.3,23.3,8.2,23.3L8.2,23.3z"/>
		</g>
	</g>
</g>
<g>
	<g>
		<g>
			<defs>
				<path id="SVGID_65_" d="M21,25.8c-0.4,0.1-0.8,0.1-1.2,0c-0.7-0.1-1.4-0.4-1.9-0.8c-0.2-0.1-0.3-0.3-0.4-0.5
					c-0.1-0.2-0.1-0.4-0.1-0.6c0-0.5,0.1-1,0.5-1.4c0.2-0.1,0.4-0.2,0.6-0.3c0.2-0.1,0.4-0.2,0.7-0.3c0.2,0,0.3-0.1,0.5-0.1
					c0.2-0.1,0.4-0.2,0.6-0.4c0.1-0.2,0.2-0.4,0.2-0.7c0-0.2,0-0.3-0.1-0.5c0-0.1,0-0.2,0.1-0.2c0.1,0,0.2,0,0.3,0c0,0,0.1,0,0.1,0
					c0,0,0,0.1,0.1,0.1c0,0.2,0,0.5,0,0.8c0,0.3,0,0.5,0.2,0.7c0.1,0.1,0.3,0.2,0.4,0.2c0.5,0.1,1,0.2,1.4,0.6
					c0.4,0.4,0.5,0.9,0.4,1.4c0,0.2-0.1,0.4-0.2,0.6C22.6,25.4,22.1,25.6,21,25.8z"/>
			</defs>
			<use xlink:href="#SVGID_65_"  style="overflow:visible;fill:#F6DCDB;"/>
			<clipPath id="SVGID_66_">
				<use xlink:href="#SVGID_65_"  style="overflow:visible;"/>
			</clipPath>
			<g class="st110">
				<path class="st111" d="M20.1,20c0,0.1-0.1,0.2-0.1,0.2c0,0.1,0,0.2,0,0.2c0,0.2-0.1,0.3-0.1,0.5c-0.1,0.4-3.3,1.2-3.3,1.6
					c-0.1,0.8,1.2,2.8,1.7,3.4c0.4,0.6,2.7,0.1,3.4,0.2c0.4,0.1,0.8-0.8,1.2-0.7c0.4,0,0.8-0.4,0.6-0.8c0-0.1-0.2-0.2-0.3-0.2
					c-0.1,0-0.1,0-0.2,0c0.1,0-0.1,0-0.1,0c-0.1,0-0.2,0-0.3,0c-0.3,0-0.6-0.1-0.8-0.1c-0.5-0.1-0.9-0.4-1.2-0.8
					c-0.3-0.5-0.3-1.1-0.2-1.6c0.1-0.3,0.2-0.6,0.3-0.9c0-0.2,0-0.4,0-0.6c0,0-0.1-0.4-0.1-0.5C20.5,19.7,20.1,19.8,20.1,20L20.1,20
					z"/>
			</g>
			<g class="st110">
				<path class="st111" d="M19.3,20.6c0,0.1-0.1,0.2-0.1,0.2c0,0.1,0,0.2,0,0.2c0,0.2-0.1,0.3-0.1,0.5c-0.1,0.4-3.3,1.2-3.3,1.6
					c-0.1,0.8,1.2,2.8,1.7,3.4c0.4,0.6,2.7,0.1,3.4,0.2c0.4,0.1,0.8-0.8,1.2-0.7c0.4,0,1.2-0.2,1-0.6c0-0.1-0.1-0.3-0.2-0.3
					c-0.1,0-0.6,0-0.7,0c0.1,0-0.1,0-0.1,0c-0.1,0-0.2,0-0.3,0c-0.3,0-0.6-0.1-0.8-0.1c-0.5-0.1-0.9-0.4-1.2-0.8
					c-0.3-0.5-0.3-1.1-0.2-1.6c0.1-0.3,0.6-0.8,0.6-1.2c0-0.2-0.3-0.2-0.4-0.4c0,0-0.1-0.4-0.1-0.5C19.7,20.3,19.3,20.4,19.3,20.6
					L19.3,20.6z"/>
			</g>
			<g class="st110">
				<path class="st111" d="M18.4,20.9c0,0.1-0.1,0.1-0.1,0.2c0,0.1,0,0.2-0.1,0.2c-0.1,0.2-0.1,0.3-0.2,0.5
					c-0.2,0.3-3.4,0.7-3.5,1.1c-0.3,0.8,0.8,2.9,1.2,3.6c0.4,0.6,2.7,0.5,3.4,0.7c0.3,0.1,0.9-0.6,1.3-0.6c0.4,0.1,1.2,0,1.1-0.5
					c0-0.1,0-0.3-0.1-0.3c-0.1,0-0.6-0.1-0.7-0.1c0.1,0-0.1,0-0.1,0c-0.1,0-0.2,0-0.3-0.1c-0.3-0.1-0.6-0.1-0.8-0.2
					c-0.5-0.2-0.9-0.5-1.1-1c-0.2-0.5-0.1-1.2,0.2-1.7c0.3-0.5,0.6-0.6,1-0.9c0.1-0.1-0.6-0.3-0.6-0.5c0,0,0-0.4-0.1-0.5
					C18.9,20.7,18.5,20.8,18.4,20.9L18.4,20.9z"/>
			</g>
		</g>
		<g class="st112">
			<path class="st113" d="M20.4,22.7c0.2,0.3,0.6,0.3,0.7,0.6c0.3,0.9-0.8,0.9-0.3,1.7c0.1,0.2,0.3,0.5,1.1,0.2
				c0.3-0.1,0.6-0.4,0.8-0.6c0.3-0.5,0.3-1.1,0-1.5c-0.3-0.4-0.7-0.6-1.1-0.8c-0.2-0.1-0.3-0.1-0.5-0.2c-0.1,0-0.2-0.1-0.2-0.1
				c0,0-0.1-0.1-0.2-0.1C20.2,21.6,20.1,22.3,20.4,22.7z"/>
		</g>
		<g>
			<path class="st113" d="M22,25.1c0.5-0.3,0.7-0.9,0.6-1.4c0-0.3-0.1-0.6-0.3-0.8c-0.2-0.3-0.5-0.6-0.9-0.5
				c-0.1,0.1-0.3,0.2-0.2,0.3c0,0.3,0.2,0.4,0.4,0.6c0.1,0.1,0.2,0.3,0.2,0.4c0.1,0.4,0,0.8-0.1,1.1C21.7,25,21.9,25.2,22,25.1
				L22,25.1z"/>
		</g>
		<g>
			<path class="st113" d="M20.9,22.1C20.9,22.1,20.9,22.2,20.9,22.1c-0.1,0.1,0,0.2,0.1,0.3c0.1,0.1,0.2,0,0.3-0.1c0,0,0,0,0,0
				c0-0.1,0-0.2-0.1-0.2c0,0-0.1,0-0.1,0C20.9,22.1,20.9,22.1,20.9,22.1L20.9,22.1z"/>
		</g>
		<g class="st114">
			<defs>
				<path id="SVGID_67_" class="st114" d="M21,25.8c-0.4,0.1-0.8,0.1-1.2,0c-0.7-0.1-1.4-0.4-1.9-0.8c-0.2-0.1-0.3-0.3-0.4-0.5
					c-0.1-0.2-0.1-0.4-0.1-0.6c0-0.5,0.1-1,0.5-1.4c0.2-0.1,0.4-0.2,0.6-0.3c0.2-0.1,0.4-0.2,0.7-0.3c0.2,0,0.3-0.1,0.5-0.1
					c0.2-0.1,0.4-0.2,0.6-0.4c0.1-0.2,0.2-0.4,0.2-0.7c0-0.2,0-0.3-0.1-0.5c0-0.1,0-0.2,0.1-0.2c0.1,0,0.2,0,0.3,0c0,0,0.1,0,0.1,0
					c0,0,0,0.1,0.1,0.1c0,0.2,0,0.5,0,0.8c0,0.3,0,0.5,0.2,0.7c0.1,0.1,0.3,0.2,0.4,0.2c0.5,0.1,1,0.2,1.4,0.6
					c0.4,0.4,0.5,0.9,0.4,1.4c0,0.2-0.1,0.4-0.2,0.6C22.6,25.4,22.1,25.6,21,25.8z"/>
			</defs>
			<clipPath id="SVGID_68_">
				<use xlink:href="#SVGID_67_"  style="overflow:visible;"/>
			</clipPath>
			<g class="st115">
				<path class="st116" d="M19.2,22.3c-0.4,0.1-0.8,0.4-1,0.7c-0.3,0.3-0.4,0.7-0.4,1.1c0,0.8,0.5,1.7,1.2,2.1
					c0.1,0.1,0.2-0.1,0.1-0.2c-0.6-0.4-1-1.1-1-1.9C18,23.4,18.6,22.8,19.2,22.3C19.3,22.4,19.3,22.3,19.2,22.3L19.2,22.3z"/>
			</g>
			<g class="st117">
				<path class="st116" d="M20.1,22.1c-0.2,0.2-0.4,0.5-0.5,0.7c-0.2,0.4-0.3,0.8-0.4,1.2c-0.2,0.9,0.1,1.7,0.6,2.4
					c0.1,0.1,0.2,0,0.1-0.1c-0.5-0.7-0.7-1.5-0.6-2.3c0.1-0.4,0.2-0.7,0.4-1.1C19.9,22.6,20,22.3,20.1,22.1
					C20.2,22.1,20.2,22,20.1,22.1L20.1,22.1z"/>
			</g>
			<g class="st115">
				<path class="st116" d="M20.6,22.7c0,0.3,0.1,0.6,0.1,0.9c0,0.3,0,0.6-0.1,0.9c0,0.3-0.1,0.6-0.1,1c-0.1,0.3-0.2,0.6-0.2,0.9
					c0,0.1,0.2,0.2,0.2,0.1c0.3-0.6,0.3-1.2,0.4-1.8c0-0.3,0.1-0.6,0-0.9c0-0.3-0.1-0.6-0.2-0.9C20.7,22.7,20.6,22.7,20.6,22.7
					L20.6,22.7z"/>
			</g>
			<g class="st118">
				<path class="st116" d="M21.6,22.9c0.4,0.3,0.3,1,0.3,1.4c0,0.3-0.1,0.7-0.3,0.9c-0.1,0.3-0.3,0.5-0.5,0.8c0,0.1,0.1,0.2,0.2,0.1
					c0.3-0.2,0.4-0.5,0.6-0.8c0.1-0.3,0.2-0.7,0.3-1C22.2,23.8,22.2,23.1,21.6,22.9C21.6,22.8,21.6,22.8,21.6,22.9L21.6,22.9z"/>
			</g>
			<g class="st119">
				<path class="st116" d="M22.2,22.6c0.4,0.3,0.8,0.9,0.9,1.4c0,0.6-0.3,1.1-0.6,1.6c0,0.1,0.1,0.3,0.2,0.1
					c0.4-0.5,0.7-1.2,0.6-1.8C23.2,23.4,22.7,22.9,22.2,22.6C22.2,22.5,22.1,22.6,22.2,22.6L22.2,22.6z"/>
			</g>
		</g>
		<g>
			<defs>
				<path id="SVGID_69_" d="M21,25.8c-0.4,0.1-0.8,0.1-1.2,0c-0.7-0.1-1.4-0.4-1.9-0.8c-0.2-0.1-0.3-0.3-0.4-0.5
					c-0.1-0.2-0.1-0.4-0.1-0.6c0-0.5,0.1-1,0.5-1.4c0.2-0.1,0.4-0.2,0.6-0.3c0.2-0.1,0.4-0.2,0.7-0.3c0.2,0,0.3-0.1,0.5-0.1
					c0.2-0.1,0.4-0.2,0.6-0.4c0.1-0.2,0.2-0.4,0.2-0.7c0-0.2,0-0.3-0.1-0.5c0-0.1,0-0.2,0.1-0.2c0.1,0,0.2,0,0.3,0c0,0,0.1,0,0.1,0
					c0,0,0,0.1,0.1,0.1c0,0.2,0,0.5,0,0.8c0,0.3,0,0.5,0.2,0.7c0.1,0.1,0.3,0.2,0.4,0.2c0.5,0.1,1,0.2,1.4,0.6
					c0.4,0.4,0.5,0.9,0.4,1.4c0,0.2-0.1,0.4-0.2,0.6C22.6,25.4,22.1,25.6,21,25.8z"/>
			</defs>
			<clipPath id="SVGID_70_">
				<use xlink:href="#SVGID_69_"  style="overflow:visible;"/>
			</clipPath>
			<g class="st120">
				<g>
					<path class="st121" d="M18.5,23.2c0.1-0.1,0.2-0.2,0.2-0.3c0.1-0.1,0.3-0.2,0.4-0.3c0.2-0.1,0.4-0.3,0.5-0.5c0,0,0,0,0,0
						c-0.2,0.2-0.4,0.4-0.6,0.5c-0.1,0.1-0.2,0.2-0.3,0.2C18.6,23,18.5,23.1,18.5,23.2C18.4,23.2,18.5,23.2,18.5,23.2L18.5,23.2z"/>
				</g>
				<g>
					<path class="st121" d="M18.9,22.9c-0.3,0.2-0.5,0.4-0.6,0.7c-0.1,0.3-0.2,0.6-0.2,0.9c0,0,0,0,0,0
						C18.1,23.9,18.5,23.2,18.9,22.9C19,22.9,19,22.9,18.9,22.9L18.9,22.9z"/>
				</g>
				<g>
					<path class="st121" d="M18.5,22.6C18,23,17.7,23.4,17.7,24c0,0,0,0,0,0C17.7,23.4,18.1,23,18.5,22.6
						C18.5,22.6,18.5,22.6,18.5,22.6L18.5,22.6z"/>
				</g>
				<g>
					<path class="st121" d="M17.8,23.1c0.1-0.3,0.4-0.5,0.7-0.6c0.4-0.2,0.8-0.3,1.1-0.5c0,0,0,0,0,0c-0.4,0.2-0.8,0.4-1.2,0.6
						C18.2,22.6,17.9,22.8,17.8,23.1C17.8,23.1,17.8,23.1,17.8,23.1L17.8,23.1z"/>
				</g>
				<g>
					<path class="st121" d="M19.8,22.2c-0.4,0.3-0.7,0.7-0.9,1.2c-0.1,0.2-0.2,0.4-0.3,0.7c-0.1,0.3,0,0.5,0,0.8c0,0,0,0,0,0
						c0-0.2-0.1-0.5-0.1-0.7c0-0.3,0.2-0.6,0.3-0.8C19.2,22.9,19.4,22.5,19.8,22.2C19.8,22.2,19.8,22.2,19.8,22.2L19.8,22.2z"/>
				</g>
				<g>
					<path class="st121" d="M19.3,23c-0.3,0.3-0.4,0.8-0.5,1.2c-0.1,0.6,0.1,1.1,0.3,1.6c0,0,0,0,0,0c-0.2-0.5-0.4-0.9-0.3-1.5
						C18.9,23.9,19,23.4,19.3,23C19.3,23,19.3,23,19.3,23L19.3,23z"/>
				</g>
				<g>
					<path class="st121" d="M18.7,25.2c0.1,0.2,0.1,0.5,0.3,0.6c0,0,0,0,0,0C18.9,25.6,18.8,25.4,18.7,25.2
						C18.7,25.2,18.7,25.2,18.7,25.2L18.7,25.2z"/>
				</g>
				<g>
					<path class="st121" d="M19.6,22.7c-0.2,0.3-0.4,0.7-0.5,1.1c-0.1,0.3-0.2,0.7-0.1,1.1c0,0,0,0,0,0c-0.1-0.4,0-0.8,0.1-1.1
						C19.2,23.3,19.4,23,19.6,22.7C19.6,22.7,19.6,22.6,19.6,22.7L19.6,22.7z"/>
				</g>
				<g>
					<path class="st121" d="M19.6,23.7c-0.1,0.1-0.1,0.3-0.1,0.5c0,0.2,0,0.4,0,0.6c0,0.4,0.2,0.9,0.3,1.3c0,0,0,0,0,0
						c-0.1-0.4-0.2-0.8-0.3-1.2c0-0.2,0-0.4,0-0.6C19.5,24.1,19.5,23.9,19.6,23.7C19.6,23.7,19.6,23.7,19.6,23.7L19.6,23.7z"/>
				</g>
				<g>
					<path class="st121" d="M19.6,23.5c0.1-0.3,0.3-0.5,0.5-0.8c0.2-0.3,0.2-0.6,0.3-0.8c0,0,0,0,0,0c-0.1,0.3-0.2,0.6-0.4,0.9
						C19.9,23,19.7,23.2,19.6,23.5C19.6,23.5,19.6,23.5,19.6,23.5L19.6,23.5z"/>
				</g>
				<g>
					<path class="st121" d="M19.9,23.2c-0.2,0.2-0.2,0.4-0.2,0.7c0,0.3-0.1,0.5-0.1,0.8c0,0,0,0,0,0c0-0.3,0-0.5,0.1-0.8
						C19.8,23.6,19.8,23.4,19.9,23.2C19.9,23.2,19.9,23.2,19.9,23.2L19.9,23.2z"/>
				</g>
				<g>
					<path class="st121" d="M19.8,24c0,0.4-0.1,0.8-0.1,1.2c0,0.4,0,0.8,0.2,1.1c0,0,0.1,0,0,0c0-0.2-0.1-0.4-0.1-0.6
						c0-0.2,0-0.4,0-0.6C19.8,24.7,19.9,24.4,19.8,24C19.8,24,19.8,24,19.8,24L19.8,24z"/>
				</g>
				<g>
					<path class="st121" d="M19.6,24.9c0,0.1,0,0.2,0,0.3c0,0,0,0,0,0C19.7,25,19.6,25,19.6,24.9C19.7,24.9,19.6,24.9,19.6,24.9
						L19.6,24.9z"/>
				</g>
				<g>
					<path class="st121" d="M19.8,23.8c0.1-0.3,0.2-0.5,0.3-0.8c0.1-0.2,0.2-0.5,0.3-0.7c0,0,0,0,0,0c-0.2,0.2-0.2,0.5-0.3,0.7
						C20,23.3,19.9,23.5,19.8,23.8C19.8,23.8,19.8,23.8,19.8,23.8L19.8,23.8z"/>
				</g>
				<g>
					<path class="st121" d="M20.5,22.4c0,0.1-0.1,0.2-0.1,0.3c0,0.1-0.1,0.2-0.2,0.3c-0.1,0.2-0.1,0.3-0.1,0.5c0,0.2,0,0.5,0,0.7
						c0,0.3,0,0.5,0,0.8c0,0,0.1,0,0.1,0c0-0.2,0-0.4,0-0.6c0-0.2,0-0.5,0-0.7c0-0.3,0.1-0.5,0.2-0.7C20.4,22.8,20.4,22.6,20.5,22.4
						C20.5,22.4,20.5,22.4,20.5,22.4L20.5,22.4z"/>
				</g>
				<g>
					<path class="st121" d="M20,26.1c0.1,0,0.1-0.2,0.1-0.3c0-0.2,0-0.3,0-0.5c0,0,0,0,0,0c0,0.1,0,0.2,0,0.4
						C20.1,25.9,20.1,26,20,26.1C20,26.1,20,26.1,20,26.1L20,26.1z"/>
				</g>
				<g>
					<path class="st121" d="M20.2,25.5c0-0.6,0.1-1.2,0.1-1.9c0,0,0,0,0,0c-0.1,0.3,0,0.6,0,0.9C20.3,24.8,20.2,25.1,20.2,25.5
						C20.2,25.5,20.2,25.5,20.2,25.5L20.2,25.5z"/>
				</g>
				<g>
					<path class="st121" d="M20.9,22.8c0.1,0.6,0.3,1.1,0.2,1.7c0,0,0,0,0,0C21.2,23.9,21,23.3,20.9,22.8
						C20.9,22.8,20.9,22.8,20.9,22.8L20.9,22.8z"/>
				</g>
				<g>
					<path class="st121" d="M21,24.8c0,0.3-0.1,0.5-0.1,0.8c-0.1,0.2-0.2,0.4-0.3,0.6c0,0,0,0,0,0c0.1-0.2,0.2-0.4,0.3-0.6
						C21,25.4,21,25.1,21,24.8C21,24.8,21,24.8,21,24.8L21,24.8z"/>
				</g>
				<g>
					<path class="st121" d="M21.1,25.4c0.1-0.6,0.5-1.3,0.2-1.9c0,0,0,0,0,0C21.4,24.1,21.1,24.7,21.1,25.4
						C21.1,25.4,21.1,25.4,21.1,25.4L21.1,25.4z"/>
				</g>
				<g>
					<path class="st121" d="M21.5,23c0.3,0.4,0.4,1,0.2,1.5c0,0,0,0,0,0C22,24.1,21.9,23.4,21.5,23C21.5,23,21.5,23,21.5,23L21.5,23
						z"/>
				</g>
				<g>
					<path class="st121" d="M21.7,24.7c-0.1,0.5-0.4,0.9-0.5,1.4c0,0,0,0,0,0c0.1-0.3,0.2-0.6,0.3-0.8
						C21.6,25.1,21.7,24.9,21.7,24.7C21.7,24.7,21.7,24.7,21.7,24.7L21.7,24.7z"/>
				</g>
				<g>
					<path class="st121" d="M21,25.7c0,0.1-0.1,0.3-0.1,0.4c0,0,0,0,0,0C21,25.9,21,25.8,21,25.7C21.1,25.7,21,25.7,21,25.7L21,25.7
						z"/>
				</g>
				<g>
					<path class="st121" d="M22.3,23.6c0.1,0.4,0.1,0.8-0.1,1.3c0,0,0,0,0,0C22.4,24.5,22.5,24,22.3,23.6
						C22.3,23.6,22.3,23.6,22.3,23.6L22.3,23.6z"/>
				</g>
				<g>
					<path class="st121" d="M22.5,24.3c0,0.5-0.3,1-0.4,1.5c0,0,0,0,0,0C22.2,25.3,22.5,24.8,22.5,24.3
						C22.5,24.3,22.5,24.3,22.5,24.3L22.5,24.3z"/>
				</g>
				<g>
					<path class="st121" d="M22.1,25.1c-0.1,0.1-0.1,0.2-0.1,0.2c0,0.1-0.1,0.3-0.1,0.4c0,0,0,0,0,0c0-0.1,0.1-0.2,0.1-0.3
						C22.1,25.3,22.1,25.2,22.1,25.1C22.2,25.1,22.1,25.1,22.1,25.1L22.1,25.1z"/>
				</g>
				<g>
					<path class="st121" d="M22.4,23.1c0.2,0.4,0.4,0.8,0.3,1.2c0,0,0,0.1,0.1,0C23,23.9,22.7,23.4,22.4,23.1
						C22.4,23.1,22.4,23.1,22.4,23.1L22.4,23.1z"/>
				</g>
				<g>
					<path class="st121" d="M22.7,22.7c0.4,0.4,0.7,0.8,0.8,1.3c0,0,0,0,0,0C23.4,23.4,23.1,23,22.7,22.7
						C22.7,22.7,22.7,22.7,22.7,22.7L22.7,22.7z"/>
				</g>
				<g>
					<path class="st121" d="M20.7,21.3c0,0.3,0,0.6,0.2,0.8c0,0,0,0,0,0C20.8,21.8,20.7,21.5,20.7,21.3
						C20.7,21.3,20.7,21.3,20.7,21.3L20.7,21.3z"/>
				</g>
				<g>
					<path class="st121" d="M20.6,21.6c0,0.1,0,0.3,0,0.4c0,0,0,0,0,0C20.7,21.9,20.6,21.7,20.6,21.6C20.6,21.6,20.6,21.6,20.6,21.6
						L20.6,21.6z"/>
				</g>
				<g>
					<path class="st121" d="M20.5,21.6c0,0.1,0,0.1,0,0.2c0,0.1,0,0.2,0,0.2c0,0,0,0,0,0C20.6,21.9,20.6,21.7,20.5,21.6
						C20.5,21.5,20.5,21.5,20.5,21.6L20.5,21.6z"/>
				</g>
			</g>
		</g>
		<g class="st6">
			<path class="st113" d="M20.1,25.2c0.2-0.3,0.3-0.7,0.4-1c0.1-0.4,0.2-0.8,0.1-1.2c0-0.6-0.9-0.5-0.8,0.1c0,0.2,0.1,0.3,0.1,0.5
				c0,0.2,0,0.3,0,0.5c0,0.3,0,0.7-0.1,1C19.9,25.2,20,25.3,20.1,25.2L20.1,25.2z"/>
		</g>
		<g class="st122">
			<path class="st113" d="M21.5,25c0.1-0.4,0.2-0.7,0.3-1.1c0-0.3,0.1-0.9-0.2-1.1c-0.1-0.1-0.3,0-0.4,0.1c-0.1,0.2-0.1,0.3,0,0.5
				c0,0.2,0,0.3,0,0.5c0,0.3,0,0.7-0.1,1C21.1,25.1,21.4,25.2,21.5,25L21.5,25z"/>
		</g>
		<g class="st123">
			<path class="st113" d="M18.8,24.5c0.1-0.3,0.1-0.6,0.3-0.8c0.1-0.3,0.4-0.6,0.3-0.9c0-0.1-0.1-0.2-0.2-0.2
				c-0.4,0-0.5,0.5-0.6,0.8c-0.1,0.3-0.1,0.7,0,1C18.7,24.6,18.8,24.6,18.8,24.5L18.8,24.5z"/>
		</g>
		<g class="st6">
			<path class="st113" d="M18,23c0.2-0.3,0.6-0.4,0.9-0.5c0.1-0.1,0.1-0.2-0.1-0.2c-0.4,0-0.9,0.3-0.9,0.7
				C17.9,23.1,17.9,23.1,18,23L18,23z"/>
		</g>
	</g>
	<g>
		<path class="st124" d="M21.8,26c-0.3-0.2-0.6-0.7-0.6-1c0-0.1,0-0.2,0.1-0.2c0.6-0.2,1.2-0.4,1.8-0.7c0.3-0.1,0.5-0.2,0.8-0.3
			c0.1,0,0.1,0,0.2,0c0.1,0,0.1,0.1,0.1,0.2c0.2,0.5,0.2,1.1,0,1.6c-0.3,0.5-0.8,0.8-1.4,0.7c-0.3,0-0.5,0-0.8-0.2
			C22,26.1,21.9,26.1,21.8,26z"/>
		<g>
			<defs>
				<path id="SVGID_71_" d="M21.8,26c-0.3-0.2-0.6-0.7-0.6-1c0-0.1,0-0.2,0.1-0.2c0.6-0.2,1.2-0.4,1.8-0.7c0.3-0.1,0.5-0.2,0.8-0.3
					c0.1,0,0.1,0,0.2,0c0.1,0,0.1,0.1,0.1,0.2c0.2,0.5,0.2,1.1,0,1.6c-0.3,0.5-0.8,0.8-1.4,0.7c-0.3,0-0.5,0-0.8-0.2
					C22,26.1,21.9,26.1,21.8,26z"/>
			</defs>
			<clipPath id="SVGID_72_">
				<use xlink:href="#SVGID_71_"  style="overflow:visible;"/>
			</clipPath>
			<g class="st125">
				<path class="st126" d="M21.1,25c0.2,0.1,0.4,0.1,0.6,0c0.4,0,0.7-0.1,1-0.2c0.7-0.2,1.4-0.4,1.9-0.9c0.1-0.1,0.1-0.4,0-0.5
					c-0.1-0.2-0.4-0.3-0.6-0.1c-0.2,0.1-0.4,0.3-0.6,0.4c-0.3,0.1-0.5,0.3-0.8,0.4c-0.3,0.1-0.6,0.2-0.9,0.4c-0.1,0-0.2,0.1-0.3,0.1
					c-0.1,0-0.2,0.1-0.3,0.1C21,24.7,20.9,24.9,21.1,25L21.1,25z"/>
			</g>
		</g>
		<g class="st127">
			<defs>
				<path id="SVGID_73_" class="st127" d="M21.8,26c-0.3-0.2-0.6-0.7-0.6-1c0-0.1,0-0.2,0.1-0.2c0.6-0.2,1.2-0.4,1.8-0.7
					c0.3-0.1,0.5-0.2,0.8-0.3c0.1,0,0.1,0,0.2,0c0.1,0,0.1,0.1,0.1,0.2c0.2,0.5,0.2,1.1,0,1.6c-0.3,0.5-0.8,0.8-1.4,0.7
					c-0.3,0-0.5,0-0.8-0.2C22,26.1,21.9,26.1,21.8,26z"/>
			</defs>
			<clipPath id="SVGID_74_">
				<use xlink:href="#SVGID_73_"  style="overflow:visible;"/>
			</clipPath>
			<g class="st128">
				<path class="st129" d="M23.3,23.7c-0.3,0-2.3,0.9-2.4,1.1c-0.2,0.5,0.6,1.4,0.9,1.6c0.4,0.3,1.6,0,2-0.1c0.2,0,0.5-0.5,0.7-0.6
					c0.2-0.1,0.4-0.4,0.6-0.6c0.2-0.2,0.1-0.5-0.2-0.6c-0.4-0.1-0.8,0.1-1.1,0.3c-0.3,0.1-0.5,0.1-0.8,0c-0.1,0-0.2-0.1-0.3-0.2
					c0,0-0.1-0.1,0,0c-0.1-0.3,0.5-0.8,0.4-0.8L23.3,23.7z"/>
			</g>
			<g class="st128">
				<path class="st129" d="M22.6,24.2c-0.3,0-2.3,0.9-2.4,1.1c-0.2,0.5,0.6,1.4,0.9,1.6c0.4,0.3,1.6,0,2-0.1c0.2,0,0.5-0.5,0.7-0.6
					c0.2-0.1,0.4-0.4,0.6-0.6c0.2-0.2,0.5-0.4,0.3-0.3c-0.3,0.2-1.1,0.3-1.5,0.3c-1.2,0.1-1.4-0.4-1.5-0.7c-0.1-0.2,0.4-0.5,0.3-0.5
					L22.6,24.2z"/>
			</g>
			<g class="st128">
				<path class="st129" d="M22.2,24.2c-0.3,0-2.3,0.9-2.4,1.1c-0.2,0.5,0.6,1.4,0.9,1.6c0.4,0.3,1.6,0,2-0.1c0.2,0,0.5-0.5,0.7-0.6
					c0.2-0.1,0.8,0.2,0.9-0.1c0.2-0.2,0.4-0.6,0.1-0.4c-0.3,0.2-1.1,0.2-1.4,0.3c-1.2,0.1-1.6-0.8-1.7-1c-0.1-0.2,0.6-0.5,0.4-0.5
					L22.2,24.2z"/>
			</g>
		</g>
		<g class="st130">
			<path class="st131" d="M22,25.1c0.3,0.1,0.7,0.1,1,0c0.2-0.1,0.4-0.1,0.5-0.2c0.1,0,0.1,0,0.2,0c0,0,0,0,0,0c0.1,0,0,0-0.1,0
				c0.4,0.4,1-0.4,0.5-0.6c-0.3-0.2-0.7,0-1,0.1c-0.4,0.2-0.7,0.4-1.2,0.4C21.8,24.7,21.8,25,22,25.1L22,25.1z"/>
		</g>
	</g>
</g>
</svg>
